<?xml version="1.0" encoding="UTF-8"?>
<svg version="1.1" xmlns="http://www.w3.org/2000/svg" width="541" height="362">
<path d="M0 0 C23.32804521 -0.89038341 44.30352999 8.5089671 61.86328125 23.31640625 C72.72155299 33.41147678 81.82306402 47.06835594 86.37109375 61.21484375 C86.37109375 61.54484375 86.37109375 61.87484375 86.37109375 62.21484375 C85.81236572 62.25448242 85.2536377 62.29412109 84.67797852 62.33496094 C82.09493594 62.52797599 79.51459432 62.74626925 76.93359375 62.96484375 C76.05509766 63.02671875 75.17660156 63.08859375 74.27148438 63.15234375 C66.89884817 63.80527094 59.5175089 65.37969363 54.43359375 71.15234375 C49.05398151 79.14025283 49.42778553 87.46636143 50.953125 96.76171875 C54.68725346 112.38026518 62.41271485 126.70535184 69.93359375 140.77734375 C70.45107178 141.75179443 70.9685498 142.72624512 71.50170898 143.73022461 C74.84768858 149.86896929 78.59836763 155.46186221 82.84741211 161.01538086 C84.37109375 163.21484375 84.37109375 163.21484375 84.37109375 165.21484375 C82.7265625 166.36328125 82.7265625 166.36328125 80.55859375 167.58984375 C76.19684045 170.20997824 74.0020665 172.32192549 72.37109375 177.21484375 C72.14234766 179.13537279 71.95601602 181.06106249 71.79296875 182.98828125 C71.68662109 184.18783447 71.58027344 185.3873877 71.47070312 186.62329102 C71.35533203 187.93225342 71.23996094 189.24121582 71.12109375 190.58984375 C69.98277511 203.02463219 68.53321563 215.40205651 66.87109375 227.77734375 C66.76953979 228.54786072 66.66798584 229.31837769 66.56335449 230.11224365 C65.26313284 239.93313933 63.61201511 249.55712725 61.37109375 259.21484375 C60.71109375 259.21484375 60.05109375 259.21484375 59.37109375 259.21484375 C59.14421875 259.93671875 58.91734375 260.65859375 58.68359375 261.40234375 C55.9997227 267.153496 51.11348498 270.7493033 45.37109375 273.21484375 C36.43783703 276.28442095 25.50415466 278.49434084 16.37109375 275.02734375 C8.88991539 270.50746516 5.45832252 264.21449327 2.37109375 256.21484375 C-1.39826237 239.69576891 0.01025882 221.86449229 -0.00976562 205.00146484 C-0.01382298 202.24444961 -0.02843034 199.48785523 -0.05410767 196.73095703 C-0.07736593 194.15781093 -0.085001 191.58446048 -0.07455444 189.01123047 C-0.16219042 181.28702115 -0.81832887 175.61228756 -6.04867554 169.57641602 C-8.56116486 167.4115829 -11.45372566 166.99471267 -14.62890625 166.21484375 C-15.96237732 165.88206187 -17.29574545 165.54886646 -18.62890625 165.21484375 C-16.976239 156.33175727 -13.66092869 148.32700741 -10.26171875 139.984375 C-2.4588388 120.33866245 -2.19050706 97.3476391 -9.50390625 77.33984375 C-12.34686113 71.14780187 -16.40780966 67.8443037 -22.62890625 65.21484375 C-33.32517936 63.93681758 -44.24005865 65.14831971 -53.80078125 70.41015625 C-55.62890625 71.21484375 -55.62890625 71.21484375 -58.62890625 70.21484375 C-56.21365989 49.58991105 -51.26327798 28.87742638 -35.62890625 14.21484375 C-35.07847656 13.64636719 -34.52804688 13.07789063 -33.9609375 12.4921875 C-24.69033788 3.54205306 -12.37946636 1.01169487 0 0 Z " fill="#336690" transform="translate(207.62890625,48.78515625)"/>
<path d="M0 0 C-1.62361937 3.60804304 -3.84457546 6.57233299 -6.1875 9.75 C-21.98700801 32.06476904 -24.42373806 58.79104293 -24.0625 85.375 C-24.02558591 88.65361332 -23.99533456 91.93219465 -23.97265625 95.2109375 C-23.96454422 96.37293671 -23.96454422 96.37293671 -23.95626831 97.55841064 C-23.94362974 102.67944866 -24.17909057 107.71576322 -24.75463867 112.80908203 C-26.15630264 125.3250347 -22.46267843 136.28259064 -16 147 C-14.53929169 148.67005434 -14.53929169 148.67005434 -13.0625 149.9375 C-12.381875 150.618125 -11.70125 151.29875 -11 152 C-11.26034095 156.10537656 -12.49979993 157.92243883 -15.5 160.625 C-18.76992267 163.72558739 -21.67227802 166.92739373 -24.5 170.4375 C-37.32591635 186.30984742 -37.32591635 186.30984742 -43 188 C-47.61328276 188.17086232 -50.39063206 187.04029532 -53.9375 184.25 C-77.78047279 161.50959243 -85.05435391 118.01360221 -92 87 C-92.24008789 85.93668457 -92.48017578 84.87336914 -92.72753906 83.77783203 C-97.6402925 61.34097225 -100.00107602 35.38355511 -88.8125 14.4375 C-81.91948166 3.73132258 -72.3269265 -2.42912436 -60.1875 -5.8125 C-40.06752897 -9.95484698 -19.28033561 -6.10647285 0 0 Z " fill="#336690" transform="translate(166,57)"/>
<path d="M0 0 C0.93779297 0.00322266 1.87558594 0.00644531 2.84179688 0.00976562 C4.30649414 0.02233398 4.30649414 0.02233398 5.80078125 0.03515625 C6.78884766 0.03966797 7.77691406 0.04417969 8.79492188 0.04882812 C11.23443599 0.06061322 13.67382814 0.07706614 16.11328125 0.09765625 C16.11328125 0.75765625 16.11328125 1.41765625 16.11328125 2.09765625 C17.18578125 1.93265625 18.25828125 1.76765625 19.36328125 1.59765625 C23.11328125 1.09765625 23.11328125 1.09765625 27.11328125 1.09765625 C27.11328125 1.75765625 27.11328125 2.41765625 27.11328125 3.09765625 C28.10908203 3.18853516 28.10908203 3.18853516 29.125 3.28125 C41.4989706 4.45542239 41.4989706 4.45542239 43.48828125 6.53515625 C45.94182957 8.89433733 48.87929667 9.21566046 52.11328125 10.09765625 C52.77328125 10.75765625 53.43328125 11.41765625 54.11328125 12.09765625 C55.06203125 12.38640625 56.01078125 12.67515625 56.98828125 12.97265625 C60.33627808 14.17793511 61.72690917 15.54082902 64.11328125 18.09765625 C64.77328125 18.09765625 65.43328125 18.09765625 66.11328125 18.09765625 C67.82558373 19.71740184 69.48491387 21.39355085 71.11328125 23.09765625 C71.97953125 23.94328125 72.84578125 24.78890625 73.73828125 25.66015625 C76.38151653 28.37295035 78.5190614 30.87426244 80.17578125 34.28515625 C80.98030286 36.27657782 80.98030286 36.27657782 83.11328125 37.09765625 C88.7616833 43.36192768 89.02303587 50.03239361 89.11328125 58.09765625 C89.13229492 59.10473633 89.15130859 60.11181641 89.17089844 61.14941406 C89.23203493 64.6321894 89.2708241 68.11447798 89.30078125 71.59765625 C89.32072144 73.31734619 89.32072144 73.31734619 89.34106445 75.07177734 C89.34195068 76.16312988 89.34283691 77.25448242 89.34375 78.37890625 C89.34785889 79.35923828 89.35196777 80.33957031 89.35620117 81.34960938 C89.096804 84.28405617 88.28899184 86.41390088 87.11328125 89.09765625 C86.73889836 91.59147657 86.73889836 91.59147657 86.61328125 94.09765625 C86.30434844 97.82691659 85.64061604 100.66115298 84.11328125 104.09765625 C83.73735059 106.09008875 83.3934858 108.08952365 83.11328125 110.09765625 C82.45328125 110.09765625 81.79328125 110.09765625 81.11328125 110.09765625 C80.98953125 111.25265625 80.86578125 112.40765625 80.73828125 113.59765625 C79.84852732 120.60446848 78.00852573 126.63903396 75.11328125 133.09765625 C72.93338974 138.37484536 70.83369999 143.64966358 69.11328125 149.09765625 C68.45328125 149.09765625 67.79328125 149.09765625 67.11328125 149.09765625 C67.11328125 150.41765625 67.11328125 151.73765625 67.11328125 153.09765625 C66.45328125 153.09765625 65.79328125 153.09765625 65.11328125 153.09765625 C65.44328125 154.08765625 65.77328125 155.07765625 66.11328125 156.09765625 C65.45328125 156.09765625 64.79328125 156.09765625 64.11328125 156.09765625 C64.01015625 156.98453125 63.90703125 157.87140625 63.80078125 158.78515625 C62.8953432 163.14772138 61.24775711 165.96318039 58.11328125 169.09765625 C58.11328125 170.08765625 58.11328125 171.07765625 58.11328125 172.09765625 C57.45328125 173.08765625 56.79328125 174.07765625 56.11328125 175.09765625 C56.11328125 175.75765625 56.11328125 176.41765625 56.11328125 177.09765625 C62.34223211 178.23019277 67.03077029 177.80132251 73.11328125 176.09765625 C73.11328125 176.75765625 73.11328125 177.41765625 73.11328125 178.09765625 C73.97953125 177.87078125 74.84578125 177.64390625 75.73828125 177.41015625 C79.949043 177.0202709 81.62524483 177.74702301 85.11328125 180.09765625 C89.11328125 185.25555099 89.11328125 185.25555099 89.11328125 188.09765625 C89.77328125 188.09765625 90.43328125 188.09765625 91.11328125 188.09765625 C91.44328125 189.41765625 91.77328125 190.73765625 92.11328125 192.09765625 C91.45328125 192.09765625 90.79328125 192.09765625 90.11328125 192.09765625 C90.36078125 192.92265625 90.60828125 193.74765625 90.86328125 194.59765625 C91.26728797 200.25375028 88.68932724 204.22610164 85.11328125 208.47265625 C83.18425618 210.03998912 81.33950496 211.02292756 79.11328125 212.09765625 C78.78328125 212.75765625 78.45328125 213.41765625 78.11328125 214.09765625 C77.45328125 214.09765625 76.79328125 214.09765625 76.11328125 214.09765625 C75.78328125 214.75765625 75.45328125 215.41765625 75.11328125 216.09765625 C73.97890625 216.57203125 72.84453125 217.04640625 71.67578125 217.53515625 C67.92260012 218.79956613 67.92260012 218.79956613 66.11328125 222.09765625 C63.8359375 222.79296875 63.8359375 222.79296875 61.17578125 223.22265625 C58.34752396 223.69750357 55.84313315 224.18770562 53.11328125 225.09765625 C52.45328125 224.76765625 51.79328125 224.43765625 51.11328125 224.09765625 C51.11328125 224.75765625 51.11328125 225.41765625 51.11328125 226.09765625 C43.46244167 227.34677292 35.83887139 227.18819051 28.11328125 227.09765625 C28.44328125 227.42765625 28.77328125 227.75765625 29.11328125 228.09765625 C28.45328125 228.42765625 27.79328125 228.75765625 27.11328125 229.09765625 C27.11851807 229.72857178 27.12375488 230.3594873 27.12915039 231.00952148 C27.14985951 233.85138972 27.16292191 236.69324213 27.17578125 239.53515625 C27.18416016 240.52837891 27.19253906 241.52160156 27.20117188 242.54492188 C27.20439453 243.48916016 27.20761719 244.43339844 27.2109375 245.40625 C27.21617432 246.28079834 27.22141113 247.15534668 27.22680664 248.05639648 C27.11328125 250.09765625 27.11328125 250.09765625 26.11328125 251.09765625 C25.7858899 253.93107961 25.50121286 256.75821956 25.23828125 259.59765625 C24.57772548 266.12896546 23.63170286 271.99688089 21.11328125 278.09765625 C20.72140625 279.27328125 20.32953125 280.44890625 19.92578125 281.66015625 C19.65765625 282.46453125 19.38953125 283.26890625 19.11328125 284.09765625 C18.45328125 284.09765625 17.79328125 284.09765625 17.11328125 284.09765625 C16.71109375 285.73734375 16.71109375 285.73734375 16.30078125 287.41015625 C15.16091136 290.94975223 14.67333735 291.75093815 12.11328125 294.09765625 C11.82453125 294.92265625 11.53578125 295.74765625 11.23828125 296.59765625 C9.80238962 299.78852653 8.1570712 300.49966652 5.11328125 302.09765625 C4.45328125 302.75765625 3.79328125 303.41765625 3.11328125 304.09765625 C1.67892722 305.01143392 0.21700902 305.88258167 -1.26171875 306.72265625 C-2.03257812 307.16867187 -2.8034375 307.6146875 -3.59765625 308.07421875 C-5.88671875 309.09765625 -5.88671875 309.09765625 -9.88671875 309.09765625 C-10.21671875 309.75765625 -10.54671875 310.41765625 -10.88671875 311.09765625 C-16.10736286 313.56296041 -21.04438658 314.22406093 -26.7734375 314.23046875 C-27.87623047 314.23175781 -28.97902344 314.23304688 -30.11523438 314.234375 C-31.82743164 314.22857422 -31.82743164 314.22857422 -33.57421875 314.22265625 C-34.72728516 314.22652344 -35.88035156 314.23039062 -37.06835938 314.234375 C-38.16728516 314.23308594 -39.26621094 314.23179687 -40.3984375 314.23046875 C-41.40350342 314.22934082 -42.40856934 314.22821289 -43.4440918 314.22705078 C-45.88671875 314.09765625 -45.88671875 314.09765625 -47.88671875 313.09765625 C-47.88671875 312.43765625 -47.88671875 311.77765625 -47.88671875 311.09765625 C-49.86671875 310.43765625 -51.84671875 309.77765625 -53.88671875 309.09765625 C-53.88671875 308.43765625 -53.88671875 307.77765625 -53.88671875 307.09765625 C-54.58796875 306.93265625 -55.28921875 306.76765625 -56.01171875 306.59765625 C-62.78267437 303.06498375 -65.63547509 296.04011424 -67.88671875 289.09765625 C-68.42350454 287.69993865 -68.96513639 286.30407203 -69.51171875 284.91015625 C-70.60634787 281.98544406 -71.39811961 279.19211745 -71.88671875 276.09765625 C-72.05171875 275.19015625 -72.21671875 274.28265625 -72.38671875 273.34765625 C-72.89067075 270.07196824 -73.28621205 266.80326754 -73.6328125 263.5078125 C-73.80111661 261.91021807 -73.98068247 260.31376713 -74.171875 258.71875 C-74.91884877 252.16431822 -74.98866391 245.69010982 -74.88671875 239.09765625 C-79.8467448 237.79238624 -83.55341995 238.53129085 -88.4296875 239.61328125 C-94.29730763 240.770014 -100.00547281 240.10661746 -105.75 238.61328125 C-107.92513679 238.05965076 -107.92513679 238.05965076 -110.32421875 237.703125 C-115.48900432 236.86069808 -118.41758135 236.26062113 -121.88671875 232.09765625 C-122.87671875 232.09765625 -123.86671875 232.09765625 -124.88671875 232.09765625 C-127.22236808 231.78095804 -129.55609695 231.44944822 -131.88671875 231.09765625 C-132.21671875 231.75765625 -132.54671875 232.41765625 -132.88671875 233.09765625 C-134.55172318 233.43919562 -136.21850552 233.77215123 -137.88671875 234.09765625 C-138.54671875 234.75765625 -139.20671875 235.41765625 -139.88671875 236.09765625 C-139.88671875 235.43765625 -139.88671875 234.77765625 -139.88671875 234.09765625 C-140.91796875 234.26265625 -141.94921875 234.42765625 -143.01171875 234.59765625 C-148.50081302 235.30592648 -152.9031588 235.78111161 -157.88671875 233.09765625 C-159.55338542 231.43098958 -161.22005208 229.76432292 -162.88671875 228.09765625 C-164.08941406 227.69353516 -164.08941406 227.69353516 -165.31640625 227.28125 C-168.70933804 225.71885132 -169.65028332 223.86029524 -171.51171875 220.66015625 C-173.43069927 217.39962599 -175.17467294 214.72144022 -177.88671875 212.09765625 C-178.22005208 210.76432292 -178.55338542 209.43098958 -178.88671875 208.09765625 C-179.35062012 207.64052246 -179.81452148 207.18338867 -180.29248047 206.71240234 C-182.00552002 204.97732675 -182.85927037 203.45958347 -183.89453125 201.26171875 C-184.24128906 200.52695313 -184.58804688 199.7921875 -184.9453125 199.03515625 C-185.29722656 198.27203125 -185.64914063 197.50890625 -186.01171875 196.72265625 C-186.37136719 195.96726563 -186.73101562 195.211875 -187.1015625 194.43359375 C-188.86249369 190.66111195 -190.26954188 187.24817071 -190.88671875 183.09765625 C-191.5373297 181.42465666 -192.20705199 179.75906388 -192.88671875 178.09765625 C-194.84690365 172.7699742 -196.28554 167.74873654 -196.88671875 162.09765625 C-197.54671875 162.09765625 -198.20671875 162.09765625 -198.88671875 162.09765625 C-199.07234375 160.70546875 -199.07234375 160.70546875 -199.26171875 159.28515625 C-199.70204957 155.9584039 -199.70204957 155.9584039 -201.88671875 153.09765625 C-202.4557568 150.4886168 -202.95259373 147.91614472 -203.38671875 145.28515625 C-204.21124789 140.36969405 -205.24808507 135.82271239 -206.88671875 131.09765625 C-207.2733288 129.41729232 -207.62967321 127.72955317 -207.94921875 126.03515625 C-208.10519531 125.21917969 -208.26117188 124.40320313 -208.421875 123.5625 C-208.57527344 122.74910156 -208.72867188 121.93570313 -208.88671875 121.09765625 C-209.44612286 118.15856482 -210.09161382 115.41065514 -210.94921875 112.53515625 C-211.88671875 109.09765625 -211.88671875 109.09765625 -211.88671875 105.09765625 C-212.54255082 102.76125449 -213.20886883 100.42776534 -213.88671875 98.09765625 C-213.88671875 96.20959905 -213.87647604 94.32148657 -213.8515625 92.43359375 C-213.84253906 91.45648438 -213.83351562 90.479375 -213.82421875 89.47265625 C-213.81261719 88.49039063 -213.80101562 87.508125 -213.7890625 86.49609375 C-213.61341503 84.1450419 -213.61341503 84.1450419 -214.88671875 83.09765625 C-214.82160077 80.14662762 -214.6941575 77.22926155 -214.51171875 74.28515625 C-214.46789062 73.46466797 -214.4240625 72.64417969 -214.37890625 71.79882812 C-214.01820489 65.62181732 -214.01820489 65.62181732 -213.36474609 63.0168457 C-212.76587213 60.94211767 -212.76587213 60.94211767 -212.88671875 58.09765625 C-212.22671875 58.09765625 -211.56671875 58.09765625 -210.88671875 58.09765625 C-211.09296875 57.37578125 -211.29921875 56.65390625 -211.51171875 55.91015625 C-211.95231274 52.60570136 -211.29525885 51.0712409 -209.88671875 48.09765625 C-209.55671875 47.10765625 -209.22671875 46.11765625 -208.88671875 45.09765625 C-208.22671875 45.09765625 -207.56671875 45.09765625 -206.88671875 45.09765625 C-207.38171875 43.61265625 -207.38171875 43.61265625 -207.88671875 42.09765625 C-207.55671875 41.43765625 -207.22671875 40.77765625 -206.88671875 40.09765625 C-206.22671875 40.09765625 -205.56671875 40.09765625 -204.88671875 40.09765625 C-204.82484375 39.43765625 -204.76296875 38.77765625 -204.69921875 38.09765625 C-202.75551213 30.92089336 -198.04561454 25.19324438 -191.88671875 21.09765625 C-191.22671875 21.09765625 -190.56671875 21.09765625 -189.88671875 21.09765625 C-189.88671875 20.43765625 -189.88671875 19.77765625 -189.88671875 19.09765625 C-187.86922172 16.67665981 -185.79873279 15.28066196 -182.88671875 14.09765625 C-181.89671875 14.09765625 -180.90671875 14.09765625 -179.88671875 14.09765625 C-179.88671875 13.43765625 -179.88671875 12.77765625 -179.88671875 12.09765625 C-178.17491798 11.35923239 -176.46246348 10.62227202 -174.74609375 9.89453125 C-173.30392626 9.27645947 -171.87383561 8.63017173 -170.44921875 7.97265625 C-167.69821076 7.03328767 -165.03263597 6.63981094 -162.14453125 6.34375 C-160.38442629 6.15190465 -158.63241532 5.88533926 -156.88671875 5.58984375 C-140.15701712 3.19321052 -122.11702212 4.49879056 -105.88671875 9.09765625 C-105.39171875 10.08765625 -105.39171875 10.08765625 -104.88671875 11.09765625 C-104.55671875 10.43765625 -104.22671875 9.77765625 -103.88671875 9.09765625 C-103.22671875 9.09765625 -102.56671875 9.09765625 -101.88671875 9.09765625 C-101.39171875 10.08765625 -101.39171875 10.08765625 -100.88671875 11.09765625 C-97.5767883 12.53160724 -97.5767883 12.53160724 -93.88671875 13.09765625 C-92.52749786 12.13313754 -91.19648439 11.12833164 -89.88671875 10.09765625 C-87.37890625 9.18359375 -87.37890625 9.18359375 -84.76171875 8.47265625 C-81.236414 7.51348885 -81.236414 7.51348885 -77.88671875 6.09765625 C-76.89671875 6.59265625 -76.89671875 6.59265625 -75.88671875 7.09765625 C-75.55671875 6.43765625 -75.22671875 5.77765625 -74.88671875 5.09765625 C-67.63895282 3.90851085 -60.40361346 3.94686366 -53.07421875 3.97265625 C-51.95595703 3.96878906 -50.83769531 3.96492188 -49.68554688 3.9609375 C-48.61111328 3.96222656 -47.53667969 3.96351562 -46.4296875 3.96484375 C-44.97598755 3.96653564 -44.97598755 3.96653564 -43.49291992 3.96826172 C-41.1185524 4.08614601 -39.17051345 4.49244038 -36.88671875 5.09765625 C-31.8245119 5.33871372 -28.52861115 5.23041762 -23.88671875 3.09765625 C-19.42197312 2.05562873 -14.97104565 1.7287827 -10.41015625 1.37890625 C-6.75826723 0.97188456 -3.73568216 -0.0226405 0 0 Z M-27.46484375 14.51171875 C-32.66227526 15.76916186 -37.77466587 15.03909485 -42.98779297 14.28369141 C-57.50514857 12.24183768 -75.82490259 12.34571479 -88.07421875 21.47265625 C-91.25828866 23.31234109 -91.57188329 23.21422081 -94.9296875 22.35546875 C-96.12863647 22.05890381 -96.12863647 22.05890381 -97.35180664 21.75634766 C-98.18832764 21.53897949 -99.02484863 21.32161133 -99.88671875 21.09765625 C-101.53484981 20.69016481 -103.18329154 20.28392802 -104.83203125 19.87890625 C-105.67386963 19.66967529 -106.51570801 19.46044434 -107.38305664 19.24487305 C-131.82845628 13.22604195 -156.74299244 10.55310459 -179.484375 23.56640625 C-182.43291839 25.44580301 -184.61047249 27.44203562 -186.88671875 30.09765625 C-187.42683594 30.64808594 -187.96695313 31.19851562 -188.5234375 31.765625 C-202.13858097 46.08958288 -204.45958159 65.48732728 -204.15234375 84.41015625 C-202.70825496 125.46758256 -188.57440798 190.27726925 -158.20703125 219.7265625 C-152.8553621 224.05475576 -147.36981104 224.30254403 -140.69921875 223.91015625 C-130.79869066 221.05000369 -124.12454417 211.33947254 -118 203.6484375 C-115.88671875 201.09765625 -115.88671875 201.09765625 -113.6171875 198.890625 C-111.65523388 197.27311716 -111.65523388 197.27311716 -111.88671875 195.09765625 C-111.22671875 195.09765625 -110.56671875 195.09765625 -109.88671875 195.09765625 C-109.65984375 194.31390625 -109.43296875 193.53015625 -109.19921875 192.72265625 C-107.88671875 190.09765625 -107.88671875 190.09765625 -105.76171875 188.59765625 C-102.11638036 187.96368436 -100.20737196 188.93141298 -96.87890625 190.36328125 C-94.17526613 191.35991722 -91.73907025 191.23032376 -88.88671875 191.09765625 C-87.89671875 191.42765625 -86.90671875 191.75765625 -85.88671875 192.09765625 C-86.79604884 193.37374948 -87.71454728 194.64331178 -88.63671875 195.91015625 C-89.40242188 196.97169922 -89.40242188 196.97169922 -90.18359375 198.0546875 C-94.44799855 203.17001711 -99.0451292 204.12190359 -105.32421875 205.59765625 C-113.02891375 207.31901934 -113.02891375 207.31901934 -119.88671875 211.09765625 C-121.3310273 213.98627334 -121.26360381 215.89413326 -120.88671875 219.09765625 C-115.67634748 225.88692791 -108.62120055 227.45595265 -100.57421875 228.74609375 C-89.95138484 230.13570865 -80.6878085 228.01335446 -71.49609375 222.4765625 C-70.43874023 221.84435791 -69.38138672 221.21215332 -68.29199219 220.56079102 C-67.49825195 220.07795654 -66.70451172 219.59512207 -65.88671875 219.09765625 C-65.9024292 220.62181152 -65.9024292 220.62181152 -65.91845703 222.17675781 C-68.23518301 262.51164002 -68.23518301 262.51164002 -52.296875 297.8828125 C-46.39741152 303.53241635 -39.33805411 305.21961751 -31.32421875 305.41015625 C-26.30965309 305.25499388 -21.70282713 304.46998821 -16.88671875 303.09765625 C-16.14679688 302.90300781 -15.406875 302.70835937 -14.64453125 302.5078125 C-5.75350117 299.90818606 1.96512488 294.87633413 7.11328125 287.09765625 C11.50657416 278.49433545 13.36708705 269.90860753 14.73828125 260.41015625 C14.94472161 259.05609369 15.15209262 257.70217272 15.36035156 256.34838867 C17.12376064 244.72007023 18.55372389 233.0489333 19.80371094 221.35473633 C20.09776753 219.21076695 20.54467036 217.18385968 21.11328125 215.09765625 C22.37140625 215.26265625 23.62953125 215.42765625 24.92578125 215.59765625 C42.90733844 217.53629288 58.36298686 214.240607 73.25 203.74609375 C75.37690258 202.14178747 75.37690258 202.14178747 76.11328125 199.09765625 C77.10328125 198.76765625 78.09328125 198.43765625 79.11328125 198.09765625 C79.45359375 196.21046875 79.45359375 196.21046875 79.80078125 194.28515625 C79.92839844 193.57746094 80.05601562 192.86976563 80.1875 192.140625 C80.29612801 190.02204902 80.29612801 190.02204902 78.890625 188.35546875 C74.57325316 185.30009791 68.10372989 186.93606689 63.1328125 187.625 C54.00337989 188.89022877 46.24304766 189.16177735 37.11328125 187.09765625 C38.37341229 182.85169747 39.95149275 179.51245607 42.42578125 175.84765625 C45.17242865 171.63726055 47.57733542 167.43948958 49.75 162.91015625 C50.75836334 160.82986512 51.80932542 158.77010181 52.8828125 156.72265625 C62.76107907 137.82736896 71.05791977 117.09011568 75.11328125 96.09765625 C75.48259766 94.31875 75.48259766 94.31875 75.859375 92.50390625 C79.22617088 76.24824733 82.97072463 57.22912203 74.11328125 42.09765625 C73.45328125 41.10765625 72.79328125 40.11765625 72.11328125 39.09765625 C71.45328125 39.09765625 70.79328125 39.09765625 70.11328125 39.09765625 C69.87480469 38.52660156 69.63632812 37.95554687 69.390625 37.3671875 C61.55430373 23.44393779 42.96175396 16.60831483 28.4765625 12.31640625 C11.05792564 8.06338181 -10.46181453 8.7489471 -27.46484375 14.51171875 Z M86.11328125 45.09765625 C87.11328125 47.09765625 87.11328125 47.09765625 87.11328125 47.09765625 Z M-213.88671875 78.09765625 C-212.88671875 81.09765625 -212.88671875 81.09765625 -212.88671875 81.09765625 Z M87.11328125 82.09765625 C88.11328125 84.09765625 88.11328125 84.09765625 88.11328125 84.09765625 Z M-208.88671875 118.09765625 C-207.88671875 120.09765625 -207.88671875 120.09765625 -207.88671875 120.09765625 Z M53.11328125 177.09765625 C54.11328125 179.09765625 54.11328125 179.09765625 54.11328125 179.09765625 Z M55.11328125 178.09765625 C54.78328125 178.75765625 54.45328125 179.41765625 54.11328125 180.09765625 C55.43328125 179.43765625 56.75328125 178.77765625 58.11328125 178.09765625 C57.12328125 178.09765625 56.13328125 178.09765625 55.11328125 178.09765625 Z " fill="#020202" transform="translate(265.88671875,27.90234375)"/>
<path d="M0 0 C1.42965088 0.00737183 1.42965088 0.00737183 2.88818359 0.01489258 C26.55259079 0.40066079 45.65013351 8.28071423 62.328125 25.234375 C68.32675825 31.81539982 68.8268731 38.29639414 68.8125 46.9375 C68.81088867 47.95005859 68.80927734 48.96261719 68.80761719 50.00585938 C68.6467132 60.10810601 66.86505461 69.53992629 64.4375 79.3125 C64.13358475 80.61576197 63.83016727 81.91914017 63.52734375 83.22265625 C57.22232582 108.7429669 45.73362609 139.55931378 29.4375 160.3125 C28.4475 160.3125 27.4575 160.3125 26.4375 160.3125 C27.07135574 156.65462417 28.09089415 153.39312824 29.4375 149.9375 C32.86405165 140.61380331 33.20225614 131.10845724 31.9375 121.2890625 C31.20654735 115.05831228 31.29213584 108.82787448 31.3125 102.5625 C31.30669922 100.75458984 31.30669922 100.75458984 31.30078125 98.91015625 C31.30207031 97.74871094 31.30335938 96.58726562 31.3046875 95.390625 C31.30581543 94.34293945 31.30694336 93.29525391 31.30810547 92.21582031 C31.43075517 89.46383882 31.86034241 86.99922075 32.4375 84.3125 C33.85283316 70.76683863 32.17048782 60.12364496 25.4375 48.3125 C24.86257813 47.29542969 24.28765625 46.27835938 23.6953125 45.23046875 C12.76403701 27.22157019 -1.90385484 13.90699712 -20.5625 4.3125 C-20.5625 3.6525 -20.5625 2.9925 -20.5625 2.3125 C-13.64744101 0.68854409 -7.09831433 -0.04389529 0 0 Z " fill="#33658F" transform="translate(268.5625,45.6875)"/>
<path d="M0 0 C7.08379267 5.72732173 7.62397719 15.20743509 8.67382812 23.73339844 C10.80591889 45.09378928 6.49830095 61.90181557 -2.12939453 81.27392578 C-3.47097249 84.29475777 -4.76632848 87.33444812 -6.0625 90.375 C-14.46137804 90.89992988 -20.6109672 88.31995432 -27.17578125 83.109375 C-33.20889484 77.56340723 -37.53998936 70.48134041 -39.0625 62.375 C-39.15844222 59.63500296 -39.20187835 56.92657552 -39.1875 54.1875 C-39.19136719 53.47013672 -39.19523438 52.75277344 -39.19921875 52.01367188 C-39.19267885 48.36113975 -39.02437188 44.83471119 -38.53125 41.21484375 C-38.04893615 37.28955756 -38.08087466 33.49868071 -38.2109375 29.546875 C-38.24574219 28.33515625 -38.28054687 27.1234375 -38.31640625 25.875 C-38.39766723 23.35853095 -38.50214206 20.84271258 -38.62890625 18.328125 C-38.82808084 9.45062915 -38.82808084 9.45062915 -36.73022461 6.50317383 C-34.89445425 5.12074998 -33.18936939 4.23773746 -31.0625 3.375 C-29.89332031 2.85292969 -28.72414062 2.33085938 -27.51953125 1.79296875 C-18.64513653 -1.20320953 -8.95475564 -4.4306411 0 0 Z M-14.0625 6.375 C-12.81273244 10.02816671 -12.39151247 11.15565836 -9.0625 13.375 C-6.10480823 13.87510524 -6.10480823 13.87510524 -3.0625 13.375 C-0.68530307 11.49998069 -0.68530307 11.49998069 0.9375 9.375 C-2.81924048 5.36568277 -2.81924048 5.36568277 -8 4.1875 C-11.23681454 4.1280642 -11.23681454 4.1280642 -14.0625 6.375 Z " fill="#33658F" transform="translate(187.0625,121.625)"/>
<path d="M0 0 C-0.14284092 2.02104705 -0.28942383 4.04182977 -0.4375 6.0625 C-0.51871094 7.18785156 -0.59992188 8.31320313 -0.68359375 9.47265625 C-0.88975717 11.77099655 -1.16785969 14.06435475 -1.52734375 16.34375 C-2.09510618 20.73569739 -2.14607555 25.01514701 -2.125 29.4375 C-2.12886719 30.24509766 -2.13273437 31.05269531 -2.13671875 31.88476562 C-2.12960468 36.29904865 -1.84444026 40.52213656 -1.23583984 44.90307617 C-0.76715738 49.07027459 -0.77416272 53.24828777 -0.75 57.4375 C-0.729375 58.32759766 -0.70875 59.21769531 -0.6875 60.13476562 C-0.65154271 66.28795659 -1.68931505 71.29909065 -4 77 C-8.25071926 75.58309358 -9.13126462 72.55793403 -11.0546875 68.7734375 C-11.4381131 68.03356598 -11.8215387 67.29369446 -12.21658325 66.53140259 C-13.02996087 64.95508185 -13.83832335 63.37616494 -14.64208984 61.79492188 C-15.84926733 59.42550737 -17.07747312 57.06798021 -18.30859375 54.7109375 C-34.51998665 23.31000158 -34.51998665 23.31000158 -29.9375 8.4375 C-27.25791509 3.68339774 -24.79737653 1.81645918 -19.55078125 0.28515625 C-12.85820925 -1.17556203 -6.75094297 -0.96628584 0 0 Z M-23 8 C-22.31552961 11.03369734 -22.31552961 11.03369734 -20.25 12.25 C-17.3828583 13.2057139 -15.85244768 12.95081589 -13 12 C-11.05967596 10.81104764 -11.05967596 10.81104764 -10 9 C-10.22757731 6.83700789 -10.22757731 6.83700789 -11 5 C-16.02254631 4.7045561 -18.89542386 5.01485372 -23 8 Z " fill="#33668F" transform="translate(295,119)"/>
<path d="M0 0 C6.5625 2.34375 6.5625 2.34375 9 6 C9.72422696 10.27293907 10.00596205 12.55881603 7.4921875 16.16015625 C3.20229701 20.66033549 -1.25230249 23.69607062 -7 26 C-7.9075 26.4125 -8.815 26.825 -9.75 27.25 C-18.18715059 29.19703475 -29.11217214 28.94391393 -37 25 C-36.505 23.515 -36.505 23.515 -36 22 C-33.30189338 21.07578668 -30.69406111 20.32047852 -27.9375 19.625 C-16.62990663 16.48737647 -11.15170605 12.80048106 -3.8828125 3.328125 C-2 1 -2 1 0 0 Z " fill="#35668F" transform="translate(191,221)"/>
<path d="M0 0 C3.51183588 3.1732508 5.8249866 6.72407314 8.125 10.8125 C8.47175781 11.40353516 8.81851563 11.99457031 9.17578125 12.60351562 C11.47893258 16.64947304 12.87753768 20.48122129 14 25 C13.44127197 25.03963867 12.88254395 25.07927734 12.30688477 25.12011719 C9.72384219 25.31313224 7.14350057 25.5314255 4.5625 25.75 C3.68400391 25.811875 2.80550781 25.87375 1.90039062 25.9375 C-5.47224558 26.59042719 -12.85358485 28.16484988 -17.9375 33.9375 C-23.31711224 41.92540908 -22.94330822 50.25151768 -21.41796875 59.546875 C-17.68384029 75.16542143 -9.9583789 89.49050809 -2.4375 103.5625 C-1.92002197 104.53695068 -1.40254395 105.51140137 -0.86938477 106.51538086 C2.47659483 112.65412554 6.22727388 118.24701846 10.47631836 123.80053711 C12 126 12 126 12 128 C10.35546875 129.1484375 10.35546875 129.1484375 8.1875 130.375 C3.8257467 132.99513449 1.63097275 135.10708174 0 140 C-0.22874609 141.92052904 -0.41507773 143.84621874 -0.578125 145.7734375 C-0.68447266 146.97299072 -0.79082031 148.17254395 -0.90039062 149.40844727 C-1.01576172 150.71740967 -1.13113281 152.02637207 -1.25 153.375 C-2.38831864 165.80978844 -3.83787812 178.18721276 -5.5 190.5625 C-5.60155396 191.33301697 -5.70310791 192.10353394 -5.80773926 192.8973999 C-7.10796091 202.71829558 -8.75907864 212.3422835 -11 222 C-11.99 221.67 -12.98 221.34 -14 221 C-13.80664062 220.27659424 -13.61328125 219.55318848 -13.4140625 218.80786133 C-11.50931506 211.47352287 -10.09757661 204.18195317 -9 196.6875 C-8.83266357 195.56448486 -8.66532715 194.44146973 -8.49291992 193.28442383 C-7.98709856 189.85741783 -7.49248669 186.42894479 -7 183 C-6.84998535 181.97777344 -6.6999707 180.95554687 -6.54541016 179.90234375 C-5.02483053 169.46962113 -3.89026118 159.23139757 -3.625 148.6875 C-3.44380906 141.89750965 -2.81010904 136.96481511 0.85546875 131.0703125 C3.39491679 126.47677167 3 121.11451139 3 116 C2.01 116 1.02 116 0 116 C-0.43699219 114.76636719 -0.43699219 114.76636719 -0.8828125 113.5078125 C-3.22258982 107.13596609 -5.77109225 101.40048283 -9.38671875 95.6640625 C-14.24932958 87.63427899 -18.53144039 79.07476174 -21 70 C-21.350625 68.78441406 -21.70125 67.56882812 -22.0625 66.31640625 C-24.83728519 56.34729016 -27.34626756 46.52565018 -23 36.625 C-19.44040759 30.4819915 -15.49969698 26.94391827 -8.58203125 25.078125 C-6.18652304 24.58337304 -3.78112453 24.13343575 -1.3671875 23.73828125 C2.139596 22.96939252 4.86762115 21.72804487 8 20 C7.38125 19.46375 6.7625 18.9275 6.125 18.375 C2.41981303 14.23390868 2 10.35394237 2 5 C1.07254351 2.26225382 1.07254351 2.26225382 0 0 Z M4 10 C4 10.66 4 11.32 4 12 C4.66 11.67 5.32 11.34 6 11 C5.34 10.67 4.68 10.34 4 10 Z " fill="#375B78" transform="translate(280,86)"/>
<path d="M0 0 C4.28480302 1.239943 8.16426366 1.22630855 12.59765625 1.15625 C13.85703003 1.14658203 13.85703003 1.14658203 15.1418457 1.13671875 C20.92784783 1.06503079 26.60636786 0.72170585 32.34765625 -0.03125 C30.73649161 4.80224393 26.64211073 6.52627901 22.34765625 8.96875 C12.24510761 13.94109816 -2.7132395 15.33849031 -13.65234375 12.96875 C-14.31234375 12.63875 -14.97234375 12.30875 -15.65234375 11.96875 C-16.12016553 3.85983911 -16.12016553 3.85983911 -14.33984375 0.46875 C-10.07666078 -3.32074597 -4.91925653 -1.91264171 0 0 Z " fill="#396182" transform="translate(302.65234375,223.03125)"/>
<path d="M0 0 C-0.14284092 2.02104705 -0.28942383 4.04182977 -0.4375 6.0625 C-0.51871094 7.18785156 -0.59992188 8.31320313 -0.68359375 9.47265625 C-0.88975717 11.77099655 -1.16785969 14.06435475 -1.52734375 16.34375 C-2.09510618 20.73569739 -2.14607555 25.01514701 -2.125 29.4375 C-2.12886719 30.24509766 -2.13273437 31.05269531 -2.13671875 31.88476562 C-2.12960468 36.29904865 -1.84444026 40.52213656 -1.23583984 44.90307617 C-0.76715738 49.07027459 -0.77416272 53.24828777 -0.75 57.4375 C-0.729375 58.32759766 -0.70875 59.21769531 -0.6875 60.13476562 C-0.65154271 66.28795659 -1.68931505 71.29909065 -4 77 C-7 76 -7 76 -8.16796875 73.93359375 C-8.50441406 73.10988281 -8.84085937 72.28617187 -9.1875 71.4375 C-9.53167969 70.61121094 -9.87585938 69.78492188 -10.23046875 68.93359375 C-10.48441406 68.29550781 -10.73835938 67.65742188 -11 67 C-9 67 -9 67 -6.875 69 C-5.946875 69.99 -5.946875 69.99 -5 71 C-5.33 70.01 -5.66 69.02 -6 68 C-5.01 67.505 -5.01 67.505 -4 67 C-1.8355501 60.5066503 -1.87414344 50.25171311 -5 44 C-5.02876387 41.44113628 -4.99699778 38.91509569 -4.9140625 36.359375 C-4.89282318 35.59957336 -4.87158386 34.83977173 -4.84970093 34.0569458 C-4.80339865 32.44625423 -4.75446714 30.83563645 -4.703125 29.22509766 C-4.6257548 26.77391314 -4.55832448 24.32260415 -4.4921875 21.87109375 C-4.44591107 20.3046697 -4.39905446 18.73826267 -4.3515625 17.171875 C-4.33171295 16.44353455 -4.3118634 15.71519409 -4.29141235 14.96478271 C-4.15555578 10.89711514 -3.76758733 6.99709931 -3 3 C-5.64 2.67 -8.28 2.34 -11 2 C-11 2.99 -11 3.98 -11 5 C-10.34 5 -9.68 5 -9 5 C-8.875 7.875 -8.875 7.875 -9 11 C-11.27795022 13.27795022 -12.93787293 14.05219877 -16 15 C-19.13415895 14.90205753 -20.21239661 13.82711904 -22.6875 11.8125 C-25.22390251 8.72768614 -25.72603479 6.92683468 -26 3 C-17.12566513 -1.25228546 -9.62743921 -1.15033741 0 0 Z M-23 8 C-22.31552961 11.03369734 -22.31552961 11.03369734 -20.25 12.25 C-17.3828583 13.2057139 -15.85244768 12.95081589 -13 12 C-11.05967596 10.81104764 -11.05967596 10.81104764 -10 9 C-10.22757731 6.83700789 -10.22757731 6.83700789 -11 5 C-16.02254631 4.7045561 -18.89542386 5.01485372 -23 8 Z " fill="#385D79" transform="translate(295,119)"/>
<path d="M0 0 C0.495 1.485 0.495 1.485 1 3 C-2.3 6.63 -5.6 10.26 -9 14 C-8.34 14.66 -7.68 15.32 -7 16 C-7.66 17.98 -8.32 19.96 -9 22 C-0.34623591 19.71636781 5.92875447 15.57718266 12 9 C12 12.59964985 11.45850257 12.97350971 9 15.4375 C5.34516773 18.93727878 1.65187396 21.0833894 -3 23 C-3.9075 23.4125 -4.815 23.825 -5.75 24.25 C-14.18715059 26.19703475 -25.11217214 25.94391393 -33 22 C-32.505 20.515 -32.505 20.515 -32 19 C-29.30188031 18.07578221 -26.69418562 17.320079 -23.9375 16.625 C-12.65765602 13.51025939 -6.79220385 9.7425674 0 0 Z " fill="#366388" transform="translate(187,224)"/>
<path d="M0 0 C0.66 0.33 1.32 0.66 2 1 C-4.43641055 17.90007238 -11.82069332 34.11498792 -20.9375 49.75 C-21.30286865 50.38848877 -21.6682373 51.02697754 -22.04467773 51.68481445 C-23.08984375 53.421875 -23.08984375 53.421875 -25 56 C-25.99 56 -26.98 56 -28 56 C-27.40183105 52.51582003 -26.44660169 49.55599868 -25.0625 46.3125 C-22.10932391 38.49463749 -21.69086538 30.26311353 -21 22 C-20.67 22 -20.34 22 -20 22 C-20 24.97 -20 27.94 -20 31 C-19.01 31 -18.02 31 -17 31 C-16.67 30.01 -16.34 29.02 -16 28 C-14.35 28 -12.7 28 -11 28 C-10.731875 26.989375 -10.46375 25.97875 -10.1875 24.9375 C-9.43375517 22.24477392 -8.49052434 19.78437346 -7.3125 17.25 C-5.61790994 14.06549276 -5.61790994 14.06549276 -7 11 C-6.01 10.67 -5.02 10.34 -4 10 C-2.75501391 7.67730041 -2.75501391 7.67730041 -1.8125 4.9375 C-1.46832031 4.01839844 -1.12414062 3.09929687 -0.76953125 2.15234375 C-0.38861328 1.08693359 -0.38861328 1.08693359 0 0 Z " fill="#395F80" transform="translate(323,150)"/>
<path d="M0 0 C0.66 0 1.32 0 2 0 C2.67220351 1.93558599 3.33758077 3.87354372 4 5.8125 C4.556875 7.43091797 4.556875 7.43091797 5.125 9.08203125 C6 12 6 12 6 15 C6.66 15 7.32 15 8 15 C8.22042969 16.03833984 8.22042969 16.03833984 8.4453125 17.09765625 C11.0501352 28.46007251 15.06098668 39.36483649 21.1171875 49.36328125 C22 51 22 51 22 53 C22.99 53 23.98 53 25 53 C25.33 54.65 25.66 56.3 26 58 C26.66 58 27.32 58 28 58 C28.4640625 59.36125 28.4640625 59.36125 28.9375 60.75 C31.39985726 64.63007811 33.44585182 65.96054306 37.64453125 67.65234375 C40.61586148 68.09089829 41.55549795 67.51278139 43.9375 65.75 C44.48277344 65.24984375 45.02804688 64.7496875 45.58984375 64.234375 C47 63 47 63 49 63 C49.38285156 62.17242187 49.38285156 62.17242187 49.7734375 61.328125 C51.19302074 58.63362942 52.86132254 56.23221272 54.625 53.75 C55.25664062 52.85796875 55.88828125 51.9659375 56.5390625 51.046875 C57.26222656 50.03367187 57.26222656 50.03367187 58 49 C59.32 49.33 60.64 49.66 62 50 C61.33613281 50.72445312 60.67226562 51.44890625 59.98828125 52.1953125 C59.10527344 53.16210938 58.22226563 54.12890625 57.3125 55.125 C56.85133789 55.62837891 56.39017578 56.13175781 55.91503906 56.65039062 C53.5919564 59.19871201 51.35182677 61.76693153 49.25 64.5 C46.63979698 67.40022557 44.69582972 68.7434179 41 70 C36.38671724 70.17086232 33.60936794 69.04029532 30.0625 66.25 C13.13041038 50.10089719 6.63920049 22.66961271 0 1 C0 0.67 0 0.34 0 0 Z " fill="#3C5D76" transform="translate(82,175)"/>
<path d="M0 0 C0.97137009 3.05269525 0.99956544 4.89413517 0.07421875 7.94921875 C-0.14556641 8.71685547 -0.36535156 9.48449219 -0.59179688 10.27539062 C-1.05737696 11.83363293 -1.52591968 13.3909945 -1.99804688 14.94726562 C-6.15006589 29.50924587 -6.26652692 44.36040583 -6.0625 59.375 C-6.02558591 62.65361335 -5.99535537 65.93219479 -5.97265625 69.2109375 C-5.96720291 69.98560364 -5.96174957 70.76026978 -5.95613098 71.55841064 C-5.9432493 76.68000204 -6.1805683 81.71564729 -6.76074219 86.80908203 C-7.59688972 94.46580446 -6.57169595 101.49234525 -5 109 C-5.66 109 -6.32 109 -7 109 C-7.12375 108.030625 -7.2475 107.06125 -7.375 106.0625 C-7.58125 105.051875 -7.7875 104.04125 -8 103 C-8.66 102.67 -9.32 102.34 -10 102 C-10.02803889 100.27093516 -10.04684082 98.54172126 -10.0625 96.8125 C-10.07410156 95.84957031 -10.08570313 94.88664062 -10.09765625 93.89453125 C-10.01804477 90.71962523 -9.78764257 87.6536565 -9.4921875 84.49609375 C-8.99862029 78.38781765 -8.93700894 72.32983237 -8.97265625 66.203125 C-8.97815994 65.23694748 -8.98366364 64.27076996 -8.98933411 63.27531433 C-9.01700327 59.24708521 -9.05190517 55.21900205 -9.09594727 51.19091797 C-9.12630546 48.21581444 -9.14395561 45.24083468 -9.16015625 42.265625 C-9.18034569 40.91999481 -9.18034569 40.91999481 -9.20094299 39.54718018 C-9.22370731 33.76443397 -8.48904269 28.58284148 -7 23 C-6.78408203 22.14374023 -6.56816406 21.28748047 -6.34570312 20.40527344 C-5.73341695 18.1860009 -5.12004217 15.9671205 -4.5 13.75 C-4.28730469 12.97398438 -4.07460937 12.19796875 -3.85546875 11.3984375 C-2.76983824 7.49549591 -1.61017703 3.72726165 0 0 Z " fill="#355B76" transform="translate(148,83)"/>
<path d="M0 0 C3.34992728 0.55832121 6.08952605 1.22815458 9 3 C10.16015625 4.69921875 10.16015625 4.69921875 11.0625 6.6875 C11.38992187 7.39519531 11.71734375 8.10289063 12.0546875 8.83203125 C12.36664063 9.54746094 12.67859375 10.26289062 13 11 C13.29132813 11.66386719 13.58265625 12.32773438 13.8828125 13.01171875 C14.59897312 14.670013 15.30053058 16.33459663 16 18 C16.33 18.66 16.66 19.32 17 20 C17.66 19.67 18.32 19.34 19 19 C18.93216309 19.68280029 18.86432617 20.36560059 18.79443359 21.0690918 C18.25264571 26.95212725 17.91404531 32.79975546 17.7890625 38.70703125 C17.7747821 39.36798798 17.76050171 40.0289447 17.74578857 40.70993042 C17.68829632 43.4353839 17.63328754 46.16062344 17.59863281 48.88647461 C17.40785317 62.79529765 17.40785317 62.79529765 14 69 C13.51895656 70.40911714 13.05696628 71.82507227 12.625 73.25 C10.86014375 78.66596098 8.71271313 83.98640477 6 89 C5.01 89.495 5.01 89.495 4 90 C5.38331356 85.69635782 6.81473781 81.43543693 8.46484375 77.2265625 C16.60175916 56.4403054 17.91833311 33.44578531 10.125 12.125 C8.39647548 8.3169479 6.2144464 5.71991618 3 3 C2 2 1 1 0 0 Z " fill="#395E7B" transform="translate(188,114)"/>
<path d="M0 0 C2.57040686 2.57040686 2.25962525 3.56926719 2.28710938 7.14208984 C2.30052368 8.21856781 2.31393799 9.29504578 2.32775879 10.40414429 C2.33303589 11.57788605 2.33831299 12.75162781 2.34375 13.9609375 C2.3583728 15.17584869 2.37299561 16.39075989 2.38806152 17.64248657 C2.43469499 21.55329013 2.4687316 25.46404528 2.5 29.375 C2.59061537 49.88436631 2.59061537 49.88436631 3.81640625 70.34765625 C3.91320679 71.50622635 3.91320679 71.50622635 4.01196289 72.6882019 C4.88613978 80.92871944 8.43265411 90.60839379 15 96 C22.17008712 100.6714204 33.90228458 98.02363897 42 97 C42 97.66 42 98.32 42 99 C34.20476082 101.44556523 24.82815978 102.82728364 17 99.8125 C9.54417818 95.30794099 6.03637302 88.99982648 3 81 C0.96750667 70.51628576 0.67629197 59.8695286 0.5859375 49.21875 C0.56715342 47.78429136 0.54757515 46.34984293 0.5272522 44.91540527 C0.47668715 41.20027791 0.43666543 37.485115 0.39910889 33.76983643 C0.35858509 29.95454679 0.30771782 26.13939516 0.2578125 22.32421875 C0.16195326 14.88290836 0.07727135 7.44152915 0 0 Z " fill="#3D5E7A" transform="translate(207,224)"/>
<path d="M0 0 C2.93763701 2.36288194 3.97177683 3.69960732 4.875 7.3125 C4.215 7.3125 3.555 7.3125 2.875 7.3125 C2.6275 8.075625 2.38 8.83875 2.125 9.625 C0.71307503 12.66063868 -0.17877656 13.75754874 -3.125 15.3125 C-7.33727783 16.04507006 -8.84327739 15.4898809 -12.5 13.1875 C-15.125 10.3125 -15.125 10.3125 -15.5 7 C-15.37625 6.113125 -15.2525 5.22625 -15.125 4.3125 C-14.465 4.3125 -13.805 4.3125 -13.125 4.3125 C-13.125 3.3225 -13.125 2.3325 -13.125 1.3125 C-16.095 0.8175 -16.095 0.8175 -19.125 0.3125 C-18.795 1.3025 -18.465 2.2925 -18.125 3.3125 C-20.765 3.3125 -23.405 3.3125 -26.125 3.3125 C-26.125 2.6525 -26.125 1.9925 -26.125 1.3125 C-17.93108448 -1.73302612 -8.21941241 -4.20369117 0 0 Z M-14.125 6.3125 C-12.87523244 9.96566671 -12.45401247 11.09315836 -9.125 13.3125 C-6.16730823 13.81260524 -6.16730823 13.81260524 -3.125 13.3125 C-0.74780307 11.43748069 -0.74780307 11.43748069 0.875 9.3125 C-2.88174048 5.30318277 -2.88174048 5.30318277 -8.0625 4.125 C-11.29931454 4.0655642 -11.29931454 4.0655642 -14.125 6.3125 Z " fill="#385C77" transform="translate(187.125,121.6875)"/>
<path d="M0 0 C0.66 0.33 1.32 0.66 2 1 C1.44570312 2.08539063 0.89140625 3.17078125 0.3203125 4.2890625 C-0.41167367 5.73426596 -1.14343248 7.17958458 -1.875 8.625 C-2.23980469 9.33785156 -2.60460937 10.05070312 -2.98046875 10.78515625 C-5.00000927 14.78751837 -6.7081111 18.68917073 -8 23 C-7.34 23.33 -6.68 23.66 -6 24 C-6.33 24.66 -6.66 25.32 -7 26 C-6.34 26.33 -5.68 26.66 -5 27 C-5.66 27.66 -6.32 28.32 -7 29 C-7.66 29 -8.32 29 -9 29 C-10.32 34.28 -11.64 39.56 -13 45 C-12.01 45 -11.02 45 -10 45 C-10 44.01 -10 43.02 -10 42 C-6.25 40.875 -6.25 40.875 -4 42 C-3.01 41.34 -2.02 40.68 -1 40 C3.59340716 38.95121629 8.05038768 38.86571223 12.75 38.875 C14.06484375 38.87242188 15.3796875 38.86984375 16.734375 38.8671875 C20 39 20 39 22 40 C21.505 40.99 21.505 40.99 21 42 C19.99582031 41.95359375 18.99164063 41.9071875 17.95703125 41.859375 C8.00296214 41.54387748 -1.22021571 42.26867987 -10.171875 47.1953125 C-12 48 -12 48 -15 47 C-10.7556719 10.7556719 -10.7556719 10.7556719 0 0 Z " fill="#3A617E" transform="translate(164,72)"/>
<path d="M0 0 C0.33 0.99 0.66 1.98 1 3 C1.66 3.33 2.32 3.66 3 4 C3 4.66 3 5.32 3 6 C2.34 6 1.68 6 1 6 C3.16519214 8.415022 4.82387586 9.92172261 7.8125 11.25 C11.55158929 13.30283334 13.52236607 15.70587328 16.2109375 18.95703125 C17.88764788 20.87170271 19.5835919 22.40902763 21.5625 24 C25.36521635 27.13164876 28.41863264 30.80173221 31 35 C31 35.66 31 36.32 31 37 C31.66 37 32.32 37 33 37 C34.49472189 39.71855567 35.98321037 42.44012648 37.4609375 45.16796875 C38.60197488 47.26759338 39.76415446 49.35575791 40.9375 51.4375 C42.13271517 54.32007776 41.88370398 55.12948568 41 58 C40.46632813 56.92363281 39.93265625 55.84726563 39.3828125 54.73828125 C28.0183922 32.27553188 12.57886567 15.61032111 -10 4 C-10 3.34 -10 2.68 -10 2 C-6.7 1.34 -3.4 0.68 0 0 Z " fill="#3A5D77" transform="translate(258,46)"/>
<path d="M0 0 C2.77109307 -0.05392397 5.54113818 -0.09363455 8.3125 -0.125 C9.09818359 -0.14175781 9.88386719 -0.15851563 10.69335938 -0.17578125 C11.45068359 -0.18222656 12.20800781 -0.18867188 12.98828125 -0.1953125 C13.68477783 -0.20578613 14.38127441 -0.21625977 15.09887695 -0.22705078 C17 0 17 0 20 2 C11.78744261 6.56253189 3.44467148 8.84327424 -6 8 C-8 5 -8 5 -8 2 C-2.25 0.875 -2.25 0.875 0 2 C0 1.34 0 0.68 0 0 Z " fill="#346690" transform="translate(306,227)"/>
<path d="M0 0 C18.58370123 -0.49483228 35.27059352 1.38473782 53 7 C51.32597755 10.71704985 48.99438875 13.89521048 46.625 17.1875 C43.03241848 22.2581558 40.2681413 27.18172449 38 33 C37.21255845 30.70879911 36.85325437 29.43663576 37.63671875 27.10546875 C37.98347656 26.47253906 38.33023438 25.83960937 38.6875 25.1875 C39.05746094 24.50042969 39.42742187 23.81335938 39.80859375 23.10546875 C40.20175781 22.41066406 40.59492188 21.71585938 41 21 C41.38285156 20.31550781 41.76570313 19.63101563 42.16015625 18.92578125 C43.09361364 17.27633861 44.0450343 15.63708406 45 14 C45.66 14 46.32 14 47 14 C47.185625 13.0409375 47.185625 13.0409375 47.375 12.0625 C47.58125 11.381875 47.7875 10.70125 48 10 C48.66 9.67 49.32 9.34 50 9 C46.88089144 7.20724134 44.32317572 6.65709282 40.75 6.375 C39.85796875 6.30023438 38.9659375 6.22546875 38.046875 6.1484375 C37.03367187 6.07496094 37.03367187 6.07496094 36 6 C36 5.34 36 4.68 36 4 C33.03 4 30.06 4 27 4 C27 3.34 27 2.68 27 2 C26.00871094 2.18433594 25.01742187 2.36867187 23.99609375 2.55859375 C19.92295528 3.14047067 16.10411714 2.70106758 12.0625 2.0625 C11.03672852 1.91264648 11.03672852 1.91264648 9.99023438 1.75976562 C8.3255091 1.51529548 6.66254178 1.2589029 5 1 C4.67 1.99 4.34 2.98 4 4 C3.67 3.34 3.34 2.68 3 2 C2.01 1.67 1.02 1.34 0 1 C0 0.67 0 0.34 0 0 Z " fill="#335872" transform="translate(113,50)"/>
<path d="M0 0 C16.50283481 -0.57772481 32.60575113 3.67398378 46.69140625 12.16015625 C46.69140625 12.82015625 46.69140625 13.48015625 46.69140625 14.16015625 C46.03140625 14.16015625 45.37140625 14.16015625 44.69140625 14.16015625 C44.69140625 13.50015625 44.69140625 12.84015625 44.69140625 12.16015625 C39.39984598 10.34988563 34.05235902 8.7493715 28.69140625 7.16015625 C28.69140625 6.50015625 28.69140625 5.84015625 28.69140625 5.16015625 C27.45390625 5.18078125 26.21640625 5.20140625 24.94140625 5.22265625 C22.00840051 5.22265625 19.50164936 5.06344868 16.69140625 4.16015625 C13.69865785 3.28952386 11.03201239 3.0316238 7.91796875 3.02734375 C7.01046875 3.02605469 6.10296875 3.02476563 5.16796875 3.0234375 C3.75644531 3.02923828 3.75644531 3.02923828 2.31640625 3.03515625 C1.383125 3.03128906 0.44984375 3.02742188 -0.51171875 3.0234375 C-5.22352057 3.03011144 -9.67542701 3.18393717 -14.30859375 4.16015625 C-14.30859375 4.82015625 -14.30859375 5.48015625 -14.30859375 6.16015625 C-16.28859375 6.16015625 -18.26859375 6.16015625 -20.30859375 6.16015625 C-20.30859375 5.50015625 -20.30859375 4.84015625 -20.30859375 4.16015625 C-13.53294797 1.95251756 -7.10826338 0.49312825 0 0 Z " fill="#385975" transform="translate(207.30859375,48.83984375)"/>
<path d="M0 0 C21.3819069 -0.59701291 40.98622001 1.12222437 59 14 C59.495 14.99 59.495 14.99 60 16 C55.92436122 14.460144 52.11900048 12.56148358 48.25 10.5625 C35.69036022 4.20985874 24.87550002 2.97391514 10.9375 2.4375 C9.35291992 2.37272461 9.35291992 2.37272461 7.73632812 2.30664062 C5.15765121 2.20162663 2.57889565 2.09947123 0 2 C0 1.34 0 0.68 0 0 Z " fill="#3A5E7A" transform="translate(260,46)"/>
<path d="M0 0 C0.66 0 1.32 0 2 0 C2.56903156 16.08170719 2.6899834 32.99273994 -4 48 C-4.33 48 -4.66 48 -5 48 C-6.25 40.375 -6.25 40.375 -4 37 C-3.34 37 -2.68 37 -2 37 C-2.226875 35.700625 -2.45375 34.40125 -2.6875 33.0625 C-3.31116649 29.49059194 -2.77019706 27.1394448 -1.53125 23.8125 C0.26545629 18.77367197 0.34792873 14.23987531 0.1875 8.9375 C0.16719727 7.6390918 0.16719727 7.6390918 0.14648438 6.31445312 C0.1115933 4.20935826 0.05780665 2.10459026 0 0 Z " fill="#3A5872" transform="translate(335,82)"/>
<path d="M0 0 C0.99 0.33 1.98 0.66 3 1 C2.505 1.928125 2.01 2.85625 1.5 3.8125 C-0.21289852 6.86527516 -0.21289852 6.86527516 0 10 C-0.875 11.9375 -0.875 11.9375 -2 14 C-6.58458889 22.47346195 -6.48482172 32.59121765 -7 42 C-7.33 42 -7.66 42 -8 42 C-8.39040348 32.72791745 -8.38926514 23.88813954 -6.25 14.8125 C-6.09305664 14.13131104 -5.93611328 13.45012207 -5.77441406 12.74829102 C-4.53878637 7.94274282 -2.58046865 4.17970867 0 0 Z " fill="#416584" transform="translate(78,71)"/>
<path d="M0 0 C1.25541557 3.76624671 0.37061958 5.37188934 -1 9 C-0.2575 9.2475 0.485 9.495 1.25 9.75 C4.24973455 11.1135157 5.92077267 12.45872215 8 15 C8 15.99 8 16.98 8 18 C7.34 18 6.68 18 6 18 C5.443125 17.21625 4.88625 16.4325 4.3125 15.625 C1.41506689 12.33602188 -0.77302003 11.90578142 -5 11 C-6.2065625 10.690625 -6.2065625 10.690625 -7.4375 10.375 C-7.953125 10.25125 -8.46875 10.1275 -9 10 C-8.7342546 6.10240081 -8.43693229 4.43693229 -5.625 1.625 C-3 0 -3 0 0 0 Z " fill="#375F80" transform="translate(198,204)"/>
<path d="M0 0 C0.33 0 0.66 0 1 0 C1.08564209 0.59014893 1.17128418 1.18029785 1.25952148 1.78833008 C1.64935599 4.46347393 2.04338014 7.13798429 2.4375 9.8125 C2.57220703 10.74126953 2.70691406 11.67003906 2.84570312 12.62695312 C2.97783203 13.51962891 3.10996094 14.41230469 3.24609375 15.33203125 C3.42676392 16.56530151 3.42676392 16.56530151 3.61108398 17.82348633 C3.97617892 20.16924057 3.97617892 20.16924057 5 23 C5.99 23.33 6.98 23.66 8 24 C7.34 24 6.68 24 6 24 C6.62197123 30.33881314 7.28542887 36.67094142 8 43 C7.34 42.67 6.68 42.34 6 42 C5.34570312 39.98144531 5.34570312 39.98144531 4.78125 37.328125 C4.57201904 36.3592334 4.36278809 35.3903418 4.1472168 34.39208984 C3.93363525 33.3552002 3.72005371 32.31831055 3.5 31.25 C3.16899292 29.68113037 3.16899292 29.68113037 2.83129883 28.08056641 C-1.33431242 8.05770655 -1.33431242 8.05770655 -1 1 C-0.67 0.67 -0.34 0.34 0 0 Z " fill="#395B76" transform="translate(71,115)"/>
<path d="M0 0 C0.66 0.66 1.32 1.32 2 2 C1.84365319 4.58734911 1.56842049 7.01741445 1.171875 9.5703125 C1.06280823 10.32537079 0.95374146 11.08042908 0.84136963 11.85836792 C0.6076574 13.46136442 0.3685464 15.06358152 0.12451172 16.66503906 C-0.24510247 19.09283083 -0.59866905 21.52251526 -0.94921875 23.953125 C-1.17873551 25.51316119 -1.40917612 27.07306179 -1.640625 28.6328125 C-1.74594543 29.35083038 -1.85126587 30.06884827 -1.95977783 30.80862427 C-2.69905623 35.62792739 -3.75900691 40.28435871 -5 45 C-5.99 44.67 -6.98 44.34 -8 44 C-7.80809082 43.2889209 -7.61618164 42.5778418 -7.41845703 41.84521484 C-5.4101983 34.15292238 -4.01402021 26.48879552 -2.875 18.625 C-2.53927072 16.36715653 -2.20334005 14.10934299 -1.8671875 11.8515625 C-1.72394043 10.87010254 -1.58069336 9.88864258 -1.43310547 8.87744141 C-0.98683813 5.91255595 -0.50028133 2.95620786 0 0 Z " fill="#36556F" transform="translate(274,263)"/>
<path d="M0 0 C0.33 0 0.66 0 1 0 C1.33 2.64 1.66 5.28 2 8 C2.99 7.67 3.98 7.34 5 7 C5.66 8.98 6.32 10.96 7 13 C6.46375 13.33 5.9275 13.66 5.375 14 C3.76313533 15.85575496 3.76313533 15.85575496 4.28125 17.83984375 C4.67317526 19.22447444 5.09726092 20.60045067 5.5546875 21.96484375 C6.06843809 24.31277406 5.73846725 25.73907629 5 28 C1.34971172 19.01571112 -1.21998765 10.85230419 -1 1 C-0.67 0.67 -0.34 0.34 0 0 Z " fill="#315877" transform="translate(265,131)"/>
<path d="M0 0 C0.66 0 1.32 0 2 0 C1.67 2.97 1.34 5.94 1 9 C1.99 8.67 2.98 8.34 4 8 C2.60240043 13.08218027 0.44978893 17.96671562 -3 22 C-3.99 22 -4.98 22 -6 22 C-5.36244908 18.32744107 -4.34054563 15.03707598 -3 11.5625 C-1.5623381 7.70789926 -0.44483574 4.11473055 0 0 Z " fill="#335673" transform="translate(301,184)"/>
<path d="M0 0 C0 0.66 0 1.32 0 2 C0.66 2 1.32 2 2 2 C1.34 3.32 0.68 4.64 0 6 C-0.53625 5.67 -1.0725 5.34 -1.625 5 C-5.59671095 3.32770065 -8.97077453 3.65692484 -13 5 C-11.68 7.31 -10.36 9.62 -9 12 C-12.875 10.125 -12.875 10.125 -14 9 C-14.04080783 7.00041636 -14.04254356 4.99954746 -14 3 C-13.34 3 -12.68 3 -12 3 C-12 2.34 -12 1.68 -12 1 C-11.34 1 -10.68 1 -10 1 C-10 0.34 -10 -0.32 -10 -1 C-6.06329512 -2.31223496 -3.87511856 -1.24296256 0 0 Z " fill="#3A5B77" transform="translate(186,123)"/>
<path d="M0 0 C-1.61116464 4.83349393 -5.70554552 6.55752901 -10 9 C-15.63423891 11.77310196 -21.64870791 12.48277693 -27.8125 13.25 C-28.55435547 13.34249023 -29.29621094 13.43498047 -30.06054688 13.53027344 C-33.57716235 13.9158532 -36.63479648 14.23655772 -40 13 C-36.85481861 11.4274093 -33.39746876 11.46941631 -29.9375 11.125 C-21.24012473 10.17842732 -13.66949805 8.40996138 -6 4 C-5.67 3.34 -5.34 2.68 -5 2 C-6.65 2.33 -8.3 2.66 -10 3 C-10 2.34 -10 1.68 -10 1 C-2.25 0 -2.25 0 0 0 Z " fill="#335972" transform="translate(335,223)"/>
<path d="M0 0 C0.53625 0.37125 1.0725 0.7425 1.625 1.125 C0.635 1.125 -0.355 1.125 -1.375 1.125 C-0.055 1.785 1.265 2.445 2.625 3.125 C2.295 3.455 1.965 3.785 1.625 4.125 C5.915 4.785 10.205 5.445 14.625 6.125 C14.625 6.455 14.625 6.785 14.625 7.125 C-2.32645631 7.64927184 -2.32645631 7.64927184 -9.375 4.125 C-9.045 3.135 -8.715 2.145 -8.375 1.125 C-3.33298319 -1.22794118 -3.33298319 -1.22794118 0 0 Z " fill="#325B78" transform="translate(163.375,241.875)"/>
<path d="M0 0 C2.40072955 2.88087546 4.47291037 5.56404834 6 9 C4.906875 9.309375 3.81375 9.61875 2.6875 9.9375 C0.44592006 10.58337897 -1.7869351 11.2623117 -4 12 C-3.67 8.37 -3.34 4.74 -3 1 C-2.01 0.67 -1.02 0.34 0 0 Z " fill="#365F83" transform="translate(286,205)"/>
<path d="M0 0 C2.70739829 2.59910236 5.24609498 5.33159684 7.75 8.125 C8.67039063 9.14980469 8.67039063 9.14980469 9.609375 10.1953125 C11 12 11 12 11 14 C11.7734375 14.1546875 11.7734375 14.1546875 12.5625 14.3125 C15.18302865 15.05162346 17.56547927 16.13458844 20.05078125 17.234375 C23.28951921 18.50650454 26.61093788 19.22705601 30 20 C30 20.33 30 20.66 30 21 C21.6021669 21.52486457 15.46577786 18.94347026 8.89453125 13.74609375 C4.70945141 9.88891708 1.09837655 5.68125803 0 0 Z " fill="#405C75" transform="translate(151,191)"/>
<path d="M0 0 C1.32 0.33 2.64 0.66 4 1 C3.33613281 1.72445312 2.67226562 2.44890625 1.98828125 3.1953125 C1.10527344 4.16210938 0.22226563 5.12890625 -0.6875 6.125 C-1.14866211 6.62837891 -1.60982422 7.13175781 -2.08496094 7.65039062 C-4.4080436 10.19871201 -6.64817323 12.76693153 -8.75 15.5 C-11.30798348 18.34220387 -13.41116099 19.70190929 -17 21 C-19.375 20.6875 -19.375 20.6875 -21 20 C-20.0925 19.566875 -19.185 19.13375 -18.25 18.6875 C-15.07225128 17.15019164 -15.07225128 17.15019164 -12.75 15.3125 C-11 14 -11 14 -9 14 C-8.74476563 13.44828125 -8.48953125 12.8965625 -8.2265625 12.328125 C-6.80697926 9.63362942 -5.13867746 7.23221272 -3.375 4.75 C-2.74335938 3.85796875 -2.11171875 2.9659375 -1.4609375 2.046875 C-0.73777344 1.03367188 -0.73777344 1.03367188 0 0 Z " fill="#3C5468" transform="translate(140,224)"/>
<path d="M0 0 C2.31 0.66 4.62 1.32 7 2 C5.32597755 5.71704985 2.99438875 8.89521048 0.625 12.1875 C-2.96758152 17.2581558 -5.7318587 22.18172449 -8 28 C-8.78744155 25.70879911 -9.14674563 24.43663576 -8.36328125 22.10546875 C-8.01652344 21.47253906 -7.66976562 20.83960937 -7.3125 20.1875 C-6.94253906 19.50042969 -6.57257813 18.81335938 -6.19140625 18.10546875 C-5.60166016 17.06326172 -5.60166016 17.06326172 -5 16 C-4.61714844 15.31550781 -4.23429688 14.63101563 -3.83984375 13.92578125 C-2.90638636 12.27633861 -1.9549657 10.63708406 -1 9 C-0.34 9 0.32 9 1 9 C1.12375 8.360625 1.2475 7.72125 1.375 7.0625 C1.58125 6.381875 1.7875 5.70125 2 5 C2.66 4.67 3.32 4.34 4 4 C2.68 3.34 1.36 2.68 0 2 C0 1.34 0 0.68 0 0 Z " fill="#32566B" transform="translate(159,55)"/>
<path d="M0 0 C-0.639375 0.103125 -1.27875 0.20625 -1.9375 0.3125 C-2.9584375 0.6528125 -2.9584375 0.6528125 -4 1 C-4.33 1.99 -4.66 2.98 -5 4 C-5.66 4 -6.32 4 -7 4 C-7 14.23 -7 24.46 -7 35 C-7.66 35 -8.32 35 -9 35 C-9.14854953 30.51608964 -9.25730304 26.03348882 -9.32958984 21.54785156 C-9.35972677 20.02285817 -9.40064608 18.49803763 -9.45263672 16.97363281 C-9.52560493 14.77886359 -9.5594814 12.58638749 -9.5859375 10.390625 C-9.61690521 9.7113092 -9.64787292 9.03199341 -9.67977905 8.33209229 C-9.68115234 6.39160156 -9.68115234 6.39160156 -9 3 C-4.0794097 -1.35980323 -4.0794097 -1.35980323 0 0 Z " fill="#3C5C77" transform="translate(158,127)"/>
<path d="M0 0 C2.74786978 1.37393489 3.05284153 2.97628949 4.3125 5.75 C5.85452239 8.98594549 7.15888897 11.45954588 9.875 13.8125 C12 16 12 16 12.125 18.5625 C10.6857672 21.68083774 8.79329389 23.06618115 6 25 C6.33 24.278125 6.66 23.55625 7 22.8125 C8.05473601 19.84605496 8.46610083 18.10733884 8 15 C6.19337585 12.35028458 4.88758942 10.44379471 2 9 C2 8.01 2 7.02 2 6 C1.34 6 0.68 6 0 6 C0 4.02 0 2.04 0 0 Z " fill="#3C596E" transform="translate(143,193)"/>
<path d="M0 0 C0.66 0.66 1.32 1.32 2 2 C1.76289307 2.55985596 1.52578613 3.11971191 1.28149414 3.6965332 C0.20732276 6.2346941 -0.86510721 8.77358716 -1.9375 11.3125 C-2.31068359 12.19357422 -2.68386719 13.07464844 -3.06835938 13.98242188 C-3.60493164 15.25375977 -3.60493164 15.25375977 -4.15234375 16.55078125 C-4.48226318 17.33106689 -4.81218262 18.11135254 -5.15209961 18.9152832 C-5.83152111 20.58576412 -6.42972637 22.28917912 -7 24 C-7.99 23.67 -8.98 23.34 -10 23 C-9.01 20.03 -8.02 17.06 -7 14 C-6.34 14 -5.68 14 -5 14 C-5.20625 13.401875 -5.4125 12.80375 -5.625 12.1875 C-6 10 -6 10 -4 7 C-3.34 7 -2.68 7 -2 7 C-2.04125 6.21625 -2.0825 5.4325 -2.125 4.625 C-2 2 -2 2 0 0 Z " fill="#365870" transform="translate(190,184)"/>
<path d="M0 0 C0.66 0 1.32 0 2 0 C1.9278125 0.55042969 1.855625 1.10085937 1.78125 1.66796875 C0.65576609 11.75042881 0.90831613 21.87104768 1 32 C0.34 32 -0.32 32 -1 32 C-1.02907584 27.6041806 -1.0468244 23.20838601 -1.0625 18.8125 C-1.07087891 17.56662109 -1.07925781 16.32074219 -1.08789062 15.03710938 C-1.09111328 13.83505859 -1.09433594 12.63300781 -1.09765625 11.39453125 C-1.10289307 10.28956299 -1.10812988 9.18459473 -1.11352539 8.04614258 C-1.00901923 5.24200621 -0.64097959 2.72582671 0 0 Z " fill="#365B77" transform="translate(301,130)"/>
<path d="M0 0 C0.99 0.33 1.98 0.66 3 1 C2.67 1.66 2.34 2.32 2 3 C1.34 2.67 0.68 2.34 0 2 C0 2.66 0 3.32 0 4 C0.66 4.33 1.32 4.66 2 5 C0.68 6.32 -0.64 7.64 -2 9 C-1.01 9.33 -0.02 9.66 1 10 C-1 11 -1 11 -4.125 10.0625 C-5.07375 9.711875 -6.0225 9.36125 -7 9 C-6.67 7.02 -6.34 5.04 -6 3 C-4.02 3.495 -4.02 3.495 -2 4 C-1.34 2.68 -0.68 1.36 0 0 Z " fill="#346791" transform="translate(295,223)"/>
<path d="M0 0 C6.93 0.495 6.93 0.495 14 1 C13.67 1.66 13.34 2.32 13 3 C10.69 2.67 8.38 2.34 6 2 C6 2.99 6 3.98 6 5 C-0.625 5.25 -0.625 5.25 -4 3 C-2.68 2.67 -1.36 2.34 0 2 C0 1.34 0 0.68 0 0 Z " fill="#3B6282" transform="translate(278,119)"/>
<path d="M0 0 C6.47143795 2.19566645 6.47143795 2.19566645 8.4375 5.1875 C8.623125 5.785625 8.80875 6.38375 9 7 C6.525 6.01 6.525 6.01 4 5 C3.67 5.99 3.34 6.98 3 8 C1.35 7.67 -0.3 7.34 -2 7 C-2 5.02 -2 3.04 -2 1 C-1.34 0.67 -0.68 0.34 0 0 Z " fill="#365978" transform="translate(191,221)"/>
<path d="M0 0 C9.90548554 2.93880025 19.80675435 6.27392134 27 14 C22.26327714 12.21255741 17.82175962 9.91653967 13.34765625 7.56640625 C10.30728064 6.00946665 7.42100595 4.78500734 4.1171875 3.96875 C3.08851563 3.6490625 2.05984375 3.329375 1 3 C0.67 2.01 0.34 1.02 0 0 Z " fill="#365774" transform="translate(293,48)"/>
<path d="M0 0 C0.66 0.66 1.32 1.32 2 2 C-4.42745216 9.04284652 -10.23072798 14.0230728 -20 15 C-18.68357706 12.36715412 -17.50771632 12.21753325 -14.8125 11.125 C-8.58175235 8.4447895 -4.02387888 5.5715246 0 0 Z " fill="#345068" transform="translate(198,233)"/>
<path d="M0 0 C0.66 0 1.32 0 2 0 C2.26554687 0.62648437 2.53109375 1.25296875 2.8046875 1.8984375 C3.15789062 2.71570313 3.51109375 3.53296875 3.875 4.375 C4.22304688 5.18710938 4.57109375 5.99921875 4.9296875 6.8359375 C5.92446067 9.13802299 5.92446067 9.13802299 8 11 C9 14 9 14 10 17 C10.556875 17.886875 11.11375 18.77375 11.6875 19.6875 C12.120625 20.450625 12.55375 21.21375 13 22 C12.67 22.99 12.34 23.98 12 25 C9.99338316 21.21179916 7.9958376 17.41888948 6 13.625 C5.42765625 12.54476562 4.8553125 11.46453125 4.265625 10.3515625 C3.72421875 9.3203125 3.1828125 8.2890625 2.625 7.2265625 C2.12226563 6.27346191 1.61953125 5.32036133 1.1015625 4.33837891 C0 2 0 2 0 0 Z " fill="#3C5F79" transform="translate(271,160)"/>
<path d="M0 0 C1.125 3.75 1.125 3.75 0 6 C-1.3921875 6.1546875 -1.3921875 6.1546875 -2.8125 6.3125 C-6.84406345 7.1820529 -7.77743886 8.62499975 -10 12 C-10.33 12.66 -10.66 13.32 -11 14 C-11.99 13.67 -12.98 13.34 -14 13 C-9.71434147 7.90942084 -5.80420355 3.33741704 0 0 Z " fill="#3D5C75" transform="translate(93,56)"/>
<path d="M0 0 C0 3 0 3 -1.8125 5 C-2.534375 5.66 -3.25625 6.32 -4 7 C-4.53625 7.5775 -5.0725 8.155 -5.625 8.75 C-7 10 -7 10 -9 10 C-9.66 11.32 -10.32 12.64 -11 14 C-11.99 13.67 -12.98 13.34 -14 13 C-12.23223041 11.20521865 -10.46097441 9.4141293 -8.6875 7.625 C-8.18798828 7.11710937 -7.68847656 6.60921875 -7.17382812 6.0859375 C-4.87457613 3.77145867 -2.72478775 1.81652517 0 0 Z " fill="#35546F" transform="translate(179,57)"/>
<path d="M0 0 C3.93345152 1.31115051 4.32374076 2.84212778 6.25 6.4375 C6.79140625 7.42621094 7.3328125 8.41492188 7.890625 9.43359375 C8.25671875 10.28050781 8.6228125 11.12742188 9 12 C8.67 12.66 8.34 13.32 8 14 C7.34 12.68 6.68 11.36 6 10 C5.01 10 4.02 10 3 10 C0 3.375 0 3.375 0 0 Z " fill="#3A597B" transform="translate(277,192)"/>
<path d="M0 0 C6.35294118 1.05882353 6.35294118 1.05882353 9 3 C12.14632405 8.85867238 12.14632405 8.85867238 11.6875 12.4375 C11.460625 12.953125 11.23375 13.46875 11 14 C10.608125 13.113125 10.21625 12.22625 9.8125 11.3125 C7.91635907 7.84713899 5.88532438 5.66892505 3 3 C2 2 1 1 0 0 Z " fill="#3A5A72" transform="translate(188,114)"/>
<path d="M0 0 C0 0.66 0 1.32 0 2 C-0.99 2.33 -1.98 2.66 -3 3 C-2.34 3.33 -1.68 3.66 -1 4 C-1 4.66 -1 5.32 -1 6 C-2.65 6.66 -4.3 7.32 -6 8 C-7.5 6.625 -7.5 6.625 -9 5 C-9 4.34 -9 3.68 -9 3 C-2.25 0 -2.25 0 0 0 Z " fill="#37556E" transform="translate(278,119)"/>
<path d="M0 0 C3.6875 0.875 3.6875 0.875 7 2 C7 2.66 7 3.32 7 4 C7.66 4 8.32 4 9 4 C8.34 5.32 7.68 6.64 7 8 C6.649375 7.566875 6.29875 7.13375 5.9375 6.6875 C3.21514365 4.31641544 0.35241784 3.3283165 -3 2 C-2.01 1.34 -1.02 0.68 0 0 Z " fill="#38678C" transform="translate(179,121)"/>
<path d="M0 0 C0.66 0 1.32 0 2 0 C2.33 1.98 2.66 3.96 3 6 C3.66 6 4.32 6 5 6 C4.25 10.75 4.25 10.75 2 13 C1 10 1 10 2 7 C1.34 7 0.68 7 0 7 C0 4.69 0 2.38 0 0 Z " fill="#3B6387" transform="translate(322,137)"/>
<path d="M0 0 C5.91492272 0.45224761 11.35199888 1.1582605 17 3 C17 3.33 17 3.66 17 4 C13.7 4 10.4 4 7 4 C7 3.34 7 2.68 7 2 C4.69 1.67 2.38 1.34 0 1 C0 0.67 0 0.34 0 0 Z " fill="#42627B" transform="translate(142,52)"/>
<path d="M0 0 C0.66 0.33 1.32 0.66 2 1 C-0.64 6.28 -3.28 11.56 -6 17 C-7.21225993 12.15096028 -5.92898459 10.3055574 -3.5625 6.25 C-3.22412109 5.64800781 -2.88574219 5.04601562 -2.53710938 4.42578125 C-1.70231735 2.94431935 -0.85258506 1.47129392 0 0 Z " fill="#375773" transform="translate(164,72)"/>
<path d="M0 0 C0.33 0.99 0.66 1.98 1 3 C-0.43025194 4.65213589 -1.86945545 6.29652589 -3.3125 7.9375 C-4.11300781 8.85402344 -4.91351563 9.77054688 -5.73828125 10.71484375 C-8 13 -8 13 -11 14 C-11 12 -11 12 -8.875 9.8125 C-8.20017578 9.16667969 -8.20017578 9.16667969 -7.51171875 8.5078125 C-4.82896747 5.83199339 -2.4332419 2.90149463 0 0 Z " fill="#36546F" transform="translate(187,224)"/>
<path d="M0 0 C0.53625 0.37125 1.0725 0.7425 1.625 1.125 C-0.355 1.785 -2.335 2.445 -4.375 3.125 C-4.375 4.115 -4.375 5.105 -4.375 6.125 C-6.85 5.135 -6.85 5.135 -9.375 4.125 C-9.045 3.135 -8.715 2.145 -8.375 1.125 C-3.33298319 -1.22794118 -3.33298319 -1.22794118 0 0 Z " fill="#2D4D64" transform="translate(163.375,241.875)"/>
<path d="M0 0 C0.66 0.66 1.32 1.32 2 2 C1.071875 2.70125 0.14375 3.4025 -0.8125 4.125 C-3.90095295 6.67315622 -5.44426187 9.28351447 -7 13 C-7.66 12.34 -8.32 11.68 -9 11 C-8.06981474 9.53699018 -7.13055973 8.07974421 -6.1875 6.625 C-5.66542969 5.81289062 -5.14335937 5.00078125 -4.60546875 4.1640625 C-3 2 -3 2 0 0 Z " fill="#37596E" transform="translate(286,214)"/>
<path d="M0 0 C-1.13474948 3.40424844 -1.96811304 4.21653709 -5 6 C-5.99 5.67 -6.98 5.34 -8 5 C-7.01 4.01 -6.02 3.02 -5 2 C-6.65 2.33 -8.3 2.66 -10 3 C-10 2.34 -10 1.68 -10 1 C-2.25 0 -2.25 0 0 0 Z " fill="#324A5C" transform="translate(335,223)"/>
<path d="M0 0 C2.40001498 2.40001498 2.82759331 4.12917269 3.75 7.375 C4.03359375 8.33148438 4.3171875 9.28796875 4.609375 10.2734375 C5.0461239 13.32194482 4.65770135 14.46539866 3 17 C2.49622232 14.73000175 1.99709981 12.45896997 1.5 10.1875 C1.08234375 8.29064453 1.08234375 8.29064453 0.65625 6.35546875 C0 3 0 3 0 0 Z " fill="#34556F" transform="translate(200,129)"/>
<path d="M0 0 C0.66 0 1.32 0 2 0 C0.63016497 3.16115776 0.0109362 3.9927092 -3 6 C-6.1875 6.125 -6.1875 6.125 -9 6 C-9 5.01 -9 4.02 -9 3 C-8.071875 3.020625 -7.14375 3.04125 -6.1875 3.0625 C-2.97713989 3.15769604 -2.97713989 3.15769604 0 2 C0 1.34 0 0.68 0 0 Z " fill="#334F6C" transform="translate(187,131)"/>
<path d="M0 0 C1.13199353 0.9080162 2.25532363 1.82683826 3.375 2.75 C4.00148438 3.26046875 4.62796875 3.7709375 5.2734375 4.296875 C7.08312318 6.08199481 8.00117455 7.67949644 9 10 C7 9 5 8 3 7 C3 6.01 3 5.02 3 4 C2.01 4 1.02 4 0 4 C0 2.68 0 1.36 0 0 Z " fill="#3F5D78" transform="translate(266,70)"/>
<path d="M0 0 C3.26915556 4.90373335 4.22450809 7.05053549 4 13 C2 12 2 12 0.875 8.75 C0.14536518 5.62299365 -0.19234975 3.17377095 0 0 Z " fill="#3F6079" transform="translate(79,160)"/>
<path d="M0 0 C3.63 0.33 7.26 0.66 11 1 C11 3.31 11 5.62 11 8 C10.34 7.67 9.68 7.34 9 7 C8.375 4.9375 8.375 4.9375 8 3 C5.36 2.67 2.72 2.34 0 2 C0 1.34 0 0.68 0 0 Z " fill="#3A5264" transform="translate(284,118)"/>
<path d="M0 0 C0.99 0.33 1.98 0.66 3 1 C0.525 5.455 0.525 5.455 -2 10 C-2.66 9.01 -3.32 8.02 -4 7 C-2.68 4.69 -1.36 2.38 0 0 Z " fill="#3B5A75" transform="translate(78,71)"/>
<path d="M0 0 C2.31 0.66 4.62 1.32 7 2 C5.55746343 5.36591866 3.66735273 7.51047079 1 10 C1.375 7.5625 1.375 7.5625 2 5 C2.66 4.67 3.32 4.34 4 4 C2.68 3.34 1.36 2.68 0 2 C0 1.34 0 0.68 0 0 Z " fill="#334E63" transform="translate(159,55)"/>
<path d="M0 0 C-1.8125 3 -1.8125 3 -4 6 C-4.99 6 -5.98 6 -7 6 C-6.75 3.625 -6.75 3.625 -6 1 C-2.69333333 -1.34666667 -2.69333333 -1.34666667 0 0 Z " fill="#2D4A60" transform="translate(302,200)"/>
<path d="M0 0 C0 1.32 0 2.64 0 4 C1.32 4.66 2.64 5.32 4 6 C0.65626525 5.44271087 -2.03312999 4.64826111 -5 3 C-5 2.34 -5 1.68 -5 1 C-2 0 -2 0 0 0 Z " fill="#344F63" transform="translate(253,47)"/>
<path d="M0 0 C0.33 0.99 0.66 1.98 1 3 C-1.375 3.625 -1.375 3.625 -4 4 C-6 2 -6 2 -7 0 C-3.89953913 -1.03348696 -2.94389782 -1.17755913 0 0 Z " fill="#366894" transform="translate(169,243)"/>
<path d="M0 0 C0 0.66 0 1.32 0 2 C-2.8125 3.5625 -2.8125 3.5625 -6 5 C-6.99 4.67 -7.98 4.34 -9 4 C-8 2 -8 2 -5.0625 0.875 C-2 0 -2 0 0 0 Z " fill="#395872" transform="translate(158,115)"/>
<path d="M0 0 C0.99 0.33 1.98 0.66 3 1 C2.67 2.32 2.34 3.64 2 5 C2.99 5 3.98 5 5 5 C5 5.66 5 6.32 5 7 C3.35 6.67 1.7 6.34 0 6 C0 4.02 0 2.04 0 0 Z " fill="#305C80" transform="translate(189,222)"/>
<path d="M0 0 C1.98 0 3.96 0 6 0 C4.515 2.475 4.515 2.475 3 5 C1.68 4.34 0.36 3.68 -1 3 C-0.67 2.01 -0.34 1.02 0 0 Z " fill="#3F6786" transform="translate(290,222)"/>
<path d="M0 0 C0.33 0.66 0.66 1.32 1 2 C-0.3125 3.5 -0.3125 3.5 -2 5 C-2.99 5 -3.98 5 -5 5 C-5 3.68 -5 2.36 -5 1 C-3.35 0.67 -1.7 0.34 0 0 Z " fill="#355B7B" transform="translate(258,46)"/>
<path d="M0 0 C1.32 0.33 2.64 0.66 4 1 C2.35 2.65 0.7 4.3 -1 6 C-1.66 5.67 -2.32 5.34 -3 5 C-2.01 3.35 -1.02 1.7 0 0 Z " fill="#3B5C73" transform="translate(140,224)"/>
<path d="M0 0 C2.66666667 1.33333333 5.33333333 2.66666667 8 4 C7.67 4.66 7.34 5.32 7 6 C3.535 4.02 3.535 4.02 0 2 C0 1.34 0 0.68 0 0 Z " fill="#3B5569" transform="translate(163,205)"/>
<path d="M0 0 C4 1 4 1 4 1 Z " fill="#000000" transform="translate(178,267)"/>
<path d="M0 0 C1 4 1 4 1 4 Z " fill="#000000" transform="translate(294,259)"/>
<path d="" fill="#000000" transform="translate(0,0)"/>
<path d="M0 0 C2 1 2 1 2 1 Z " fill="#000000" transform="translate(325,251)"/>
<path d="M0 0 C2 1 2 1 2 1 Z " fill="#000000" transform="translate(324,237)"/>
<path d="" fill="#000000" transform="translate(0,0)"/>
<path d="" fill="#000000" transform="translate(0,0)"/>
<path d="" fill="#000000" transform="translate(0,0)"/>
<path d="" fill="#000000" transform="translate(0,0)"/>
<path d="" fill="#000000" transform="translate(0,0)"/>
<path d="M0 0 C2 1 2 1 2 1 Z " fill="#000000" transform="translate(148,34)"/>
<path d="" fill="#000000" transform="translate(0,0)"/>
<path d="" fill="#000000" transform="translate(0,0)"/>
<path d="" fill="#000000" transform="translate(0,0)"/>
<path d="" fill="#000000" transform="translate(0,0)"/>
<path d="" fill="#000000" transform="translate(0,0)"/>
<path d="" fill="#000000" transform="translate(0,0)"/>
<path d="" fill="#000000" transform="translate(0,0)"/>
<path d="" fill="#000000" transform="translate(0,0)"/>
<path d="" fill="#000000" transform="translate(0,0)"/>
<path d="" fill="#000000" transform="translate(0,0)"/>
<path d="" fill="#000000" transform="translate(0,0)"/>
<path d="" fill="#000000" transform="translate(0,0)"/>
<path d="" fill="#000000" transform="translate(0,0)"/>
<path d="" fill="#000000" transform="translate(0,0)"/>
<path d="" fill="#000000" transform="translate(0,0)"/>
<path d="" fill="#000000" transform="translate(0,0)"/>
<path d="" fill="#000000" transform="translate(0,0)"/>
<path d="" fill="#000000" transform="translate(0,0)"/>
<path d="" fill="#000000" transform="translate(0,0)"/>
<path d="" fill="#000000" transform="translate(0,0)"/>
<path d="" fill="#000000" transform="translate(0,0)"/>
<path d="" fill="#000000" transform="translate(0,0)"/>
<path d="" fill="#000000" transform="translate(0,0)"/>
<path d="" fill="#000000" transform="translate(0,0)"/>
<path d="" fill="#000000" transform="translate(0,0)"/>
<path d="" fill="#000000" transform="translate(0,0)"/>
<path d="" fill="#000000" transform="translate(0,0)"/>
<path d="" fill="#000000" transform="translate(0,0)"/>
<path d="" fill="#000000" transform="translate(0,0)"/>
<path d="" fill="#000000" transform="translate(0,0)"/>
<path d="" fill="#000000" transform="translate(0,0)"/>
<path d="" fill="#000000" transform="translate(0,0)"/>
<path d="" fill="#000000" transform="translate(0,0)"/>
<path d="" fill="#000000" transform="translate(0,0)"/>
<path d="" fill="#000000" transform="translate(0,0)"/>
<path d="" fill="#000000" transform="translate(0,0)"/>
<path d="" fill="#000000" transform="translate(0,0)"/>
<path d="" fill="#000000" transform="translate(0,0)"/>
<path d="" fill="#000000" transform="translate(0,0)"/>
<path d="" fill="#000000" transform="translate(0,0)"/>
<path d="" fill="#000000" transform="translate(0,0)"/>
<path d="" fill="#000000" transform="translate(0,0)"/>
<path d="" fill="#49496D" transform="translate(0,0)"/>
<path d="" fill="#000000" transform="translate(0,0)"/>
<path d="" fill="#000000" transform="translate(0,0)"/>
<path d="" fill="#000000" transform="translate(0,0)"/>
<path d="" fill="#000000" transform="translate(0,0)"/>
<path d="" fill="#000000" transform="translate(0,0)"/>
<path d="" fill="#000000" transform="translate(0,0)"/>
<path d="" fill="#000000" transform="translate(0,0)"/>
<path d="" fill="#000000" transform="translate(0,0)"/>
<path d="" fill="#000000" transform="translate(0,0)"/>
<path d="" fill="#000000" transform="translate(0,0)"/>
<path d="" fill="#000000" transform="translate(0,0)"/>
<path d="" fill="#000000" transform="translate(0,0)"/>
<path d="" fill="#000000" transform="translate(0,0)"/>
<path d="" fill="#000000" transform="translate(0,0)"/>
<path d="" fill="#000000" transform="translate(0,0)"/>
<path d="" fill="#000000" transform="translate(0,0)"/>
<path d="" fill="#000000" transform="translate(0,0)"/>
<path d="" fill="#000000" transform="translate(0,0)"/>
<path d="" fill="#000000" transform="translate(0,0)"/>
<path d="" fill="#000000" transform="translate(0,0)"/>
<path d="" fill="#000000" transform="translate(0,0)"/>
<path d="" fill="#000000" transform="translate(0,0)"/>
<path d="" fill="#000000" transform="translate(0,0)"/>
<path d="" fill="#000000" transform="translate(0,0)"/>
<path d="" fill="#000000" transform="translate(0,0)"/>
<path d="" fill="#000000" transform="translate(0,0)"/>
<path d="" fill="#330000" transform="translate(0,0)"/>
<path d="" fill="#000000" transform="translate(0,0)"/>
<path d="" fill="#000000" transform="translate(0,0)"/>
<path d="" fill="#000000" transform="translate(0,0)"/>
<path d="" fill="#000000" transform="translate(0,0)"/>
<path d="" fill="#000000" transform="translate(0,0)"/>
<path d="" fill="#000000" transform="translate(0,0)"/>
<path d="" fill="#000000" transform="translate(0,0)"/>
<path d="" fill="#000000" transform="translate(0,0)"/>
</svg>
