<?xml version="1.0" encoding="UTF-8"?>
<svg version="1.1" xmlns="http://www.w3.org/2000/svg" width="581" height="429">
<path d="M0 0 C1.39156638 -0.00572181 2.78312808 -0.01269295 4.17468262 -0.02079773 C7.91054948 -0.0385488 11.64617916 -0.03759481 15.38207531 -0.03185534 C18.52255273 -0.02873577 21.66298637 -0.03488663 24.8034575 -0.04089409 C32.22512947 -0.05487972 39.6466862 -0.05342923 47.06835938 -0.04199219 C54.67444517 -0.03052851 62.28017763 -0.04457074 69.88621688 -0.07138866 C76.46169792 -0.09368795 83.03706922 -0.10015097 89.61258531 -0.09431225 C93.51984266 -0.09097379 97.42687398 -0.09314605 101.33409882 -0.11056328 C117.11694894 -0.17432251 132.21147273 -0.09507482 147.47753906 4.40405273 C149.45424375 4.87289035 151.43296251 5.33347146 153.41503906 5.77905273 C184.15045671 13.63271608 217.40958016 25.31104274 243.29003906 44.09155273 C246.40921476 46.4516559 246.40921476 46.4516559 249.75097656 48.22436523 C253.53795754 50.36422621 256.89890559 52.87740028 260.29003906 55.59155273 C260.89895996 56.07567627 261.50788086 56.5597998 262.13525391 57.05859375 C269.85260959 63.24446998 277.05721311 69.90705447 284.10253906 76.84155273 C284.63637207 77.36225342 285.17020508 77.8829541 285.72021484 78.41943359 C287.01247596 79.70893074 288.25036103 81.05247006 289.47753906 82.40405273 C289.47753906 83.06405273 289.47753906 83.72405273 289.47753906 84.40405273 C290.46753906 84.73405273 291.45753906 85.06405273 292.47753906 85.40405273 C293.80859375 86.81176758 293.80859375 86.81176758 295.14941406 88.61499023 C295.64554199 89.27716553 296.14166992 89.93934082 296.65283203 90.62158203 C297.17248535 91.33354736 297.69213867 92.0455127 298.22753906 92.77905273 C298.7639502 93.50713135 299.30036133 94.23520996 299.85302734 94.98535156 C321.39307262 124.45247179 332.00272232 158.98270991 326.65258789 195.51416016 C323.6309452 212.82807106 316.83624206 229.59414645 307.47753906 244.40405273 C305.90482851 247.12259526 304.33443609 249.84227029 302.77441406 252.56811523 C302.34644531 253.17397461 301.91847656 253.77983398 301.47753906 254.40405273 C300.81753906 254.40405273 300.15753906 254.40405273 299.47753906 254.40405273 C299.20941406 254.96092773 298.94128906 255.51780273 298.66503906 256.09155273 C297.3685441 258.61630608 296.05277583 261.04119758 294.47753906 263.40405273 C293.81753906 263.40405273 293.15753906 263.40405273 292.47753906 263.40405273 C292.13722656 264.20842773 292.13722656 264.20842773 291.79003906 265.02905273 C290.02183817 268.22865435 287.94083703 270.69442497 285.47753906 273.40405273 C284.81753906 273.40405273 284.15753906 273.40405273 283.47753906 273.40405273 C283.14753906 274.39405273 282.81753906 275.38405273 282.47753906 276.40405273 C281.81753906 276.40405273 281.15753906 276.40405273 280.47753906 276.40405273 C280.14753906 277.39405273 279.81753906 278.38405273 279.47753906 279.40405273 C278.81753906 279.40405273 278.15753906 279.40405273 277.47753906 279.40405273 C277.14753906 280.39405273 276.81753906 281.38405273 276.47753906 282.40405273 C274.78372603 283.94724146 273.02311405 285.41805545 271.22753906 286.84155273 C270.27363281 287.60338867 269.31972656 288.36522461 268.33691406 289.15014648 C267.39332031 289.89393555 266.44972656 290.63772461 265.47753906 291.40405273 C264.57519531 292.1581543 263.67285156 292.91225586 262.74316406 293.68920898 C260.47753906 295.40405273 260.47753906 295.40405273 258.47753906 295.40405273 C258.47753906 296.06405273 258.47753906 296.72405273 258.47753906 297.40405273 C256.61425781 298.87670898 256.61425781 298.87670898 254.16503906 300.46655273 C253.36453125 300.9937793 252.56402344 301.52100586 251.73925781 302.06420898 C249.47753906 303.40405273 249.47753906 303.40405273 246.47753906 304.40405273 C246.47753906 305.39405273 246.47753906 306.38405273 246.47753906 307.40405273 C247.13753906 307.40405273 247.79753906 307.40405273 248.47753906 307.40405273 C248.88617188 308.24838867 249.29480469 309.09272461 249.71582031 309.96264648 C251.55637804 313.55805969 253.57099318 317.01599225 255.66503906 320.46655273 C256.25333496 321.44229248 256.25333496 321.44229248 256.85351562 322.43774414 C259.45009978 326.73579072 262.08377709 331.00990389 264.72753906 335.27905273 C267.36576021 339.549217 269.88136063 343.85474075 272.28613281 348.25952148 C274.00668016 351.3565067 275.84626118 354.37741195 277.68066406 357.40795898 C279.08024744 359.74161214 280.46392097 362.08213764 281.83691406 364.43139648 C286.0862174 371.70195612 290.386277 378.90526644 294.95410156 385.98217773 C296.87496181 389.035853 298.62799974 392.16177479 300.34472656 395.33374023 C301.44622316 397.34682023 302.61197688 399.31012364 303.79003906 401.27905273 C305.47753906 404.40405273 305.47753906 404.40405273 305.47753906 407.40405273 C306.13753906 407.40405273 306.79753906 407.40405273 307.47753906 407.40405273 C307.47753906 408.39405273 307.47753906 409.38405273 307.47753906 410.40405273 C305.18362297 411.55101078 303.91416757 411.52743926 301.36471558 411.52430725 C300.50372253 411.52568192 299.64272949 411.52705658 298.75564575 411.5284729 C297.33576859 411.52307999 297.33576859 411.52307999 295.88720703 411.51757812 C294.39447266 411.51779716 294.39447266 411.51779716 292.87158203 411.51802063 C289.57094163 411.51732205 286.27035715 411.50953217 282.96972656 411.50170898 C280.68572012 411.49984461 278.40171328 411.4984208 276.1177063 411.49742126 C270.09742128 411.49359761 264.07716028 411.48376859 258.05688477 411.47271729 C251.91715825 411.46249992 245.77742787 411.45792294 239.63769531 411.45288086 C227.58429933 411.44214621 215.53092119 411.42507159 203.47753906 411.40405273 C202.18987821 409.15537869 200.90276588 406.90639368 199.6159668 404.65722656 C199.25296227 404.0234333 198.88995773 403.38964005 198.51595306 402.73664093 C196.12343291 398.55354014 193.79038892 394.35241925 191.54003906 390.09155273 C191.21922363 389.48601562 190.8984082 388.88047852 190.56787109 388.2565918 C189.53549481 386.30693355 188.50634492 384.35559709 187.47753906 382.40405273 C185.93677144 379.48691041 184.39475445 376.57042986 182.85253906 373.65405273 C182.47194336 372.9334668 182.09134766 372.21288086 181.69921875 371.47045898 C179.59504977 367.49246446 177.46211418 363.53304675 175.29003906 359.59155273 C172.1882963 353.94412193 169.32227393 348.18431188 166.47753906 342.40405273 C159.81683814 343.70372485 153.18397885 345.11206917 146.55444336 346.56176758 C137.11928491 348.61868493 127.68774585 350.66564232 118.16503906 352.27905273 C117.47410156 352.39885498 116.78316406 352.51865723 116.07128906 352.64208984 C111.83258942 353.32791737 107.76349825 353.44050177 103.47753906 353.40405273 C103.48198029 354.10118378 103.48642151 354.79831482 103.49099731 355.51657104 C103.53103492 362.07933 103.56150348 368.64205498 103.58116341 375.20490837 C103.59161048 378.57912268 103.60578631 381.95323625 103.62841797 385.32739258 C103.65258791 389.20453591 103.66400417 393.0815355 103.67285156 396.95874023 C103.68317413 398.1733493 103.6934967 399.38795837 103.70413208 400.63937378 C103.70428314 401.76038483 103.7044342 402.88139587 103.70458984 404.03637695 C103.70903107 405.02676971 103.71347229 406.01716248 103.7180481 407.03756714 C103.47753906 409.40405273 103.47753906 409.40405273 101.47753906 411.40405273 C98.59079662 411.59754995 95.80033802 411.66624024 92.9128418 411.64697266 C92.02658112 411.648871 91.14032043 411.65076935 90.22720337 411.65272522 C87.28842411 411.65643959 84.34989022 411.64572019 81.41113281 411.63452148 C79.37614471 411.63333004 77.34115604 411.63287645 75.3061676 411.63313293 C71.03814255 411.63156697 66.77020125 411.62326811 62.50219727 411.60986328 C57.01838394 411.59286252 51.53466266 411.58904918 46.05082607 411.58980846 C41.84824233 411.58953717 37.64567889 411.58406277 33.44310188 411.57680702 C31.42039201 411.57361446 29.39767983 411.57165158 27.37496758 411.57091331 C24.55421868 411.56875656 21.73356945 411.56002714 18.9128418 411.54931641 C17.64657204 411.54999619 17.64657204 411.54999619 16.35472107 411.5506897 C10.59201331 411.51852698 10.59201331 411.51852698 9.47753906 410.40405273 C9.38383282 408.6241335 9.36009635 406.84048534 9.36401367 405.05810547 C9.3640892 403.91699814 9.36416473 402.77589081 9.36424255 401.60020447 C9.36940384 400.35856033 9.37456512 399.1169162 9.37988281 397.83764648 C9.38200523 395.94200706 9.38200523 395.94200706 9.38417053 394.0080719 C9.38883324 390.64280384 9.39782426 387.27760284 9.40887451 383.91235352 C9.4190906 380.48055604 9.42366858 377.04875165 9.42871094 373.61694336 C9.43976526 366.87929449 9.45652196 360.14167749 9.47753906 353.40405273 C8.41929932 353.29085693 7.36105957 353.17766113 6.27075195 353.06103516 C-3.27282629 352.00920205 -12.66867262 350.62649624 -22.08496094 348.71655273 C-23.36274414 348.45890137 -24.64052734 348.20125 -25.95703125 347.93579102 C-40.71497189 344.89684523 -55.30416365 341.04569618 -69.25830078 335.3190918 C-72.20488061 334.12825923 -75.19990062 333.10971582 -78.20996094 332.09155273 C-97.14887535 325.36271597 -114.96131696 315.39742902 -131.79980469 304.51586914 C-133.36772205 303.50392247 -134.94462903 302.50593877 -136.52246094 301.50952148 C-137.34746094 300.9797168 -138.17246094 300.44991211 -139.02246094 299.90405273 C-139.71339844 299.46061523 -140.40433594 299.01717773 -141.11621094 298.56030273 C-141.58027344 298.17874023 -142.04433594 297.79717773 -142.52246094 297.40405273 C-142.52246094 296.74405273 -142.52246094 296.08405273 -142.52246094 295.40405273 C-143.58013672 295.04827148 -143.58013672 295.04827148 -144.65917969 294.68530273 C-148.02532962 293.17903101 -150.49229266 291.24820756 -153.33496094 288.90405273 C-154.79869141 287.71295898 -154.79869141 287.71295898 -156.29199219 286.49780273 C-157.02804688 285.80686523 -157.76410156 285.11592773 -158.52246094 284.40405273 C-158.52246094 283.74405273 -158.52246094 283.08405273 -158.52246094 282.40405273 C-159.51246094 282.07405273 -160.50246094 281.74405273 -161.52246094 281.40405273 C-161.52246094 280.74405273 -161.52246094 280.08405273 -161.52246094 279.40405273 C-162.45058594 279.03280273 -162.45058594 279.03280273 -163.39746094 278.65405273 C-165.9095639 277.17634511 -166.28353437 275.96450097 -167.52246094 273.40405273 C-168.51246094 273.07405273 -169.50246094 272.74405273 -170.52246094 272.40405273 C-170.52246094 271.74405273 -170.52246094 271.08405273 -170.52246094 270.40405273 C-171.51246094 270.07405273 -172.50246094 269.74405273 -173.52246094 269.40405273 C-175.56542969 267.18920898 -175.56542969 267.18920898 -177.70996094 264.46655273 C-178.42539063 263.5706543 -179.14082031 262.67475586 -179.87792969 261.75170898 C-181.52246094 259.40405273 -181.52246094 259.40405273 -181.52246094 257.40405273 C-182.18246094 257.40405273 -182.84246094 257.40405273 -183.52246094 257.40405273 C-191.0345729 248.17962113 -196.17743325 236.96033827 -201.52246094 226.40405273 C-202.03050262 225.54363876 -202.53854431 224.68322479 -203.0619812 223.79673767 C-204.80138926 219.75610405 -204.99435676 216.20853295 -205.02172852 211.88623047 C-205.03822952 211.05101868 -205.05473053 210.21580688 -205.07173157 209.35528564 C-205.12051673 206.59935044 -205.14595389 203.84392591 -205.16699219 201.08764648 C-205.17672247 200.13746202 -205.18645275 199.18727757 -205.19647789 198.20829964 C-205.24728049 193.16554816 -205.28004727 188.12304925 -205.2980957 183.08007812 C-205.31563576 178.94693036 -205.36400366 174.81604327 -205.44165039 170.68359375 C-206.24096207 127.30798429 -206.24096207 127.30798429 -195.73043823 112.15281677 C-193.94889034 109.57370631 -192.51331282 106.84706328 -191.02246094 104.09155273 C-189.67871094 101.85327148 -189.67871094 101.85327148 -188.52246094 100.40405273 C-187.86246094 100.40405273 -187.20246094 100.40405273 -186.52246094 100.40405273 C-186.42835938 99.84202148 -186.33425781 99.27999023 -186.23730469 98.70092773 C-185.34652003 95.83873442 -183.93374212 94.00634813 -182.08496094 91.65405273 C-181.4675 90.85483398 -180.85003906 90.05561523 -180.21386719 89.23217773 C-179.65570313 88.62889648 -179.09753906 88.02561523 -178.52246094 87.40405273 C-177.86246094 87.40405273 -177.20246094 87.40405273 -176.52246094 87.40405273 C-176.26335937 86.83041992 -176.00425781 86.25678711 -175.73730469 85.66577148 C-174.42055491 83.21433057 -172.91281381 81.31170452 -171.08496094 79.21655273 C-170.488125 78.52174805 -169.89128906 77.82694336 -169.27636719 77.11108398 C-167.52246094 75.40405273 -167.52246094 75.40405273 -164.52246094 74.40405273 C-164.02746094 72.91905273 -164.02746094 72.91905273 -163.52246094 71.40405273 C-162.86246094 71.40405273 -162.20246094 71.40405273 -161.52246094 71.40405273 C-161.02746094 69.91905273 -161.02746094 69.91905273 -160.52246094 68.40405273 C-159.86246094 68.40405273 -159.20246094 68.40405273 -158.52246094 68.40405273 C-158.52246094 67.74405273 -158.52246094 67.08405273 -158.52246094 66.40405273 C-154.0518727 62.40405273 -154.0518727 62.40405273 -151.52246094 62.40405273 C-151.52246094 61.74405273 -151.52246094 61.08405273 -151.52246094 60.40405273 C-149.24528599 58.56791167 -146.96462596 56.84817578 -144.58496094 55.15405273 C-143.55314697 54.41034424 -143.55314697 54.41034424 -142.50048828 53.65161133 C-135.49958793 48.62697078 -128.50539644 43.82140486 -120.91308594 39.72827148 C-119.2967681 38.83295817 -117.70272374 37.89640503 -116.13183594 36.92358398 C-89.71520484 20.66422478 -58.62463797 10.32261961 -28.52246094 3.40405273 C-27.50508724 3.15189467 -26.48771355 2.89973661 -25.43951035 2.6399374 C-16.85178485 0.61750112 -8.80355469 -0.03125696 0 0 Z M64.34741211 67.92431641 C61.07907331 68.47066143 57.84633649 68.70368588 54.54003906 68.90405273 C49.90525524 69.22234512 45.92790298 70.0284857 41.47753906 71.40405273 C39.81326864 71.6695367 38.14610416 71.91705425 36.47753906 72.15405273 C18.573727 75.05616691 1.29590242 80.73792366 -15.52246094 87.40405273 C-16.30427734 87.71036621 -17.08609375 88.01667969 -17.89160156 88.33227539 C-34.97877386 95.13114812 -58.46261831 106.07793095 -70.52246094 120.40405273 C-70.52246094 121.06405273 -70.52246094 121.72405273 -70.52246094 122.40405273 C-71.51246094 122.73405273 -72.50246094 123.06405273 -73.52246094 123.40405273 C-73.52246094 124.06405273 -73.52246094 124.72405273 -73.52246094 125.40405273 C-75.00746094 125.89905273 -75.00746094 125.89905273 -76.52246094 126.40405273 C-76.52246094 127.06405273 -76.52246094 127.72405273 -76.52246094 128.40405273 C-78.00746094 128.89905273 -78.00746094 128.89905273 -79.52246094 129.40405273 C-81.64633035 131.64897577 -81.64633035 131.64897577 -83.70996094 134.34155273 C-84.42539063 135.23745117 -85.14082031 136.13334961 -85.87792969 137.05639648 C-87.7137065 139.19934069 -87.7137065 139.19934069 -87.52246094 141.40405273 C-88.18246094 141.40405273 -88.84246094 141.40405273 -89.52246094 141.40405273 C-89.83699219 141.9725293 -90.15152344 142.54100586 -90.47558594 143.12670898 C-90.90355469 143.89885742 -91.33152344 144.67100586 -91.77246094 145.46655273 C-92.39894531 146.59770508 -92.39894531 146.59770508 -93.03808594 147.75170898 C-94.16240515 149.7606899 -95.33370283 151.7434716 -96.52636719 153.71264648 C-98.66819413 157.45907143 -99.98173066 161.28099034 -101.20996094 165.40405273 C-101.42201172 166.07694336 -101.6340625 166.74983398 -101.85253906 167.44311523 C-107.78299339 186.82466312 -104.65092294 207.65307691 -95.94433594 225.66967773 C-90.74826189 235.40685852 -84.00334384 243.34156572 -76.52246094 251.40405273 C-75.760625 252.24838867 -74.99878906 253.09272461 -74.21386719 253.96264648 C-65.36563351 263.34612303 -54.41724499 270.46039246 -43.39746094 277.02905273 C-42.6871875 277.45500732 -41.97691406 277.88096191 -41.24511719 278.31982422 C-37.69190184 280.38220076 -34.67965617 281.93495288 -30.52246094 282.40405273 C-30.52246094 283.06405273 -30.52246094 283.72405273 -30.52246094 284.40405273 C-29.55566406 284.79077148 -28.58886719 285.17749023 -27.59277344 285.57592773 C-26.96749756 285.82616699 -26.34222168 286.07640625 -25.69799805 286.33422852 C-24.31896148 286.88558044 -22.9395602 287.43602091 -21.55981445 287.9855957 C-18.62799482 289.15448439 -15.7014587 290.32876612 -12.79199219 291.55249023 C-1.97199429 296.31919447 -1.97199429 296.31919447 9.47753906 298.40405273 C9.80753906 235.37405273 10.13753906 172.34405273 10.47753906 107.40405273 C41.47691406 107.34217773 72.47628906 107.28030273 104.41503906 107.21655273 C119.06189087 107.17558472 119.06189087 107.17558472 134.00463867 107.13378906 C145.98840332 107.12023926 145.98840332 107.12023926 151.61012268 107.11772156 C155.51109505 107.11494246 159.41194319 107.10376369 163.31288147 107.08732605 C168.30769353 107.06656187 173.30232813 107.06061343 178.29717934 107.06483591 C180.11845272 107.06395455 181.93973309 107.05811725 183.76096904 107.04640734 C209.4463769 106.8890948 236.5144063 111.77912839 255.54394531 130.42358398 C256.18203125 131.07713867 256.82011719 131.73069336 257.47753906 132.40405273 C258.36441406 133.20842773 259.25128906 134.01280273 260.16503906 134.84155273 C275.83527875 152.20587239 279.49390516 173.13999349 278.62988281 195.90698242 C277.3442044 216.98057028 269.65164783 235.53292118 254.47753906 250.40405273 C247.46440996 256.41061729 247.46440996 256.41061729 243.47753906 258.40405273 C243.47753906 259.06405273 243.47753906 259.72405273 243.47753906 260.40405273 C242.95417969 260.50202148 242.43082031 260.59999023 241.89160156 260.70092773 C239.33496419 261.4455794 237.08006218 262.53498409 234.70532227 263.72753906 C226.78394386 267.68875016 218.84628907 270.18806227 210.27832031 272.36108398 C207.37528892 273.15770205 205.0521361 273.90277056 202.47753906 275.40405273 C203.89292969 275.84104492 203.89292969 275.84104492 205.33691406 276.28686523 C212.96514769 278.70581695 219.85119144 281.37577718 226.79394531 285.46264648 C230.42693449 286.7371012 232.01742585 285.97601018 235.47753906 284.40405273 C241.95531103 280.8200008 247.88581118 276.47374141 253.60253906 271.78686523 C255.47753906 270.40405273 255.47753906 270.40405273 258.47753906 269.40405273 C260.18630367 268.02890732 260.18630367 268.02890732 261.47753906 266.40405273 C261.47753906 265.74405273 261.47753906 265.08405273 261.47753906 264.40405273 C262.46753906 264.07405273 263.45753906 263.74405273 264.47753906 263.40405273 C264.47753906 262.74405273 264.47753906 262.08405273 264.47753906 261.40405273 C265.79753906 260.74405273 267.11753906 260.08405273 268.47753906 259.40405273 C268.47753906 258.74405273 268.47753906 258.08405273 268.47753906 257.40405273 C269.13753906 257.40405273 269.79753906 257.40405273 270.47753906 257.40405273 C279.54826817 246.41379174 286.45301463 233.04271885 290.47753906 219.40405273 C290.80753906 218.64608398 291.13753906 217.88811523 291.47753906 217.10717773 C298.74444636 197.46381896 296.00959724 168.1410017 287.62451172 149.50854492 C282.691699 138.91516945 277.20740441 128.24940679 269.47753906 119.40405273 C268.81753906 119.40405273 268.15753906 119.40405273 267.47753906 119.40405273 C267.14753906 118.41405273 266.81753906 117.42405273 266.47753906 116.40405273 C265.81753906 116.40405273 265.15753906 116.40405273 264.47753906 116.40405273 C264.14753906 115.41405273 263.81753906 114.42405273 263.47753906 113.40405273 C262.81753906 113.40405273 262.15753906 113.40405273 261.47753906 113.40405273 C261.47753906 112.74405273 261.47753906 112.08405273 261.47753906 111.40405273 C260.12670648 110.13535417 260.12670648 110.13535417 258.33691406 108.90795898 C257.67820312 108.43165039 257.01949219 107.9553418 256.34082031 107.46459961 C255.29474609 106.72306641 255.29474609 106.72306641 254.22753906 105.96655273 C252.86812089 104.98874817 251.50874472 104.01088521 250.14941406 103.03295898 C249.50681641 102.57679199 248.86421875 102.120625 248.20214844 101.65063477 C246.83137744 100.65981417 245.49855613 99.61653755 244.18066406 98.55639648 C242.40614649 97.12385972 242.40614649 97.12385972 239.47753906 97.40405273 C239.47753906 96.74405273 239.47753906 96.08405273 239.47753906 95.40405273 C237.18754511 94.31706894 234.89563703 93.23445466 232.60253906 92.15405273 C231.97089844 91.85370117 231.33925781 91.55334961 230.68847656 91.24389648 C209.62481477 81.34397544 186.49512081 73.67600767 163.36816406 70.79858398 C160.47753906 70.40405273 160.47753906 70.40405273 158.60009766 69.91064453 C156.26471191 69.3532572 154.01788173 69.1103229 151.62597656 68.90405273 C150.22412109 68.78030273 150.22412109 68.78030273 148.79394531 68.65405273 C147.33794922 68.53030273 147.33794922 68.53030273 145.85253906 68.40405273 C143.94364565 68.23783617 142.03479116 68.07117193 140.12597656 67.90405273 C139.28212402 67.83186523 138.43827148 67.75967773 137.56884766 67.68530273 C135.80838256 67.52513406 134.04857713 67.35537431 132.29211426 67.15605164 C125.93676417 66.45352181 119.66580255 66.24336925 113.27441406 66.23608398 C112.23416077 66.23275558 111.19390747 66.22942719 110.12213135 66.22599792 C107.93380165 66.22096547 105.74546438 66.21858845 103.55712891 66.21875 C100.25051919 66.2165679 96.94424603 66.19838432 93.63769531 66.17944336 C83.7451314 66.15362431 74.11075966 66.17739066 64.34741211 67.92431641 Z M103.47753906 173.40405273 C103.47753906 189.90405273 103.47753906 206.40405273 103.47753906 223.40405273 C110.91215184 223.42506106 118.34665619 223.44509251 125.78127289 223.45580292 C129.24392475 223.46106878 132.70655187 223.46809822 136.16918945 223.47949219 C140.14827163 223.49250261 144.12734394 223.49730165 148.10644531 223.50170898 C149.33899551 223.50687027 150.57154572 223.51203156 151.84144592 223.51734924 C164.85586618 223.81727917 164.85586618 223.81727917 176.07910156 217.96655273 C182.23965015 211.41148626 184.06154586 204.06812996 183.84863281 195.20092773 C183.23708447 190.59178444 181.49779153 186.56180446 179.47753906 182.40405273 C178.81753906 182.40405273 178.15753906 182.40405273 177.47753906 182.40405273 C177.47753906 181.41405273 177.47753906 180.42405273 177.47753906 179.40405273 C169.32208896 172.87969265 158.48810639 172.98743986 148.59472656 173.11108398 C147.29930939 173.11532883 146.00389221 173.11957367 144.66921997 173.12394714 C141.25954151 173.13528896 137.85025907 173.16466089 134.44073486 173.19805908 C130.94785003 173.22899306 127.45489802 173.24266735 123.96191406 173.25756836 C117.13344168 173.28794413 110.30605042 173.34668814 103.47753906 173.40405273 Z M103.47753906 292.40405273 C103.47753906 298.67405273 103.47753906 304.94405273 103.47753906 311.40405273 C108.13668749 311.2833361 112.79566709 311.16032952 117.45458984 311.03173828 C119.03528413 310.98876889 120.61601361 310.94707229 122.19677734 310.90673828 C130.66876017 310.68971405 139.05397654 310.4084655 147.47753906 309.40405273 C146.81753906 307.75405273 146.15753906 306.10405273 145.47753906 304.40405273 C144.81753906 304.40405273 144.15753906 304.40405273 143.47753906 304.40405273 C143.47753906 303.41405273 143.47753906 302.42405273 143.47753906 301.40405273 C141.58784804 299.55568833 141.58784804 299.55568833 139.16503906 297.84155273 C138.36453125 297.24213867 137.56402344 296.64272461 136.73925781 296.02514648 C132.41661318 292.92687788 130.38590072 292.16053815 125.05957031 292.20874023 C123.80595703 292.21518555 122.55234375 292.22163086 121.26074219 292.22827148 C119.95041016 292.2450293 118.64007813 292.26178711 117.29003906 292.27905273 C115.95475919 292.28908635 114.61947217 292.29821154 113.28417969 292.30639648 C110.01522261 292.32999906 106.74635836 292.36587055 103.47753906 292.40405273 Z " fill="#B0B0B5" transform="translate(204.5224609375,-0.404052734375)"/>
<path d="M0 0 C24.47929965 -0.07025617 48.95858407 -0.12306928 73.43796444 -0.15543652 C84.80560119 -0.1708684 96.17317509 -0.19188716 107.54077148 -0.22631836 C117.45525948 -0.25633379 127.36970193 -0.2756017 137.28423411 -0.28226548 C142.52800137 -0.28615726 147.7716384 -0.29522581 153.01536369 -0.31719017 C157.96392206 -0.3377477 162.91229813 -0.34379539 167.86089516 -0.33932304 C169.66466644 -0.34013972 171.46844465 -0.34598946 173.27217865 -0.35761642 C198.96989947 -0.51495974 226.01113745 4.37871383 245.0625 23.01171875 C246.0215625 23.99591797 246.0215625 23.99591797 247 25 C247.9075 25.845625 248.815 26.69125 249.75 27.5625 C266.01085233 45.17842335 270.03769015 66.17405208 269.15234375 89.50292969 C267.83982245 111.01649995 259.74426885 130.11921938 244 145 C243.34 145 242.68 145 242 145 C241.67 145.99 241.34 146.98 241 148 C235.62857143 152 235.62857143 152 233 152 C233 152.66 233 153.32 233 154 C220.90562255 160.15445593 209.21179821 164.85884368 196 168 C199.89509814 170.59673209 204.10846557 172.05933948 208.46289062 173.70117188 C212.01554564 175.07786971 215.1988388 176.37077708 218 179 C218 179.66 218 180.32 218 181 C218.99 181 219.98 181 221 181 C221 181.66 221 182.32 221 183 C221.58652344 183.25652344 222.17304688 183.51304687 222.77734375 183.77734375 C228.31580583 186.82398458 231.94681057 191.95029351 233.6875 197.9375 C233.85636719 198.68902344 234.02523437 199.44054687 234.19921875 200.21484375 C234.46347656 200.80394531 234.72773438 201.39304687 235 202 C235.94166016 202.21849609 235.94166016 202.21849609 236.90234375 202.44140625 C239 203 239 203 240.4921875 205.1875 C240.94851563 206.115625 241.40484375 207.04375 241.875 208 C243.75089754 211.65752887 245.66067814 215.11961867 248 218.5 C250.79163568 222.57506299 253.10628487 226.81701562 255.4296875 231.171875 C257.57134433 235.0289883 259.96614148 238.70194073 262.359375 242.40625 C264.19672979 245.31102043 265.85212205 248.28021406 267.49609375 251.296875 C272.84396258 260.90914833 278.51203615 270.33730952 284.4765625 279.578125 C286.39742275 282.63180026 288.15046068 285.75772205 289.8671875 288.9296875 C290.9686841 290.94276749 292.13443782 292.9060709 293.3125 294.875 C295 298 295 298 295 301 C295.66 301 296.32 301 297 301 C297 301.99 297 302.98 297 304 C294.7060839 305.14695805 293.43662851 305.12338652 290.88717651 305.12025452 C290.02618347 305.12162918 289.16519043 305.12300385 288.27810669 305.12442017 C286.85822952 305.11902725 286.85822952 305.11902725 285.40966797 305.11352539 C283.91693359 305.11374443 283.91693359 305.11374443 282.39404297 305.1139679 C279.09340257 305.11326931 275.79281808 305.10547944 272.4921875 305.09765625 C270.20818106 305.09579188 267.92417422 305.09436807 265.64016724 305.09336853 C259.61988222 305.08954487 253.59962121 305.07971586 247.5793457 305.06866455 C241.43961919 305.05844718 235.29988881 305.05387021 229.16015625 305.04882812 C217.10676027 305.03809348 205.05338213 305.02101885 193 305 C191.71233915 302.75132596 190.42522682 300.50234095 189.13842773 298.25317383 C188.7754232 297.61938057 188.41241867 296.98558731 188.038414 296.3325882 C185.64589385 292.1494874 183.31284986 287.94836651 181.0625 283.6875 C180.74168457 283.08196289 180.42086914 282.47642578 180.09033203 281.85253906 C179.05795574 279.90288082 178.02880586 277.95154435 177 276 C175.45923238 273.08285767 173.91720084 270.16638483 172.375 267.25 C171.9936792 266.52796387 171.6123584 265.80592773 171.21948242 265.06201172 C169.1379366 261.12644103 167.02701333 257.21016244 164.875 253.3125 C161.39256129 246.97018146 158.20556015 240.48547609 155 234 C154.60296875 233.28714844 154.2059375 232.57429687 153.796875 231.83984375 C153 230 153 230 153 226 C152.34 226 151.68 226 151 226 C150.48050781 224.92621094 149.96101562 223.85242188 149.42578125 222.74609375 C148.7216835 221.30973435 148.01723775 219.8735455 147.3125 218.4375 C146.97283203 217.73302734 146.63316406 217.02855469 146.28320312 216.30273438 C144.4976439 212.68155352 142.62468144 209.35496783 140.23046875 206.09765625 C138 203 138 203 138 201 C137.34 201 136.68 201 136 201 C134.375 199.6875 134.375 199.6875 133 198 C133 197.01 133 196.02 133 195 C132.443125 194.7525 131.88625 194.505 131.3125 194.25 C129 193 129 193 126.625 191.0625 C119.57391204 185.52235946 113.32536649 185.47745819 104.625 185.3125 C103.41199219 185.27833984 102.19898438 185.24417969 100.94921875 185.20898438 C97.96623819 185.12677625 94.98354158 185.05753474 92 185 C92.00222061 185.6398584 92.00444122 186.2797168 92.00672913 186.93896484 C92.10655344 217.21356279 92.08581179 247.47903844 91.5625 277.75 C91.54285187 278.97702637 91.52320374 280.20405273 91.50296021 281.46826172 C91.44653033 284.91126745 91.38296222 288.35405183 91.31640625 291.796875 C91.29968872 292.82310974 91.28297119 293.84934448 91.26574707 294.90667725 C91.24580688 295.83304993 91.2258667 296.75942261 91.20532227 297.71386719 C91.18977798 298.52249207 91.1742337 299.33111694 91.15821838 300.16424561 C91 302 91 302 90 303 C87.23061034 303.09517803 84.48622841 303.12554265 81.71655273 303.11352539 C80.41423203 303.11374443 80.41423203 303.11374443 79.08560181 303.1139679 C76.20157414 303.11326846 73.3176102 303.10547463 70.43359375 303.09765625 C68.43962133 303.09579218 66.44564845 303.09436823 64.45167542 303.09336853 C59.19254298 303.08954248 53.93343797 303.07971145 48.67431641 303.06866455 C42.3701255 303.05665815 36.06592544 303.05204861 29.76172638 303.04621124 C20.17447432 303.03649975 10.58723921 303.01807675 1 303 C0.18411919 266.11014113 -0.14229982 229.24353432 -0.10139394 192.34491849 C-0.09563836 186.23774438 -0.09475847 180.13057111 -0.09374207 174.0233947 C-0.09158895 161.98019247 -0.08503432 149.93699727 -0.07543945 137.89379883 C-0.06616577 126.2411299 -0.05913465 114.58846292 -0.05493164 102.93579102 C-0.05466892 102.2094659 -0.05440619 101.48314079 -0.05413551 100.73480583 C-0.05282985 97.08864106 -0.05156629 93.44247629 -0.05032361 89.7963115 C-0.04006836 59.86420275 -0.02247889 29.93210223 0 0 Z M93 67 C93 83.5 93 100 93 117 C100.43461277 117.02100832 107.86911713 117.04103978 115.30373383 117.05175018 C118.76638569 117.05701605 122.22901281 117.06404548 125.69165039 117.07543945 C129.67073257 117.08844988 133.64980488 117.09324892 137.62890625 117.09765625 C138.86145645 117.10281754 140.09400665 117.10797882 141.36390686 117.11329651 C154.37832711 117.41322644 154.37832711 117.41322644 165.6015625 111.5625 C171.76211109 105.00743352 173.5840068 97.66407723 173.37109375 88.796875 C172.75954541 84.18773171 171.02025247 80.15775173 169 76 C168.34 76 167.68 76 167 76 C167 75.01 167 74.02 167 73 C158.84454989 66.47563991 148.01056733 66.58338712 138.1171875 66.70703125 C136.82177032 66.71127609 135.52635315 66.71552094 134.19168091 66.71989441 C130.78200245 66.73123622 127.37272 66.76060816 123.9631958 66.79400635 C120.47031097 66.82494032 116.97735895 66.83861461 113.484375 66.85351562 C106.65590262 66.88389139 99.82851136 66.94263541 93 67 Z " fill="#1F65B7" transform="translate(215,106)"/>
<path d="M0 0 C8.58 0 17.16 0 26 0 C26 0.33 26 0.66 26 1 C17.75 1 9.5 1 1 1 C1 7.27 1 13.54 1 20 C2.40121094 19.8453125 3.80242187 19.690625 5.24609375 19.53125 C12.20786151 18.83495064 19.17653116 18.63205936 26.16601562 18.39453125 C36.37022042 18.48857757 36.37022042 18.48857757 46 16 C47.60758389 18.5395603 49.21113399 21.08152297 50.8125 23.625 C51.26431641 24.33785156 51.71613281 25.05070312 52.18164062 25.78515625 C59 36.63480839 59 36.63480839 59 41 C59.66 41 60.32 41 61 41 C61.99 43.97 62.98 46.94 64 50 C48.50556963 55.51392254 32.03527753 58.02447038 15.875 60.8125 C15.17221924 60.93633057 14.46943848 61.06016113 13.74536133 61.18774414 C9.44959868 61.89925437 5.34626288 62.03996041 1 62 C1.00444122 62.69713104 1.00888245 63.39426208 1.01345825 64.11251831 C1.05349586 70.67527726 1.08396442 77.23800225 1.10362434 83.80085564 C1.11407142 87.17506994 1.12824725 90.54918352 1.15087891 93.92333984 C1.17504885 97.80048318 1.18646511 101.67748277 1.1953125 105.5546875 C1.20563507 106.76929657 1.21595764 107.98390564 1.22659302 109.23532104 C1.22674408 110.35633209 1.22689514 111.47734314 1.22705078 112.63232422 C1.231492 113.62271698 1.23593323 114.61310974 1.24050903 115.6335144 C1 118 1 118 -1 120 C-3.89222553 120.18824486 -6.6879814 120.25170246 -9.58056641 120.22705078 C-10.46843338 120.22734283 -11.35630035 120.22763489 -12.27107239 120.22793579 C-15.21466747 120.22653907 -18.15801147 120.21096184 -21.1015625 120.1953125 C-23.13894513 120.19158358 -25.17632954 120.18873604 -27.2137146 120.18673706 C-32.58301725 120.17909104 -37.95221216 120.15943425 -43.32147217 120.1373291 C-49.75999729 120.11329987 -56.19855838 120.10409431 -62.63711548 120.09242249 C-72.42481865 120.07301041 -82.21228529 120.03469454 -92 120 C-92 101.19 -92 82.38 -92 63 C-91.67 63 -91.34 63 -91 63 C-91 81.15 -91 99.3 -91 118 C-61.63 117.67 -32.26 117.34 -2 117 C-1.34 78.39 -0.68 39.78 0 0 Z " fill="#96999F" transform="translate(307,291)"/>
<path d="M0 0 C0.33 0 0.66 0 1 0 C1 99.99 1 199.98 1 303 C0.67 303 0.34 303 0 303 C0 284.19 0 265.38 0 246 C-5.61 245.34 -11.22 244.68 -17 244 C-17 243.34 -17 242.68 -17 242 C-15.35 242 -13.7 242 -12 242 C-11.67 241.01 -11.34 240.02 -11 239 C-9.2421875 240.04166667 -7.484375 241.08333333 -5.7265625 242.125 C-4.02527333 243.15068348 -4.02527333 243.15068348 -2 243 C-1.67 226.5 -1.34 210 -1 193 C-2.32 193.33 -3.64 193.66 -5 194 C-5 193.01 -5 192.02 -5 191 C-3.35 191 -1.7 191 0 191 C0 127.97 0 64.94 0 0 Z M-9 238 C-8.34 238.66 -7.68 239.32 -7 240 C-7.66 240 -8.32 240 -9 240 C-9 239.34 -9 238.68 -9 238 Z " fill="#B6D0E2" transform="translate(214,107)"/>
<path d="M0 0 C2 3 2 3 2 6 C3.32 6.33 4.64 6.66 6 7 C5.67 7.99 5.34 8.98 5 10 C-8.28187409 10.02312079 -21.56374343 10.04091374 -34.84563351 10.05181217 C-41.0122492 10.05704158 -47.17885118 10.06414027 -53.34545898 10.07543945 C-59.29116006 10.08626629 -65.23684789 10.0922764 -71.18255806 10.09487724 C-73.45646943 10.09673186 -75.73038004 10.10035317 -78.00428581 10.10573006 C-81.1772712 10.11293778 -84.35020117 10.11399106 -87.52319336 10.11352539 C-88.47337341 10.11712067 -89.42355347 10.12071594 -90.40252686 10.12442017 C-96.88594784 10.11405216 -96.88594784 10.11405216 -98 9 C-98.04080783 7.00041636 -98.04254356 4.99954746 -98 3 C-97.01 3.495 -97.01 3.495 -96 4 C-96 4.99 -96 5.98 -96 7 C-94.27692627 6.8928064 -94.27692627 6.8928064 -92.51904297 6.78344727 C-74.56749557 5.77158241 -56.62175277 5.88267016 -38.64935303 5.93133545 C-34.39124051 5.9417339 -30.13312167 5.94616774 -25.875 5.95117188 C-17.5833165 5.96176098 -9.29166297 5.97873092 -1 6 C-0.67 4.02 -0.34 2.04 0 0 Z " fill="#638CB6" transform="translate(505,401)"/>
<path d="M0 0 C0.33 0 0.66 0 1 0 C1.02312851 7.54498233 1.04091769 15.08996101 1.05181217 22.63497066 C1.05703989 26.13808885 1.0641355 29.64118285 1.07543945 33.14428711 C1.08834206 37.16780841 1.09322912 41.19130414 1.09765625 45.21484375 C1.10281754 46.47836166 1.10797882 47.74187958 1.11329651 49.04368591 C1.11337204 50.204814 1.11344757 51.36594208 1.11352539 52.56225586 C1.115746 53.59039902 1.11796661 54.61854218 1.12025452 55.67784119 C1 58 1 58 0 59 C-2.83040672 59.09520906 -5.63634993 59.12553631 -8.46704102 59.11352539 C-9.35476196 59.11367142 -10.24248291 59.11381744 -11.15710449 59.1139679 C-14.10606284 59.11326843 -17.05495887 59.10547448 -20.00390625 59.09765625 C-22.04271917 59.09579219 -24.08153254 59.09436823 -26.12034607 59.09336853 C-31.49784574 59.08954241 -36.87531858 59.07971132 -42.25280762 59.06866455 C-48.69883418 59.05665834 -55.1448697 59.05204864 -61.59090424 59.04621124 C-71.39395484 59.03649962 -81.19694653 59.01734372 -91 59 C-91 40.19 -91 21.38 -91 2 C-90.67 2 -90.34 2 -90 2 C-90 20.15 -90 38.3 -90 57 C-60.63 56.67 -31.26 56.34 -1 56 C-0.67 37.52 -0.34 19.04 0 0 Z " fill="#6C8DB0" transform="translate(306,352)"/>
<path d="M0 0 C14.70049827 -0.07045378 29.40097383 -0.12316463 44.10160732 -0.15543652 C50.92920555 -0.17082716 57.75669815 -0.19176489 64.58422852 -0.22631836 C71.18486839 -0.25970729 77.78542817 -0.27690121 84.38615608 -0.28463173 C86.89247415 -0.29013418 89.39878689 -0.30087792 91.90505791 -0.31719017 C116.9066721 -0.4733026 138.03566604 2.48367138 160 15 C160 15.33 160 15.66 160 16 C157.69 16 155.38 16 153 16 C153 15.01 153 14.02 153 13 C151.92621094 12.74605469 150.85242188 12.49210937 149.74609375 12.23046875 C148.30981802 11.8831341 146.87362444 11.53545967 145.4375 11.1875 C144.38079102 10.9390332 144.38079102 10.9390332 143.30273438 10.68554688 C138.60976966 9.5393389 134.40464081 7.98208837 130 6 C128.67723944 5.62691369 127.34767923 5.26953585 126 5 C126 4.34 126 3.68 126 3 C124.77023437 3.01740234 124.77023437 3.01740234 123.515625 3.03515625 C122.43796875 3.04417969 121.3603125 3.05320312 120.25 3.0625 C119.18265625 3.07410156 118.1153125 3.08570312 117.015625 3.09765625 C114 3 114 3 112.10258865 2.50378513 C109.78452585 1.94837189 107.72579495 1.86082256 105.34295654 1.84178162 C104.41190094 1.8319928 103.48084534 1.82220398 102.52157593 1.81211853 C101.50737579 1.80636307 100.49317566 1.8006076 99.44824219 1.79467773 C98.37476532 1.78477814 97.30128845 1.77487854 96.19528198 1.76467896 C92.64583545 1.73308278 89.09637553 1.70831384 85.546875 1.68359375 C83.0863612 1.66302261 80.62585092 1.64202609 78.16534424 1.62062073 C71.68809867 1.56541665 65.21082129 1.51599996 58.73352051 1.46777344 C52.12440153 1.41754632 45.51532876 1.36186656 38.90625 1.30664062 C25.93753974 1.19907938 12.96879002 1.0974447 0 1 C0 0.67 0 0.34 0 0 Z " fill="#ABCFEC" transform="translate(290,106)"/>
<path d="M0 0 C3.9172412 0.10995451 7.83352845 0.24056734 11.75 0.375 C13.41675781 0.42140625 13.41675781 0.42140625 15.1171875 0.46875 C16.18710937 0.50742187 17.25703125 0.54609375 18.359375 0.5859375 C19.34389648 0.6173584 20.32841797 0.6487793 21.34277344 0.68115234 C24 1 24 1 28 3 C18.76 3 9.52 3 0 3 C0.02320313 7.38023437 0.04640625 11.76046875 0.0703125 16.2734375 C0.08316956 19.76057826 0.09401688 23.24771235 0.10350037 26.73486328 C0.11407267 30.41899349 0.1282064 34.10303207 0.15087891 37.78710938 C0.17256991 41.33379655 0.18456067 44.88039472 0.18975449 48.4271431 C0.193457 49.78197252 0.20068689 51.13679694 0.21146011 52.49158859 C0.22592448 54.38545757 0.22681649 56.27941564 0.22705078 58.17333984 C0.231492 59.25255707 0.23593323 60.33177429 0.24050903 61.44369507 C0 64 0 64 -2 66 C-2.0251577 60.09993788 -2.0430707 54.19990855 -2.05493164 48.29980469 C-2.05988837 46.30240331 -2.06665572 44.3050054 -2.07543945 42.30761719 C-2.12062116 31.75104462 -2.06183252 21.21835868 -1.55859375 10.671875 C-1.51960464 9.82457825 -1.48061554 8.97728149 -1.44044495 8.10430908 C-1.12628944 2.25257887 -1.12628944 2.25257887 0 0 Z " fill="#3A6AA2" transform="translate(307,288)"/>
<path d="M0 0 C0.33 0 0.66 0 1 0 C8.44938056 22.00050392 7.56773011 44.92671577 1 67 C0.67 67 0.34 67 0 67 C0 64.03 0 61.06 0 58 C0.33 58 0.66 58 1 58 C1.33870183 54.00043584 1.66998725 50.00028974 2 46 C2.14308594 44.31197266 2.14308594 44.31197266 2.2890625 42.58984375 C2.97620263 34.1969179 3.3422678 26.35188853 2 18 C1.65218753 15.33500448 1.32759802 12.6675839 1 10 C0.34 10 -0.32 10 -1 10 C-2.15837626 5.94568308 -1.83691257 3.78187881 0 0 Z " fill="#5784B5" transform="translate(478,155)"/>
<path d="M0 0 C3.88561424 0.57564655 6.04613357 2.51253354 9 5 C9.66 5.33 10.32 5.66 11 6 C11.40729228 8.32156597 11.74438677 10.6568787 12 13 C12.66 12.01 13.32 11.02 14 10 C16.31 10.33 18.62 10.66 21 11 C18.375 15.875 18.375 15.875 15 17 C15 17.99 15 18.98 15 20 C15.66 20 16.32 20 17 20 C16.67 20.66 16.34 21.32 16 22 C15.01 21.67 14.02 21.34 13 21 C12.078125 18.99609375 12.078125 18.99609375 11.25 16.4375 C9.13022261 10.71903076 5.64322223 4.82161111 0 2 C0 1.34 0 0.68 0 0 Z " fill="#7288A3" transform="translate(436,287)"/>
<path d="M0 0 C0.33 0.99 0.66 1.98 1 3 C0.67 3.33 0.34 3.66 0 4 C-0.0825 5.093125 -0.165 6.18625 -0.25 7.3125 C-0.89231792 13.28932265 -3.54914425 18.57375111 -6 24 C-7.32 24 -8.64 24 -10 24 C-9.34 23.67 -8.68 23.34 -8 23 C-8 21.35 -8 19.7 -8 18 C-7.34 18 -6.68 18 -6 18 C-5.855625 17.030625 -5.71125 16.06125 -5.5625 15.0625 C-5 12 -5 12 -4 11 C-4.20625 10.2575 -4.4125 9.515 -4.625 8.75 C-5.11328574 5.16923788 -4.12836689 3.83782252 -2 1 C-1.34 0.67 -0.68 0.34 0 0 Z " fill="#99989D" transform="translate(525,208)"/>
<path d="M0 0 C3.60796335 3.07345026 5.56984292 6.56449582 7.76171875 10.68359375 C8.88725321 12.78908881 10.08323963 14.8291285 11.3125 16.875 C13 20 13 20 13 23 C13.66 23 14.32 23 15 23 C14.67 23.99 14.34 24.98 14 26 C14 25.34 14 24.68 14 24 C12.35 24 10.7 24 9 24 C9 21.69 9 19.38 9 17 C8.34 17 7.68 17 7 17 C4.50931083 14.50931083 3.70098192 12.16099947 2.9375 8.8125 C2.628125 7.554375 2.31875 6.29625 2 5 C1.34 4.67 0.68 4.34 0 4 C0 2.68 0 1.36 0 0 Z " fill="#5C88B6" transform="translate(497,384)"/>
<path d="M0 0 C0.66 0.66 1.32 1.32 2 2 C1.3125 4.4375 1.3125 4.4375 0 7 C-2.25 7.6875 -2.25 7.6875 -5 8 C-8.22174544 8.71223847 -8.22174544 8.71223847 -11 10 C-11.96877057 12.03243548 -11.96877057 12.03243548 -12 14 C-12.66 14 -13.32 14 -14 14 C-14 14.66 -14 15.32 -14 16 C-15.32 15.67 -16.64 15.34 -18 15 C-18 14.34 -18 13.68 -18 13 C-16.6706543 11.79492188 -16.6706543 11.79492188 -14.82421875 10.46875 C-14.16099609 9.98792969 -13.49777344 9.50710937 -12.81445312 9.01171875 C-12.11255859 8.51285156 -11.41066406 8.01398437 -10.6875 7.5 C-9.65206055 6.75169922 -9.65206055 6.75169922 -8.59570312 5.98828125 C-5.75859558 3.94337088 -2.91033987 1.94022658 0 0 Z " fill="#C6C6C9" transform="translate(71,47)"/>
<path d="M0 0 C0.33 0.66 0.66 1.32 1 2 C1.99 1.67 2.98 1.34 4 1 C4.33 2.32 4.66 3.64 5 5 C-0.75 6.125 -0.75 6.125 -3 5 C-3.33 6.32 -3.66 7.64 -4 9 C-4.99 9 -5.98 9 -7 9 C-8.69719127 9.94726954 -10.36935236 10.94228261 -12 12 C-11.67 11.01 -11.34 10.02 -11 9 C-10.34 9 -9.68 9 -9 9 C-8.67 7.68 -8.34 6.36 -8 5 C-7.360625 4.896875 -6.72125 4.79375 -6.0625 4.6875 C-5.381875 4.460625 -4.70125 4.23375 -4 4 C-3.67 3.01 -3.34 2.02 -3 1 C-2.01 0.67 -1.02 0.34 0 0 Z " fill="#9E9EA1" transform="translate(467,265)"/>
<path d="M0 0 C0.99 0.33 1.98 0.66 3 1 C3 1.66 3 2.32 3 3 C3.99 3.33 4.98 3.66 6 4 C6 4.99 6 5.98 6 7 C6.66 7.33 7.32 7.66 8 8 C8.40729228 10.32156597 8.74438677 12.6568787 9 15 C9.99 15 10.98 15 12 15 C12.33 17.97 12.66 20.94 13 24 C9.82864537 20.16368391 7.67071457 15.82527704 5.375 11.4375 C4.96765625 10.66986328 4.5603125 9.90222656 4.140625 9.11132812 C2.5449101 6.08105495 1.0856461 3.2569383 0 0 Z " fill="#4A7DAF" transform="translate(391,379)"/>
<path d="M0 0 C3.9172412 0.10995451 7.83352845 0.24056734 11.75 0.375 C13.41675781 0.42140625 13.41675781 0.42140625 15.1171875 0.46875 C16.18710937 0.50742187 17.25703125 0.54609375 18.359375 0.5859375 C19.34389648 0.6173584 20.32841797 0.6487793 21.34277344 0.68115234 C24 1 24 1 28 3 C18.43 3 8.86 3 -1 3 C-0.67 2.01 -0.34 1.02 0 0 Z " fill="#255C9B" transform="translate(307,288)"/>
<path d="M0 0 C3.53586014 3.17320782 5.58578031 5.16743695 6 10 C-0.875 9.125 -0.875 9.125 -2 8 C-2.04092937 5.66702567 -2.04241723 3.33294775 -2 1 C-1.34 0.67 -0.68 0.34 0 0 Z " fill="#2161A9" transform="translate(442,294)"/>
<path d="M0 0 C0.99 0 1.98 0 3 0 C2.690625 0.845625 2.38125 1.69125 2.0625 2.5625 C0.98461179 6.0497854 0.43418696 9.38177535 0 13 C-0.66 13 -1.32 13 -2 13 C-2.12375 13.598125 -2.2475 14.19625 -2.375 14.8125 C-3 17 -3 17 -5 20 C-5.46715232 12.83699771 -4.01288641 6.01932961 0 0 Z " fill="#919096" transform="translate(500,203)"/>
<path d="M0 0 C0.66 0 1.32 0 2 0 C2.3125 2.8125 2.3125 2.8125 2 6 C-0.3125 7.75 -0.3125 7.75 -3 9 C-3.99 9.66 -4.98 10.32 -6 11 C-5.01 12.485 -5.01 12.485 -4 14 C-4.639375 14.12375 -5.27875 14.2475 -5.9375 14.375 C-6.618125 14.58125 -7.29875 14.7875 -8 15 C-8.33 15.66 -8.66 16.32 -9 17 C-9.66 17 -10.32 17 -11 17 C-10.67 15.68 -10.34 14.36 -10 13 C-9.34 13 -8.68 13 -8 13 C-7.85884766 12.15695313 -7.85884766 12.15695313 -7.71484375 11.296875 C-6.8240591 8.43468169 -5.41128118 6.60229539 -3.5625 4.25 C-2.63630859 3.05117187 -2.63630859 3.05117187 -1.69140625 1.828125 C-1.13324219 1.22484375 -0.57507812 0.6215625 0 0 Z " fill="#C5C5C7" transform="translate(26,87)"/>
<path d="M0 0 C0.99 0.33 1.98 0.66 3 1 C2.67 1.99 2.34 2.98 2 4 C0.4221875 4.0928125 0.4221875 4.0928125 -1.1875 4.1875 C-5.11691606 4.66342347 -5.11691606 4.66342347 -7.5 7.5 C-10.61270991 10.61270991 -12.69418553 10.7467168 -17 11 C-15.70806464 8.41612928 -14.40936734 7.97379889 -11.875 6.625 C-8.90086702 5.03374414 -5.99721222 3.39251521 -3.125 1.625 C-2.09375 1.08875 -1.0625 0.5525 0 0 Z " fill="#CACACC" transform="translate(93,34)"/>
<path d="M0 0 C3.65658033 1.61166811 6.53033096 3.86423078 9.625 6.375 C10.58664062 7.14585937 11.54828125 7.91671875 12.5390625 8.7109375 C14.77232343 10.78822465 15.91219597 12.19730492 17 15 C16.01 15 15.02 15 14 15 C13.67 14.01 13.34 13.02 13 12 C12.01 12 11.02 12 10 12 C8.5943808 10.27271873 7.52547246 8.43840964 6.37890625 6.53125 C5.92386719 6.0259375 5.46882813 5.520625 5 5 C3.68 5 2.36 5 1 5 C0.67 3.35 0.34 1.7 0 0 Z " fill="#618EBB" transform="translate(450,122)"/>
<path d="M0 0 C1.32 1.32 2.64 2.64 4 4 C3.67 4.66 3.34 5.32 3 6 C3.99 6.33 4.98 6.66 6 7 C6 7.66 6 8.32 6 9 C6.99 8.67 7.98 8.34 9 8 C10.125 13.75 10.125 13.75 9 16 C10.32 16.33 11.64 16.66 13 17 C11.35 17 9.7 17 8 17 C8 15.68 8 14.36 8 13 C7.01 13 6.02 13 5 13 C2.96564469 9.27034861 2 7.33094958 2 3 C1.34 3 0.68 3 0 3 C0 2.01 0 1.02 0 0 Z " fill="#2763A5" transform="translate(366,329)"/>
<path d="M0 0 C3 3 3 3 3.34057617 5.72729492 C3.32486572 6.80084229 3.30915527 7.87438965 3.29296875 8.98046875 C3.28330078 10.14384766 3.27363281 11.30722656 3.26367188 12.50585938 C3.23853516 13.72080078 3.21339844 14.93574219 3.1875 16.1875 C3.17396484 17.41404297 3.16042969 18.64058594 3.14648438 19.90429688 C3.11108741 22.93663664 3.0617076 25.96809996 3 29 C2.67 29 2.34 29 2 29 C1.34 19.43 0.68 9.86 0 0 Z " fill="#BAB9C0" transform="translate(529,159)"/>
<path d="M0 0 C0.66 0.33 1.32 0.66 2 1 C0.50902342 4.7952131 -1.75700849 6.61042731 -5 9 C-4.01 9.33 -3.02 9.66 -2 10 C-2 10.66 -2 11.32 -2 12 C-3.423125 11.9690625 -3.423125 11.9690625 -4.875 11.9375 C-7.90666283 11.77448174 -7.90666283 11.77448174 -10 13 C-10 9 -10 9 -8.125 6.75 C-6 5 -6 5 -4 5 C-3.566875 4.0409375 -3.566875 4.0409375 -3.125 3.0625 C-2 1 -2 1 0 0 Z " fill="#97969B" transform="translate(479,252)"/>
<path d="M0 0 C0.99 0 1.98 0 3 0 C3.66 0.99 4.32 1.98 5 3 C5.7734375 3.9590625 5.7734375 3.9590625 6.5625 4.9375 C8.04229893 7.06068977 8.52840908 8.48484841 9 11 C9.185625 11.7425 9.37125 12.485 9.5625 13.25 C9.7790625 14.11625 9.7790625 14.11625 10 15 C9.01 15.495 9.01 15.495 8 16 C6.66141476 13.71125827 5.32898986 11.41930344 4 9.125 C3.6184375 8.47402344 3.236875 7.82304687 2.84375 7.15234375 C0 2.2265625 0 2.2265625 0 0 Z " fill="#4C7FB3" transform="translate(382,362)"/>
<path d="M0 0 C9.14504844 -0.40411834 17.17634256 0.57385524 26 3 C22.25712373 5.13181214 20.21015871 4.95685425 16 4 C16 3.34 16 2.68 16 2 C14.77023437 2.03480469 14.77023437 2.03480469 13.515625 2.0703125 C11.89914062 2.09738281 11.89914062 2.09738281 10.25 2.125 C8.64898437 2.15980469 8.64898437 2.15980469 7.015625 2.1953125 C4.07529894 2.00487687 2.47638122 1.52670104 0 0 Z " fill="#618FBE" transform="translate(400,107)"/>
<path d="M0 0 C1.39718341 2.26089679 2.09531038 3.4354693 1.64453125 6.10546875 C1.36996094 6.79253906 1.09539062 7.47960937 0.8125 8.1875 C0.55082031 8.88230469 0.28914063 9.57710937 0.01953125 10.29296875 C-1 12 -1 12 -4 13 C-4 13.66 -4 14.32 -4 15 C-7 17 -7 17 -9.1875 16.625 C-10.0846875 16.315625 -10.0846875 16.315625 -11 16 C-10.01 16 -9.02 16 -8 16 C-7.67 15.01 -7.34 14.02 -7 13 C-6.34 13 -5.68 13 -5 13 C-3.49439503 10.14589666 -2.36783204 7.31875358 -1.375 4.25 C-1.11460937 3.45078125 -0.85421875 2.6515625 -0.5859375 1.828125 C-0.39257812 1.22484375 -0.19921875 0.6215625 0 0 Z " fill="#618BB9" transform="translate(387,203)"/>
<path d="M0 0 C0.99 0 1.98 0 3 0 C3.83848804 1.45537568 4.67063934 2.91440373 5.5 4.375 C6.19609375 5.59316406 6.19609375 5.59316406 6.90625 6.8359375 C8 9 8 9 8 11 C7.01 11.33 6.02 11.66 5 12 C4.01 10.02 3.02 8.04 2 6 C1.34 6 0.68 6 0 6 C0 4.02 0 2.04 0 0 Z " fill="#4E7BB0" transform="translate(473,346)"/>
<path d="M0 0 C2.97595467 2.55081829 4.44002566 5.43434437 6 9 C6 9.99 6 10.98 6 12 C6.66 12 7.32 12 8 12 C7.67 13.32 7.34 14.64 7 16 C6.67 15.34 6.34 14.68 6 14 C5.34 13.773125 4.68 13.54625 4 13.3125 C3.34 12.879375 2.68 12.44625 2 12 C1.3125 8.6875 1.3125 8.6875 1 5 C0.68033861 3.33065717 0.35268934 1.6626783 0 0 Z " fill="#798DA8" transform="translate(360,320)"/>
<path d="M0 0 C2.72133013 0.61587998 4.50713455 1.32399441 6.17871094 3.61669922 C7.32950501 5.69090032 8.36665635 7.79052111 9.375 9.9375 C9.74238281 10.66646484 10.10976563 11.39542969 10.48828125 12.14648438 C13.13505338 17.59483985 13.13505338 17.59483985 12 21 C11.07767578 19.35451172 11.07767578 19.35451172 10.13671875 17.67578125 C9.32035083 16.22133265 8.50394244 14.76690677 7.6875 13.3125 C7.28337891 12.59126953 6.87925781 11.87003906 6.46289062 11.12695312 C4.360952 7.38447704 2.23421775 3.66585243 0 0 Z " fill="#2F62A2" transform="translate(353,308)"/>
<path d="M0 0 C2.64 0.33 5.28 0.66 8 1 C5.375 5.875 5.375 5.875 2 7 C1.67 7.66 1.34 8.32 1 9 C0.67 6.03 0.34 3.06 0 0 Z " fill="#9699A3" transform="translate(449,297)"/>
<path d="M0 0 C0.66 0.66 1.32 1.32 2 2 C1.34 2 0.68 2 0 2 C0 1.34 0 0.68 0 0 Z M-2 1 C0.03833424 2.2739589 2.03852126 3.61061923 4 5 C4 5.66 4 6.32 4 7 C0.04 6.67 -3.92 6.34 -8 6 C-8 5.34 -8 4.68 -8 4 C-6.35 4 -4.7 4 -3 4 C-2.67 3.01 -2.34 2.02 -2 1 Z " fill="#A3A1A5" transform="translate(205,345)"/>
<path d="M0 0 C0.99 0.66 1.98 1.32 3 2 C-0.3 5.63 -3.6 9.26 -7 13 C-7.33 11.68 -7.66 10.36 -8 9 C-6.75 7.25 -6.75 7.25 -5 6 C-4.01 6 -3.02 6 -2 6 C-2 4.35 -2 2.7 -2 1 C-1.34 0.67 -0.68 0.34 0 0 Z " fill="#5583B3" transform="translate(466,238)"/>
<path d="M0 0 C3.63 0.33 7.26 0.66 11 1 C11.33 2.65 11.66 4.3 12 6 C6.97734643 4.81819916 3.9050849 3.55007718 0 0 Z " fill="#3F77B0" transform="translate(422,111)"/>
<path d="M0 0 C-1.98 2.31 -3.96 4.62 -6 7 C-6.66 6.34 -7.32 5.68 -8 5 C-8.99 5.495 -8.99 5.495 -10 6 C-10.33 5.01 -10.66 4.02 -11 3 C-9.73581754 2.30034557 -8.46334598 1.61565237 -7.1875 0.9375 C-6.47980469 0.55464844 -5.77210937 0.17179687 -5.04296875 -0.22265625 C-3 -1 -3 -1 0 0 Z " fill="#C5C5C9" transform="translate(118,24)"/>
<path d="M0 0 C0.99 0 1.98 0 3 0 C1.81819916 5.02265357 0.55007718 8.0949151 -3 12 C-2.979375 11.05125 -2.95875 10.1025 -2.9375 9.125 C-2.77448174 6.09333717 -2.77448174 6.09333717 -4 4 C-3.34 3.34 -2.68 2.68 -2 2 C-1.67 2.33 -1.34 2.66 -1 3 C-0.67 2.01 -0.34 1.02 0 0 Z " fill="#5483B7" transform="translate(475,222)"/>
<path d="M0 0 C0.66 0 1.32 0 2 0 C0.79618552 2.49361571 -0.45428722 4.68143083 -2 7 C-2.66 7 -3.32 7 -4 7 C-4.33 7.99 -4.66 8.98 -5 10 C-6.32 10 -7.64 10 -9 10 C-8.67 9.01 -8.34 8.02 -8 7 C-7.34 7.33 -6.68 7.66 -6 8 C-6 7.34 -6 6.68 -6 6 C-5.34 6 -4.68 6 -4 6 C-3.67 5.01 -3.34 4.02 -3 3 C-2.34 3 -1.68 3 -1 3 C-0.67 2.01 -0.34 1.02 0 0 Z " fill="#9C9C9F" transform="translate(492,266)"/>
<path d="M0 0 C0.33 0.99 0.66 1.98 1 3 C0.01 3.66 -0.98 4.32 -2 5 C-5.1875 4.125 -5.1875 4.125 -8 3 C-7.67 2.01 -7.34 1.02 -7 0 C-3.89953913 -1.03348696 -2.94389782 -1.17755913 0 0 Z " fill="#1E61A9" transform="translate(440,259)"/>
<path d="M0 0 C2.48982535 2.27745789 4.10368997 4.62335238 5.75 7.5625 C6.19859375 8.34753906 6.6471875 9.13257813 7.109375 9.94140625 C7.40328125 10.62074219 7.6971875 11.30007812 8 12 C7.67 12.66 7.34 13.32 7 14 C2.50664023 9.47915791 0.26327654 6.45027515 0 0 Z " fill="#608DB9" transform="translate(470,141)"/>
<path d="M0 0 C3 1 3 1 3.94921875 2.70703125 C4.19285156 3.40183594 4.43648438 4.09664062 4.6875 4.8125 C4.93886719 5.49957031 5.19023437 6.18664062 5.44921875 6.89453125 C6 9 6 9 6 13 C5.34 13 4.68 13 4 13 C3.32404685 11.58774074 2.65959941 10.16997095 2 8.75 C1.62875 7.96109375 1.2575 7.1721875 0.875 6.359375 C0 4 0 4 0 0 Z " fill="#A6A4A9" transform="translate(487,136)"/>
<path d="M0 0 C5.94 2.475 5.94 2.475 12 5 C12 5.66 12 6.32 12 7 C10.39566191 6.52140759 8.79153584 6.04210442 7.1875 5.5625 C6.29417969 5.29566406 5.40085938 5.02882813 4.48046875 4.75390625 C2.64526945 4.19612127 0.81966274 3.60655425 -1 3 C-0.67 2.01 -0.34 1.02 0 0 Z " fill="#A9A9AB" transform="translate(128,329)"/>
<path d="M0 0 C3.3502463 3.81234923 5.16974789 7.33285711 7 12 C6.01 12 5.02 12 4 12 C4 11.01 4 10.02 4 9 C3.01 9 2.02 9 1 9 C0.67 6.03 0.34 3.06 0 0 Z " fill="#5A86B7" transform="translate(453,309)"/>
<path d="M0 0 C1.32 0.66 2.64 1.32 4 2 C2.86280581 5.41158256 1.95657056 6.11854601 -1 8 C-1.66 8 -2.32 8 -3 8 C-2.67 6.35 -2.34 4.7 -2 3 C-1.34 3 -0.68 3 0 3 C0 2.01 0 1.02 0 0 Z " fill="#5180B7" transform="translate(453,249)"/>
<path d="M0 0 C0.66 0 1.32 0 2 0 C1.64766839 5.4611399 1.64766839 5.4611399 1 8 C-1.0625 9.5 -1.0625 9.5 -3 10 C-2.49287967 6.28111761 -1.88391785 3.26545761 0 0 Z " fill="#9F9EA4" transform="translate(490,231)"/>
<path d="M0 0 C4.95 0 9.9 0 15 0 C15 0.33 15 0.66 15 1 C13.72125 1.144375 12.4425 1.28875 11.125 1.4375 C8.74307106 1.70642746 7.15547309 1.92226346 5 3 C5 2.34 5 1.68 5 1 C4.34 1 3.68 1 3 1 C2.67 1.99 2.34 2.98 2 4 C1.01 4.33 0.02 4.66 -1 5 C-0.67 3.35 -0.34 1.7 0 0 Z " fill="#276DBF" transform="translate(218,108)"/>
<path d="M0 0 C0.33 1.32 0.66 2.64 1 4 C1.66 4.33 2.32 4.66 3 5 C2.67 5.66 2.34 6.32 2 7 C1.95752718 9.67578752 1.95235885 12.32680213 2 15 C2 15.99 2 16.98 2 18 C1.34 18.66 0.68 19.32 0 20 C0 13.4 0 6.8 0 0 Z " fill="#A3A2A7" transform="translate(499,178)"/>
<path d="M0 0 C0.66 0.66 1.32 1.32 2 2 C1.9765625 4.1640625 1.9765625 4.1640625 1.625 6.625 C1.51414062 7.44226563 1.40328125 8.25953125 1.2890625 9.1015625 C1.19367188 9.72804687 1.09828125 10.35453125 1 11 C0.01 11 -0.98 11 -2 11 C-2 7.7 -2 4.4 -2 1 C-1.34 0.67 -0.68 0.34 0 0 Z " fill="#A4A3A7" transform="translate(499,161)"/>
<path d="M0 0 C0.99 0.33 1.98 0.66 3 1 C3 1.99 3 2.98 3 4 C3.99 4 4.98 4 6 4 C6.33 6.97 6.66 9.94 7 13 C0 4.25 0 4.25 0 0 Z " fill="#6D96BD" transform="translate(397,390)"/>
<path d="M0 0 C5.23175837 -0.38281159 8.37802694 0.78145293 13 3 C13 3.33 13 3.66 13 4 C7.73946963 4.31563182 4.55426184 3.66590937 0 1 C0 0.67 0 0.34 0 0 Z " fill="#A9A8AD" transform="translate(150,338)"/>
<path d="M0 0 C0.66 0 1.32 0 2 0 C3.76171875 2.3359375 3.76171875 2.3359375 5.6875 5.375 C6.65236328 6.87160156 6.65236328 6.87160156 7.63671875 8.3984375 C8.31154297 9.68621094 8.31154297 9.68621094 9 11 C8.67 11.66 8.34 12.32 8 13 C7.67 12.01 7.34 11.02 7 10 C6.34 10 5.68 10 5 10 C5 9.01 5 8.02 5 7 C4.34 7 3.68 7 3 7 C1.375 5.75 1.375 5.75 0 4 C0 2.68 0 1.36 0 0 Z " fill="#7491AB" transform="translate(351,307)"/>
<path d="M0 0 C5.57142857 5.14285714 5.57142857 5.14285714 6 9 C3.96166576 7.7260411 1.96147874 6.38938077 0 5 C0 4.34 0 3.68 0 3 C-0.99 2.67 -1.98 2.34 -3 2 C-2.01 1.34 -1.02 0.68 0 0 Z M4 2 C4.99 2.495 4.99 2.495 6 3 C5.01 3.495 5.01 3.495 4 4 C4 3.34 4 2.68 4 2 Z " fill="#BFBFC1" transform="translate(46,279)"/>
<path d="M0 0 C1.10348268 3.31044803 0.99444068 5.65506316 0 9 C-0.99 9.495 -0.99 9.495 -2 10 C-2.33 10.99 -2.66 11.98 -3 13 C-3.66 13 -4.32 13 -5 13 C-3.78184562 8.31479085 -2.30440013 4.29456388 0 0 Z " fill="#CAC9CD" transform="translate(7,116)"/>
<path d="M0 0 C2.00720923 0.28674418 4.0085944 0.61866701 6 1 C6 1.33 6 1.66 6 2 C4.01432292 2.48828125 2.02864583 2.9765625 0.04296875 3.46484375 C-1.65683202 3.91010705 -3.33301954 4.44433985 -5 5 C-5.99 4.34 -6.98 3.68 -8 3 C-7.34 3 -6.68 3 -6 3 C-6 2.34 -6 1.68 -6 1 C-4.7934375 1.0309375 -4.7934375 1.0309375 -3.5625 1.0625 C-1.06645115 1.29633621 -1.06645115 1.29633621 0 0 Z " fill="#195DAA" transform="translate(425,265)"/>
<path d="M0 0 C0.6875 1.6875 0.6875 1.6875 1 4 C-0.3125 6.75 -0.3125 6.75 -2 9 C-2.66 9 -3.32 9 -4 9 C-4 9.66 -4 10.32 -4 11 C-4.66 11 -5.32 11 -6 11 C-5.67 9.35 -5.34 7.7 -5 6 C-4.34 6 -3.68 6 -3 6 C-2.690625 5.38125 -2.38125 4.7625 -2.0625 4.125 C-1.375 2.75 -0.6875 1.375 0 0 Z " fill="#9F9DA0" transform="translate(508,245)"/>
<path d="M0 0 C0.598125 0.20625 1.19625 0.4125 1.8125 0.625 C-0.5 3.125 -0.5 3.125 -3.1875 5.625 C-4.1775 5.625 -5.1675 5.625 -6.1875 5.625 C-5.875 3.75 -5.875 3.75 -5.1875 1.625 C-2.1875 -0.375 -2.1875 -0.375 0 0 Z " fill="#9B9AA2" transform="translate(448.1875,279.375)"/>
<path d="M0 0 C1.9375 0.75 1.9375 0.75 3.9375 2.75 C3.2775 3.41 2.6175 4.07 1.9375 4.75 C0.6175 4.75 -0.7025 4.75 -2.0625 4.75 C-2.0625 4.09 -2.0625 3.43 -2.0625 2.75 C-3.0525 2.42 -4.0425 2.09 -5.0625 1.75 C-2.0625 -0.25 -2.0625 -0.25 0 0 Z " fill="#C9CACC" transform="translate(178.0625,3.25)"/>
<path d="M0 0 C0.99 0.495 0.99 0.495 2 1 C2 1.99 2 2.98 2 4 C3.98 4 5.96 4 8 4 C8.33 4.66 8.66 5.32 9 6 C6.03 6 3.06 6 0 6 C0 4.02 0 2.04 0 0 Z " fill="#275996" transform="translate(407,404)"/>
<path d="M0 0 C0.99 0.33 1.98 0.66 3 1 C4.16513114 3.96578836 4.08762121 6.84563636 4 10 C1 8 1 8 0.48828125 6.0546875 C0.32552083 4.03645833 0.16276042 2.01822917 0 0 Z " fill="#3368A7" transform="translate(403,397)"/>
<path d="M0 0 C0.33 0.66 0.66 1.32 1 2 C1.99 1.67 2.98 1.34 4 1 C4.33 2.32 4.66 3.64 5 5 C3.02 5.33 1.04 5.66 -1 6 C-1.33 4.35 -1.66 2.7 -2 1 C-1.34 0.67 -0.68 0.34 0 0 Z " fill="#8E8F94" transform="translate(467,265)"/>
<path d="M0 0 C1.9451 2.91765 2.45276317 4.62537285 3 8 C1.35 7.67 -0.3 7.34 -2 7 C-1.125 2.25 -1.125 2.25 0 0 Z " fill="#A7A8AD" transform="translate(123,247)"/>
<path d="M0 0 C0.33 1.32 0.66 2.64 1 4 C0.34 4 -0.32 4 -1 4 C-1.12375 4.598125 -1.2475 5.19625 -1.375 5.8125 C-2 8 -2 8 -4 11 C-4.49230769 4.6 -4.49230769 4.6 -2 1.5625 C-1.34 1.046875 -0.68 0.53125 0 0 Z " fill="#9A999E" transform="translate(499,212)"/>
<path d="M0 0 C2.31 0 4.62 0 7 0 C7 0.66 7 1.32 7 2 C8.98 1.67 10.96 1.34 13 1 C12.34 2.32 11.68 3.64 11 5 C3.57142857 1.85714286 3.57142857 1.85714286 0 0 Z " fill="#6691BF" transform="translate(367,173)"/>
<path d="M0 0 C0.99 0.33 1.98 0.66 3 1 C3.33 3.31 3.66 5.62 4 8 C3.01 7.34 2.02 6.68 1 6 C0.01 6.495 0.01 6.495 -1 7 C-0.67 5.68 -0.34 4.36 0 3 C-0.66 2.67 -1.32 2.34 -2 2 C-1.34 2 -0.68 2 0 2 C0 1.34 0 0.68 0 0 Z " fill="#9F9EA2" transform="translate(522,132)"/>
<path d="M0 0 C0.66 0.66 1.32 1.32 2 2 C1.34 3.65 0.68 5.3 0 7 C-1.65 7 -3.3 7 -5 7 C-5 6.34 -5 5.68 -5 5 C-4.34 5 -3.68 5 -3 5 C-3 4.01 -3 3.02 -3 2 C-2.01 1.34 -1.02 0.68 0 0 Z " fill="#C4C4C7" transform="translate(71,47)"/>
<path d="M0 0 C4.92127034 -0.16682272 8.50343896 -0.24828052 13 2 C10.58959839 3.53690745 9.49917715 4.09752136 6.640625 3.5390625 C5.85171875 3.23742187 5.0628125 2.93578125 4.25 2.625 C3.45078125 2.32851562 2.6515625 2.03203125 1.828125 1.7265625 C1.22484375 1.48679687 0.6215625 1.24703125 0 1 C0 0.67 0 0.34 0 0 Z " fill="#C0C0C1" transform="translate(353,6)"/>
<path d="M0 0 C0.99 0.66 1.98 1.32 3 2 C3 2.99 3 3.98 3 5 C1.68 5 0.36 5 -1 5 C-1 5.66 -1 6.32 -1 7 C-1.99 7.33 -2.98 7.66 -4 8 C-3.67 6.35 -3.34 4.7 -3 3 C-2.01 2.67 -1.02 2.34 0 2 C0 1.34 0 0.68 0 0 Z " fill="#3F78B4" transform="translate(485,364)"/>
<path d="M0 0 C2.97069541 2.54631035 4.4775751 5.42230149 6 9 C5.67 9.66 5.34 10.32 5 11 C2.65808437 8.8709858 1.16445046 6.95591271 0 4 C0 2.68 0 1.36 0 0 Z " fill="#B9B9BC" transform="translate(513,109)"/>
<path d="M0 0 C-1.13474948 3.40424844 -1.96811304 4.21653709 -5 6 C-5.99 5.67 -6.98 5.34 -8 5 C-3.375 0 -3.375 0 0 0 Z " fill="#C3C2C6" transform="translate(150,107)"/>
<path d="M0 0 C3.79588866 0.54226981 5.47211993 2.20127563 8 5 C7.67 5.66 7.34 6.32 7 7 C5.35 6.67 3.7 6.34 2 6 C1.34 4.02 0.68 2.04 0 0 Z " fill="#A5A4A8" transform="translate(481,72)"/>
<path d="M0 0 C1.32 0 2.64 0 4 0 C4.33 1.65 4.66 3.3 5 5 C3.68 5.33 2.36 5.66 1 6 C0.67 4.02 0.34 2.04 0 0 Z " fill="#175BA5" transform="translate(484,369)"/>
<path d="M0 0 C0.99 0.33 1.98 0.66 3 1 C2.67 2.65 2.34 4.3 2 6 C1.01 6.33 0.02 6.66 -1 7 C-1.625 4.625 -1.625 4.625 -2 2 C-1.34 1.34 -0.68 0.68 0 0 Z " fill="#9A9A9E" transform="translate(461,291)"/>
<path d="M0 0 C0.66 0.33 1.32 0.66 2 1 C2.66 1 3.32 1 4 1 C4.99 1.33 5.98 1.66 7 2 C6.67 2.66 6.34 3.32 6 4 C5.34 4 4.68 4 4 4 C3.67 4.66 3.34 5.32 3 6 C1.68 5.01 0.36 4.02 -1 3 C-0.67 2.01 -0.34 1.02 0 0 Z " fill="#A5A5AB" transform="translate(449,49)"/>
<path d="M0 0 C0.66 0.33 1.32 0.66 2 1 C0.9024777 3.99324263 0.32317108 4.84610901 -2.625 6.25 C-3.40875 6.4975 -4.1925 6.745 -5 7 C-5.33 6.34 -5.66 5.68 -6 5 C-5.34 5 -4.68 5 -4 5 C-3.71125 4.360625 -3.4225 3.72125 -3.125 3.0625 C-2 1 -2 1 0 0 Z " fill="#9E9DA2" transform="translate(479,252)"/>
<path d="M0 0 C2 2 2 2 2 6 C1.34 6 0.68 6 0 6 C0 6.66 0 7.32 0 8 C-0.66 8 -1.32 8 -2 8 C-2 7.34 -2 6.68 -2 6 C-2.66 5.67 -3.32 5.34 -4 5 C-3.01 4.34 -2.02 3.68 -1 3 C-0.67 2.01 -0.34 1.02 0 0 Z " fill="#95949A" transform="translate(526,143)"/>
<path d="M0 0 C1.32 0.66 2.64 1.32 4 2 C3.67 3.32 3.34 4.64 3 6 C1.68 6 0.36 6 -1 6 C-0.67 4.02 -0.34 2.04 0 0 Z " fill="#A5A3A9" transform="translate(509,105)"/>
<path d="M0 0 C0.99 0.33 1.98 0.66 3 1 C2.34 2.98 1.68 4.96 1 7 C0.01 6.34 -0.98 5.68 -2 5 C-1.125 1.125 -1.125 1.125 0 0 Z " fill="#4179B2" transform="translate(378,348)"/>
<path d="M0 0 C4.67692308 1.47692308 4.67692308 1.47692308 6.3125 4.125 C6.539375 4.74375 6.76625 5.3625 7 6 C6.01 6 5.02 6 4 6 C3.67 5.01 3.34 4.02 3 3 C2.01 3 1.02 3 0 3 C0 2.01 0 1.02 0 0 Z " fill="#547FB1" transform="translate(460,131)"/>
<path d="M0 0 C0.66 0.33 1.32 0.66 2 1 C2 1.66 2 2.32 2 3 C2.33 3.66 2.66 4.32 3 5 C2.360625 5.12375 1.72125 5.2475 1.0625 5.375 C0.0415625 5.684375 0.0415625 5.684375 -1 6 C-1.33 6.66 -1.66 7.32 -2 8 C-2.66 8 -3.32 8 -4 8 C-3.67 6.68 -3.34 5.36 -3 4 C-2.34 4 -1.68 4 -1 4 C-0.67 2.68 -0.34 1.36 0 0 Z " fill="#CDCDD1" transform="translate(19,96)"/>
<path d="M0 0 C1.85772162 0.08984301 3.71247985 0.24611861 5.5625 0.4375 C7.08037109 0.59025391 7.08037109 0.59025391 8.62890625 0.74609375 C9.80259766 0.87177734 9.80259766 0.87177734 11 1 C11 1.33 11 1.66 11 2 C9.37675914 2.22162329 7.751279 2.42689803 6.125 2.625 C4.76761719 2.79902344 4.76761719 2.79902344 3.3828125 2.9765625 C2.59648437 2.98429687 1.81015625 2.99203125 1 3 C0.34 2.34 -0.32 1.68 -1 1 C-0.67 0.67 -0.34 0.34 0 0 Z " fill="#AFACB3" transform="translate(322,348)"/>
<path d="M0 0 C0.33 1.32 0.66 2.64 1 4 C-0.65 5.32 -2.3 6.64 -4 8 C-4.33 7.01 -4.66 6.02 -5 5 C-4.34 5 -3.68 5 -3 5 C-2.67 4.01 -2.34 3.02 -2 2 C-1.34 2 -0.68 2 0 2 C0 1.34 0 0.68 0 0 Z " fill="#CBCCCE" transform="translate(43,69)"/>
<path d="M0 0 C0.99 0.33 1.98 0.66 3 1 C2.67 1.99 2.34 2.98 2 4 C0.0625 4.8125 0.0625 4.8125 -2 5 C-2.66 4.34 -3.32 3.68 -4 3 C-2.1875 1.4375 -2.1875 1.4375 0 0 Z " fill="#C3C3C5" transform="translate(93,34)"/>
<path d="M0 0 C0.99 0.33 1.98 0.66 3 1 C3 1.99 3 2.98 3 4 C3.66 4 4.32 4 5 4 C4.67 4.99 4.34 5.98 4 7 C4 6.34 4 5.68 4 5 C2.35 5 0.7 5 -1 5 C-0.67 3.35 -0.34 1.7 0 0 Z " fill="#4B73AD" transform="translate(507,403)"/>
<path d="M0 0 C0.103125 0.639375 0.20625 1.27875 0.3125 1.9375 C0.539375 2.618125 0.76625 3.29875 1 4 C1.99 4.33 2.98 4.66 4 5 C4 6.65 4 8.3 4 10 C2 8.375 2 8.375 0 6 C-0.25 2.75 -0.25 2.75 0 0 Z " fill="#1B57A0" transform="translate(496,384)"/>
<path d="M0 0 C0.99 0 1.98 0 3 0 C3.33 1.65 3.66 3.3 4 5 C2.68 5.33 1.36 5.66 0 6 C0 4.02 0 2.04 0 0 Z " fill="#3B71AB" transform="translate(473,346)"/>
<path d="M0 0 C0.99 0.33 1.98 0.66 3 1 C2.67 2.32 2.34 3.64 2 5 C0.35 5 -1.3 5 -3 5 C-2.01 3.35 -1.02 1.7 0 0 Z " fill="#1E60AA" transform="translate(404,274)"/>
<path d="M0 0 C0.33 0.66 0.66 1.32 1 2 C0.34 2 -0.32 2 -1 2 C-1.268125 2.639375 -1.53625 3.27875 -1.8125 3.9375 C-3 6 -3 6 -6 7 C-5.8125 5.1875 -5.8125 5.1875 -5 3 C-2.4375 1.25 -2.4375 1.25 0 0 Z " fill="#D1D1D2" transform="translate(67,50)"/>
<path d="M0 0 C0.185625 0.8971875 0.185625 0.8971875 0.375 1.8125 C0.95475985 4.26231348 0.95475985 4.26231348 3 7 C2.01 7.495 2.01 7.495 1 8 C1 7.34 1 6.68 1 6 C0.01 5.67 -0.98 5.34 -2 5 C-1.125 1.125 -1.125 1.125 0 0 Z " fill="#195EB0" transform="translate(405,392)"/>
<path d="M0 0 C2.31 0 4.62 0 7 0 C7 0.99 7 1.98 7 3 C5.02 3 3.04 3 1 3 C0.67 2.01 0.34 1.02 0 0 Z " fill="#ABAAAD" transform="translate(190,347)"/>
<path d="M0 0 C0.66 1.32 1.32 2.64 2 4 C0.68 4.33 -0.64 4.66 -2 5 C-2.33 3.68 -2.66 2.36 -3 1 C-2.01 0.67 -1.02 0.34 0 0 Z " fill="#A5A6AA" transform="translate(84,305)"/>
</svg>
