<?xml version="1.0" encoding="UTF-8"?>
<svg version="1.1" xmlns="http://www.w3.org/2000/svg" width="2400" height="497">
<path d="M0 0 C10.89 0 21.78 0 33 0 C33.33 25.74 33.66 51.48 34 78 C38.29 76.68 42.58 75.36 47 74 C68.01824235 68.86402483 89.65527906 70.91709436 108.7734375 81.015625 C113.79704581 84.10520493 117.90169988 87.78355068 122 92 C122.93392578 92.90298828 122.93392578 92.90298828 123.88671875 93.82421875 C140.27458596 110.80131264 142.43702103 133.91661248 142.20703125 156.30078125 C141.80311957 174.17449257 136.28111376 190.78365113 124 204 C123.47019531 204.62003906 122.94039062 205.24007812 122.39453125 205.87890625 C109.10873259 220.54249144 87.84422142 226.36320523 68.7578125 227.875 C47.04950389 228.858946 26.00583773 226.37859906 5.33351135 219.45201111 C4.1165978 219.04474745 4.1165978 219.04474745 2.87510014 218.62925625 C2.25631709 218.42160169 1.63753405 218.21394712 1 218 C0.82537076 199.66673722 0.65916842 181.33340316 0.5 163 C0.49405146 162.31597138 0.48810292 161.63194277 0.48197412 160.92718601 C0.13306462 120.74277902 -0.09571179 80.56126393 -0.0625 40.375 C-0.06164398 39.33148376 -0.06078796 38.28796753 -0.05990601 37.21282959 C-0.04893728 24.80853041 -0.02862592 12.40427044 0 0 Z M33 110 C33 137.06 33 164.12 33 192 C49.86633855 197.18964263 67.97817222 200.58041918 84.671875 192.74609375 C96.22117008 186.32398573 102.104264 178.05177909 106.0859375 165.60546875 C109.64178821 151.57961317 108.39296649 136.04403412 102 123 C95.29818066 112.44713522 86.78280737 105.89959179 74.6875 102.75 C59.76600962 99.92006217 46.62303763 103.94531661 33 110 Z " fill="#1F447E" transform="translate(1237,130)"/>
<path d="M0 0 C10.89 0 21.78 0 33 0 C33 48.51 33 97.02 33 147 C15.6010919 152.79963603 15.6010919 152.79963603 6.8125 154.25 C5.86544189 154.41274414 4.91838379 154.57548828 3.94262695 154.74316406 C-2.6952595 155.85432697 -9.26574923 156.78564719 -16 157 C-17.24007813 157.0515625 -18.48015625 157.103125 -19.7578125 157.15625 C-44.4565369 157.86746981 -70.289591 152.85201193 -88.84375 135.33984375 C-104.24397619 118.62836642 -109.8407142 97.25005885 -109.28515625 74.8828125 C-108.36230595 62.31687823 -106.38445571 50.49403869 -101 39 C-100.58105469 38.07058594 -100.16210938 37.14117187 -99.73046875 36.18359375 C-92.39383079 21.32003039 -79.52581684 10.18601078 -63.96777344 4.65405273 C-54.63522444 1.55208018 -46.14116456 0.79434127 -36.375 0.75 C-35.26253906 0.729375 -34.15007812 0.70875 -33.00390625 0.6875 C-23.26016691 0.64212752 -13.91759918 1.97130633 -5.25 6.6875 C-4.43015625 7.12449219 -3.6103125 7.56148437 -2.765625 8.01171875 C-2.18296875 8.33785156 -1.6003125 8.66398438 -1 9 C-0.67 6.03 -0.34 3.06 0 0 Z M-57 39 C-58.299375 39.8353125 -58.299375 39.8353125 -59.625 40.6875 C-69.03624271 49.85107843 -73.47597903 61.63816383 -74.203125 74.62890625 C-74.38945081 90.26474727 -71.79076436 103.44648454 -60.859375 115.21875 C-51.48958979 124.19484676 -39.16614875 126.34033496 -26.625 126.4375 C-25.40647339 126.4526062 -25.40647339 126.4526062 -24.16333008 126.46801758 C-18.52002414 126.39028913 -13.16751451 125.5488092 -7.64599609 124.47290039 C-6.90842575 124.33177071 -6.17085541 124.19064102 -5.41093445 124.04523468 C-3.60675452 123.69960477 -1.80330067 123.35018841 0 123 C0.23186336 112.41262464 0.40946132 101.82585443 0.51812172 91.23645592 C0.57027957 86.31899632 0.64099437 81.40327524 0.75439453 76.48681641 C0.86318462 71.74043388 0.92286678 66.99572115 0.94877243 62.24818802 C0.9672279 60.43867316 1.00327184 58.62924825 1.05730057 56.82044601 C1.72218319 47.0509889 1.72218319 47.0509889 -2.12579346 38.5869751 C-4.73339155 36.97459188 -7.08646409 35.93326241 -10 35 C-10.84549408 34.67430023 -11.69098816 34.34860046 -12.56210327 34.01303101 C-27.56009372 28.35403167 -43.63513429 30.2561127 -57 39 Z " fill="#1F447E" transform="translate(2039,201)"/>
<path d="M0 0 C11.22 0 22.44 0 34 0 C33.67 48.51 33.34 97.02 33 147 C15.6010919 152.79963603 15.6010919 152.79963603 6.8125 154.25 C5.86544189 154.41274414 4.91838379 154.57548828 3.94262695 154.74316406 C-2.69375598 155.85407529 -9.26645515 156.79595319 -16 157 C-17.29808594 157.03996094 -18.59617187 157.07992187 -19.93359375 157.12109375 C-44.6188788 157.62198742 -68.30219984 152.93253982 -87.5 136.44140625 C-101.23816633 123.0252282 -108.30831031 104.00642976 -109 85 C-109.03996094 84.0203125 -109.07992187 83.040625 -109.12109375 82.03125 C-109.59224496 59.19427391 -103.82392254 37.00933834 -88 20 C-73.39637725 5.70159766 -55.91553425 0.81486516 -35.9375 0.625 C-34.30494263 0.60385132 -34.30494263 0.60385132 -32.6394043 0.58227539 C-23.06902175 0.63929781 -13.75560711 2.05944907 -5.25 6.6875 C-4.43015625 7.12449219 -3.6103125 7.56148437 -2.765625 8.01171875 C-2.18296875 8.33785156 -1.6003125 8.66398438 -1 9 C-0.67 6.03 -0.34 3.06 0 0 Z M-63.921875 45.3515625 C-73.69910849 57.81202172 -75.29843119 73.39973117 -73.72265625 88.69140625 C-71.67522094 100.8395224 -66.52522061 111.21332108 -56.68359375 118.78125 C-47.29780566 124.92796195 -37.75026604 126.24960115 -26.75 126.375 C-25.92975342 126.38901855 -25.10950684 126.40303711 -24.2644043 126.41748047 C-18.57581662 126.37466373 -13.2055109 125.5624519 -7.64160156 124.47509766 C-6.90434845 124.33380936 -6.16709534 124.19252106 -5.40750122 124.04695129 C-3.60442322 123.70096413 -1.80212866 123.35089837 0 123 C0.23186336 112.41262464 0.40946132 101.82585443 0.51812172 91.23645592 C0.57027957 86.31899632 0.64099437 81.40327524 0.75439453 76.48681641 C0.86318462 71.74043388 0.92286678 66.99572115 0.94877243 62.24818802 C0.9672279 60.43867316 1.00327184 58.62924825 1.05730057 56.82044601 C1.72218319 47.0509889 1.72218319 47.0509889 -2.12579346 38.5869751 C-4.73339155 36.97459188 -7.08646409 35.93326241 -10 35 C-10.84549408 34.67430023 -11.69098816 34.34860046 -12.56210327 34.01303101 C-30.73697667 27.15533918 -50.54412623 31.27218355 -63.921875 45.3515625 Z " fill="#1F447E" transform="translate(1050,201)"/>
<path d="M0 0 C15.41666793 12.68027045 22.68833962 30.59181487 25.46484375 50.02734375 C25.46484375 56.95734375 25.46484375 63.88734375 25.46484375 71.02734375 C-10.50515625 71.02734375 -46.47515625 71.02734375 -83.53515625 71.02734375 C-78.53289971 91.17394083 -78.53289971 91.17394083 -64.53515625 105.02734375 C-41.97510262 115.78551879 -15.92678393 111.79052221 7.07421875 104.30859375 C10.15241292 103.14540517 12.67969313 101.75053046 15.46484375 100.02734375 C16.12484375 100.02734375 16.78484375 100.02734375 17.46484375 100.02734375 C17.46484375 110.58734375 17.46484375 121.14734375 17.46484375 132.02734375 C-11.51771147 144.28919404 -44.02637174 148.1869469 -73.97705078 136.49487305 C-91.94035899 129.00751985 -105.55150546 115.43049709 -113.21484375 97.5703125 C-121.54780288 75.20938372 -121.0438861 50.24884403 -111.98046875 28.16015625 C-103.65598728 10.11628019 -91.07409271 -2.346189 -72.53515625 -9.97265625 C-48.46590348 -18.09125342 -20.39635275 -15.71426316 0 0 Z M-73.70703125 30.734375 C-76.92756305 34.77380271 -81.53515625 40.67746303 -81.53515625 46.02734375 C-58.10515625 46.02734375 -34.67515625 46.02734375 -10.53515625 46.02734375 C-11.47503146 36.62859162 -12.85000256 29.71249744 -19.53515625 23.02734375 C-37.14845477 10.58591728 -59.44167366 15.74415168 -73.70703125 30.734375 Z " fill="#1F447E" transform="translate(1781.53515625,215.97265625)"/>
<path d="M0 0 C10.56 0 21.12 0 32 0 C32 29.7 32 59.4 32 90 C60.38 90 88.76 90 118 90 C118 100.23 118 110.46 118 121 C89.62 121 61.24 121 32 121 C32 153.34 32 185.68 32 219 C21.44 219 10.88 219 0 219 C0 186.66 0 154.32 0 121 C-28.38 121 -56.76 121 -86 121 C-86 110.77 -86 100.54 -86 90 C-57.62 90 -29.24 90 0 90 C0 60.3 0 30.6 0 0 Z " fill="#1F447E" transform="translate(708,140)"/>
<path d="M0 0 C10.89 0 21.78 0 33 0 C33.0093457 2.96121826 33.01869141 5.92243652 33.02832031 8.97338867 C33.06220345 18.79624536 33.11781518 28.61889447 33.18390274 38.44158459 C33.22328294 44.39262627 33.25551778 50.34352207 33.27099609 56.29467773 C33.28622496 62.04611047 33.32078083 67.79714187 33.36830902 73.54839516 C33.38305873 75.73420012 33.3910373 77.92006241 33.39188385 80.10591698 C33.00673133 101.35664938 33.00673133 101.35664938 43 119.4140625 C46.34877377 122.06953545 49.95709371 123.67727465 54 125 C54.87398437 125.28617188 54.87398437 125.28617188 55.765625 125.578125 C66.76229525 127.65441938 78.5461605 126.72682505 88.08203125 120.6796875 C95.1927727 115.20067409 97.59327958 107.57438289 99 99 C99.27292403 95.62772798 99.31066929 92.27262226 99.31884766 88.89038086 C99.32889328 87.92346313 99.3389389 86.95654541 99.34928894 85.96032715 C99.37994051 82.79517153 99.39710568 79.63009978 99.4140625 76.46484375 C99.43278866 74.25809517 99.45236314 72.05135364 99.4727478 69.84461975 C99.52392196 64.05958222 99.56362627 58.27452151 99.60089111 52.48937988 C99.64102327 46.57684668 99.69207348 40.66440866 99.7421875 34.75195312 C99.8387725 23.1680292 99.92222277 11.58406549 100 0 C110.89 0 121.78 0 133 0 C133.06793476 13.61342915 133.12290783 27.22674462 133.15543652 40.84030533 C133.17105323 47.16248147 133.19221843 53.48453502 133.22631836 59.80664062 C133.25905433 65.91449936 133.27688302 72.02224062 133.28463173 78.13018036 C133.29014973 80.45362953 133.3009247 82.7770727 133.31719017 85.1004715 C133.43891574 103.21822016 133.12738149 120.09228185 120 134.125 C103.63907671 149.46336559 81.66165194 152.6670867 60.12060547 152.08886719 C42.18080923 151.33707283 23.45189355 145.51107952 11 132 C2.33710109 120.53644502 -0.16588927 109.71034585 -0.11352539 95.58837891 C-0.11367142 94.55362427 -0.11381744 93.51886963 -0.1139679 92.45275879 C-0.1132731 89.04400512 -0.10550097 85.63530659 -0.09765625 82.2265625 C-0.09579053 79.85859202 -0.09436735 77.49062115 -0.09336853 75.12265015 C-0.08955547 68.89856902 -0.07973551 62.67451134 -0.06866455 56.45043945 C-0.0584244 50.09586911 -0.05386533 43.74129497 -0.04882812 37.38671875 C-0.03811216 24.92446723 -0.02052515 12.46223923 0 0 Z " fill="#1F447E" transform="translate(2196,205)"/>
<path d="M0 0 C10.89 0 21.78 0 33 0 C33 94.38 33 188.76 33 286 C22.11 286 11.22 286 0 286 C0 191.62 0 97.24 0 0 Z " fill="#1F447E" transform="translate(1501,99)"/>
<path d="M0 0 C9.24 0 18.48 0 28 0 C28 24.75 28 49.5 28 75 C50.77 75 73.54 75 97 75 C97 84.24 97 93.48 97 103 C74.23 103 51.46 103 28 103 C28 127.75 28 152.5 28 178 C18.76 178 9.52 178 0 178 C0 153.25 0 128.5 0 103 C-22.77 103 -45.54 103 -69 103 C-69 93.76 -69 84.52 -69 75 C-46.23 75 -23.46 75 0 75 C0 50.25 0 25.5 0 0 Z " fill="#E8762C" transform="translate(238,158)"/>
<path d="M0 0 C7.92 0 15.84 0 24 0 C24 22.11 24 44.22 24 67 C44.46 67 64.92 67 86 67 C86 74.26 86 81.52 86 89 C65.54 89 45.08 89 24 89 C24 111.11 24 133.22 24 156 C16.08 156 8.16 156 0 156 C0 133.89 0 111.78 0 89 C-20.46 89 -40.92 89 -62 89 C-62 81.74 -62 74.48 -62 67 C-41.54 67 -21.08 67 0 67 C0 44.89 0 22.78 0 0 Z " fill="#1F447E" transform="translate(370,289)"/>
<path d="M0 0 C7.92 0 15.84 0 24 0 C24 22.11 24 44.22 24 67 C44.46 67 64.92 67 86 67 C86 74.26 86 81.52 86 89 C65.54 89 45.08 89 24 89 C24 111.11 24 133.22 24 156 C16.08 156 8.16 156 0 156 C0 133.89 0 111.78 0 89 C-20.46 89 -40.92 89 -62 89 C-62 81.74 -62 74.48 -62 67 C-41.54 67 -21.08 67 0 67 C0 44.89 0 22.78 0 0 Z " fill="#C72035" transform="translate(110,289)"/>
<path d="M0 0 C7.92 0 15.84 0 24 0 C24 22.11 24 44.22 24 67 C44.46 67 64.92 67 86 67 C86 74.26 86 81.52 86 89 C65.54 89 45.08 89 24 89 C24 111.11 24 133.22 24 156 C16.08 156 8.16 156 0 156 C0 133.89 0 111.78 0 89 C-20.46 89 -40.92 89 -62 89 C-62 81.74 -62 74.48 -62 67 C-41.54 67 -21.08 67 0 67 C0 44.89 0 22.78 0 0 Z " fill="#59879B" transform="translate(370,48)"/>
<path d="M0 0 C7.59 0 15.18 0 23 0 C23 22.11 23 44.22 23 67 C43.79 67 64.58 67 86 67 C86 73.93 86 80.86 86 88 C65.21 88 44.42 88 23 88 C23 110.44 23 132.88 23 156 C15.41 156 7.82 156 0 156 C0 133.56 0 111.12 0 88 C-20.46 88 -40.92 88 -62 88 C-62 81.07 -62 74.14 -62 67 C-41.54 67 -21.08 67 0 67 C0 44.89 0 22.78 0 0 Z " fill="#EB912C" transform="translate(110,48)"/>
<path d="M0 0 C6.93 0 13.86 0 21 0 C21 15.51 21 31.02 21 47 C34.86 47 48.72 47 63 47 C63 53.27 63 59.54 63 66 C49.14 66 35.28 66 21 66 C21 81.51 21 97.02 21 113 C14.07 113 7.14 113 0 113 C0 97.49 0 81.98 0 66 C-13.86 66 -27.72 66 -42 66 C-42 59.73 -42 53.46 -42 47 C-28.14 47 -14.28 47 0 47 C0 31.49 0 15.98 0 0 Z " fill="#5B6591" transform="translate(242,384)"/>
<path d="M0 0 C6.93 0 13.86 0 21 0 C21 15.51 21 31.02 21 47 C34.86 47 48.72 47 63 47 C63 53.27 63 59.54 63 66 C49.14 66 35.28 66 21 66 C21 81.51 21 97.02 21 113 C14.07 113 7.14 113 0 113 C0 97.49 0 81.98 0 66 C-13.86 66 -27.72 66 -42 66 C-42 59.73 -42 53.46 -42 47 C-28.14 47 -14.28 47 0 47 C0 31.49 0 15.98 0 0 Z " fill="#5B6591" transform="translate(441,191)"/>
<path d="M0 0 C5.28 0 10.56 0 16 0 C16 14.85 16 29.7 16 45 C29.86 45 43.72 45 58 45 C58 49.95 58 54.9 58 60 C54.75023622 60.17299123 51.50033438 60.33835703 48.25 60.5 C47.36828125 60.54769531 46.4865625 60.59539062 45.578125 60.64453125 C35.68952826 61.12522692 25.94612058 61 16 61 C16 75.85 16 90.7 16 106 C10.72 106 5.44 106 0 106 C0 91.15 0 76.3 0 61 C-13.53 61 -27.06 61 -41 61 C-41 55.72 -41 50.44 -41 45 C-27.47 45 -13.94 45 0 45 C0 30.15 0 15.3 0 0 Z " fill="#7099A6" transform="translate(41,194)"/>
<path d="M0 0 C5.28 0 10.56 0 16 0 C16 15.18 16 30.36 16 46 C29.86 46 43.72 46 58 46 C58 50.95 58 55.9 58 61 C44.14 61 30.28 61 16 61 C16 76.18 16 91.36 16 107 C10.72 107 5.44 107 0 107 C0 91.82 0 76.64 0 61 C-13.53 61 -27.06 61 -41 61 C-41 56.05 -41 51.1 -41 46 C-27.47 46 -13.94 46 0 46 C0 30.82 0 15.64 0 0 Z " fill="#7099A6" transform="translate(244,0)"/>
<path d="M0 0 C5.62615383 5.34484614 8.65374767 9.05193554 8.875 17 C8.8160211 23.39593425 8.12765102 27.79351008 3.5 32.375 C-1.85316841 36.36937731 -6.86508678 37.81007628 -13.5 37.375 C-20.46746298 36.00614676 -24.51081721 32.11017294 -28.5 26.375 C-30.33235757 20.8779273 -30.6772627 14.40852755 -28.55859375 8.94921875 C-22.38746815 -1.32309377 -11.17717752 -5.18940385 0 0 Z M-22.5 8.375 C-25.14539228 12.60940308 -25.8356202 16.14733311 -24.9375 21.0625 C-23.3819026 26.50709089 -21.20658247 29.39043319 -16.25 32.25 C-11.87443735 33.56266879 -8.82379767 33.90952427 -4.5 32.375 C-0.90899788 30.14294574 1.74792661 27.61755604 3.9375 24 C5.18117169 18.19619879 5.31684633 14.2020107 2.3125 9.0625 C0.04460727 5.85595167 -1.7087239 3.72300928 -5.5 2.375 C-12.9108599 1.1503775 -17.83158412 2.32669324 -22.5 8.375 Z " fill="#1F447E" transform="translate(2391.5,205.625)"/>
<path d="M0 0 C11 0 11 0 15 3 C15.33543224 6.75684104 15.19334591 9.41996227 14 13 C14.31260159 15.53076813 14.31260159 15.53076813 14.9375 18.1875 C15.22947266 19.53908203 15.22947266 19.53908203 15.52734375 20.91796875 C15.68332031 21.60503906 15.83929687 22.29210937 16 23 C14.35 23 12.7 23 11 23 C10.34 20.36 9.68 17.72 9 15 C7.35 14.67 5.7 14.34 4 14 C4 16.97 4 19.94 4 23 C2.68 23 1.36 23 0 23 C0 15.41 0 7.82 0 0 Z M4 4 C4 5.98 4 7.96 4 10 C5.98 9.67 7.96 9.34 10 9 C10 7.68 10 6.36 10 5 C8.93354885 3.70366379 8.93354885 3.70366379 6.4375 3.9375 C5.633125 3.958125 4.82875 3.97875 4 4 Z " fill="#1F447E" transform="translate(2374,212)"/>
</svg>
