<?xml version="1.0" encoding="UTF-8"?>
<svg version="1.1" xmlns="http://www.w3.org/2000/svg" width="212" height="197">
<path d="M0 0 C1.53921984 -0.01289245 3.07843503 -0.02635172 4.61764526 -0.04034424 C7.83342823 -0.06417526 11.04878353 -0.07171834 14.26464844 -0.06933594 C18.33990951 -0.06893099 22.41235821 -0.12342242 26.48695564 -0.19242477 C29.6651306 -0.23741606 32.84265391 -0.24499747 36.02111435 -0.24289703 C37.52075729 -0.24754571 39.02042732 -0.26482615 40.51974869 -0.2962265 C60.43227904 -0.67411942 75.47228291 10.21476395 89.7109375 23.39453125 C107.01652788 40.20979657 118.74598916 63.23947787 119.22265625 87.62109375 C119.23454023 89.8671655 119.24090328 92.11327218 119.2421875 94.359375 C119.25443359 95.46732422 119.26667969 96.57527344 119.27929688 97.71679688 C119.29844309 108.63652358 117.85748248 118.75388149 113.9921875 128.984375 C113.69417236 129.78399658 113.39615723 130.58361816 113.08911133 131.4074707 C110.01462174 139.31543154 106.08126627 146.82303345 101.0546875 153.671875 C100.3946875 153.671875 99.7346875 153.671875 99.0546875 153.671875 C98.7865625 154.25582031 98.5184375 154.83976563 98.2421875 155.44140625 C93.72186041 163.93188903 84.16048022 173.59340415 75.0546875 176.671875 C75.0546875 177.331875 75.0546875 177.991875 75.0546875 178.671875 C48.08999988 194.41869516 22.43385824 198.91618391 -7.9453125 191.671875 C-12.45551065 190.40162122 -16.70048 188.65010536 -20.9453125 186.671875 C-21.9559375 186.21941406 -22.9665625 185.76695312 -24.0078125 185.30078125 C-35.45588906 179.91259215 -44.77532589 172.28945278 -53.9453125 163.671875 C-54.56019531 163.13304687 -55.17507812 162.59421875 -55.80859375 162.0390625 C-62.08298117 156.29835861 -70.70282593 145.69710039 -71.11940002 137.06413269 C-71.14681561 135.47537334 -71.16847376 133.88650893 -71.18579102 132.29760742 C-71.19878738 131.43062225 -71.21178375 130.56363708 -71.22517395 129.67037964 C-71.35234098 120.56603366 -71.40873207 111.46074804 -71.46020508 102.35571289 C-71.48686568 98.04398825 -71.53547406 93.73338165 -71.60375977 89.42211914 C-71.6861524 84.2065869 -71.72845951 78.99211249 -71.74326897 73.77596474 C-71.75544795 71.79652929 -71.78131968 69.81712482 -71.82171822 67.83806419 C-72.06942919 55.05421882 -71.11528526 46.81600279 -62.9453125 36.671875 C-62.2146608 35.69538498 -61.48400909 34.71889496 -60.73121643 33.71281433 C-51.37903666 21.37482702 -39.74973607 11.62772017 -25.9453125 4.671875 C-25.28594193 4.32848083 -24.62657135 3.98508667 -23.94721985 3.63128662 C-16.15244993 0.0220911 -8.41861358 0.01674801 0 0 Z M4.3046875 56.984375 C-5.51752425 67.407475 -10.08567552 81.47766435 -9.9453125 95.671875 C-8.97015684 111.84901083 -4.37275335 124.87098741 7.58203125 136.03125 C13.53657242 141.10905009 13.53657242 141.10905009 21.0546875 142.671875 C23.44821204 141.55171245 23.44821204 141.55171245 25.4921875 139.671875 C26.26046875 139.01832031 27.02875 138.36476563 27.8203125 137.69140625 C28.55765625 137.02496094 29.295 136.35851562 30.0546875 135.671875 C30.68890625 135.11886719 31.323125 134.56585938 31.9765625 133.99609375 C41.88787743 124.80839252 46.61198878 112.49128765 47.40234375 99.12890625 C47.88615691 83.95345987 44.9167903 70.30839135 34.9296875 58.484375 C30.27681004 53.52600559 25.02655619 49.89241847 19.0546875 46.671875 C14.44840328 46.671875 7.56881907 53.91052912 4.3046875 56.984375 Z " fill="#5A5A5A" transform="translate(70.9453125,-0.671875)"/>
<path d="M0 0 C1.18998121 0.8716226 2.37681214 1.74754599 3.5625 2.625 C4.30628906 3.17542969 5.05007812 3.72585937 5.81640625 4.29296875 C7.68837757 5.75638819 9.31117784 7.27555565 11 8.9375 C15.70184596 13.10105051 21.71609897 15.1233156 27.453125 17.484375 C31 19 31 19 34 21 C19.72088139 20.70750409 7.42159539 15.7312556 -5 9 C-2.64046906 6.64046906 -1.22104383 6.50858587 2 6 C1.34 4.02 0.68 2.04 0 0 Z " fill="#A9A9A9" transform="translate(45,172)"/>
<path d="M0 0 C12.79910689 -1.95240614 23.51725599 5.29595793 33.5 12.5 C35.00951213 13.65433281 36.51366637 14.81597152 38 16 C37.34 16.66 36.68 17.32 36 18 C35.443125 17.38125 34.88625 16.7625 34.3125 16.125 C31.90403646 13.91181729 30.01236804 13.15860309 27 12 C26 11 25 10 24 9 C23.01 9 22.02 9 21 9 C21 9.99 21 10.98 21 12 C19.02 12.99 19.02 12.99 17 14 C16.443125 13.48050781 15.88625 12.96101562 15.3125 12.42578125 C10.9115914 8.40400498 6.60735219 4.88531948 1.43359375 1.91015625 C0.96050781 1.60980469 0.48742187 1.30945313 0 1 C0 0.67 0 0.34 0 0 Z " fill="#B5B5B5" transform="translate(115,0)"/>
<path d="M0 0 C2.14212139 1.71482995 2.93421501 2.58639575 3.37231445 5.34082031 C3.3693335 6.24413086 3.36635254 7.14744141 3.36328125 8.078125 C3.36263672 9.07457031 3.36199219 10.07101563 3.36132812 11.09765625 C3.34521484 12.13792969 3.32910156 13.17820312 3.3125 14.25 C3.31572266 15.27480469 3.31894531 16.29960938 3.32226562 17.35546875 C3.28233588 22.99645233 2.70155755 27.64190389 1 33 C1.33 33.66 1.66 34.32 2 35 C1.566875 35.350625 1.13375 35.70125 0.6875 36.0625 C-2.28744887 39.47818203 -3.58306956 43.74920869 -5 48 C-5.66 48 -6.32 48 -7 48 C-7.226875 48.515625 -7.45375 49.03125 -7.6875 49.5625 C-9.17829735 52.33112365 -10.96979954 54.72614776 -12.87890625 57.21875 C-14.08636499 59.13722103 -14.56808198 60.78702676 -15 63 C-15.66 62.34 -16.32 61.68 -17 61 C-19.10820797 61.3185177 -19.10820797 61.3185177 -21 62 C-21 62.99 -21 63.98 -21 65 C-23.97 64.67 -26.94 64.34 -30 64 C-29.67 63.34 -29.34 62.68 -29 62 C-28.319375 61.9175 -27.63875 61.835 -26.9375 61.75 C-18.2652916 59.53581913 -11.10865431 50.90458673 -6.4921875 43.62109375 C1.00177648 29.6428316 0.36512327 15.43628825 0 0 Z " fill="#D3D3D3" transform="translate(117,79)"/>
<path d="M0 0 C3.77021987 1.4083652 7.51204693 2.87196099 11.2421875 4.3828125 C12.27472656 4.79853516 12.27472656 4.79853516 13.328125 5.22265625 C15.00845251 5.89945483 16.68791092 6.57841053 18.3671875 7.2578125 C18.3671875 7.5878125 18.3671875 7.9178125 18.3671875 8.2578125 C8.61377145 8.05802185 0.40814075 5.60494137 -8.6328125 2.2578125 C-2.6328125 -0.7421875 -2.6328125 -0.7421875 0 0 Z " fill="#C6C6C6" transform="translate(60.6328125,184.7421875)"/>
<path d="M0 0 C1.0625 1.875 1.0625 1.875 2 4 C1.67 4.66 1.34 5.32 1 6 C0.34 6 -0.32 6 -1 6 C-1 6.66 -1 7.32 -1 8 C-2.98 8.99 -2.98 8.99 -5 10 C-5.33 9.67 -5.66 9.34 -6 9 C-6.66 9.66 -7.32 10.32 -8 11 C-10.125 10.625 -10.125 10.625 -12 10 C-12 9.34 -12 8.68 -12 8 C-9.8828125 6.5625 -9.8828125 6.5625 -7.125 5 C-3.31116621 2.83255811 -3.31116621 2.83255811 0 0 Z " fill="#313131" transform="translate(133,133)"/>
<path d="M0 0 C0 3 0 3 -2 6 C-2.63292383 8.11280345 -2.63292383 8.11280345 -3 10 C-3.66 9.34 -4.32 8.68 -5 8 C-7.10820797 8.3185177 -7.10820797 8.3185177 -9 9 C-9 9.99 -9 10.98 -9 12 C-11.97 11.67 -14.94 11.34 -18 11 C-17.67 10.34 -17.34 9.68 -17 9 C-15.33648254 8.65129015 -13.66919227 8.32044665 -12 8 C-9.62852164 6.9443776 -9.62852164 6.9443776 -7.375 5.625 C-6.61960937 5.20476562 -5.86421875 4.78453125 -5.0859375 4.3515625 C-3.10221661 3.06623024 -1.59337787 1.73546252 0 0 Z " fill="#BDBDBD" transform="translate(105,132)"/>
<path d="M0 0 C-3.2148401 4.82226016 -8.54776198 6.39945191 -14.0625 7.75 C-15.0215625 7.87375 -15.0215625 7.87375 -16 8 C-15.796875 6.140625 -15.796875 6.140625 -15 4 C-12.890625 2.734375 -12.890625 2.734375 -10.25 1.75 C-9.38890625 1.41484375 -8.5278125 1.0796875 -7.640625 0.734375 C-4.96119783 -0.01079114 -2.76544393 -0.13926696 0 0 Z " fill="#272727" transform="translate(60,0)"/>
<path d="M0 0 C2.14747687 1.71847909 2.93393449 2.59891169 3.38818359 5.35668945 C3.39156738 6.26636475 3.39495117 7.17604004 3.3984375 8.11328125 C3.40230469 9.11423828 3.40617187 10.11519531 3.41015625 11.14648438 C3.39855469 12.19126953 3.38695313 13.23605469 3.375 14.3125 C3.38660156 15.34568359 3.39820312 16.37886719 3.41015625 17.44335938 C3.38829393 23.12391908 3.12721455 27.19335541 0 32 C-1.13043711 28.60868868 -0.72698982 27.41519776 0 24 C0.07831674 22.08856637 0.10788625 20.17472879 0.09765625 18.26171875 C0.09443359 17.19501953 0.09121094 16.12832031 0.08789062 15.02929688 C0.07951172 13.92650391 0.07113281 12.82371094 0.0625 11.6875 C0.05798828 10.56537109 0.05347656 9.44324219 0.04882812 8.28710938 C0.03707313 5.5246849 0.02064077 2.76237002 0 0 Z " fill="#DCDCDC" transform="translate(117,79)"/>
<path d="M0 0 C3.68754757 0.49831724 5.60490662 1.10067643 8 4 C5.08291076 5.98362069 3.87619096 5.9876191 0.25 5.625 C-0.8225 5.41875 -1.895 5.2125 -3 5 C-2.67 4.34 -2.34 3.68 -2 3 C-1.01 3 -0.02 3 1 3 C0.67 2.01 0.34 1.02 0 0 Z " fill="#B2B2B2" transform="translate(51,180)"/>
<path d="M0 0 C0.99 0.33 1.98 0.66 3 1 C2.01 1.495 2.01 1.495 1 2 C0.34786708 4.02463255 0.34786708 4.02463255 0 6 C-2.64 6 -5.28 6 -8 6 C-7.3125 4.0625 -7.3125 4.0625 -6 2 C-3.4375 1.3125 -3.4375 1.3125 -1 1 C-0.67 0.67 -0.34 0.34 0 0 Z " fill="#161616" transform="translate(113,186)"/>
<path d="M0 0 C1.32 0.33 2.64 0.66 4 1 C1.36 3.97 -1.28 6.94 -4 10 C-4.66 9.67 -5.32 9.34 -6 9 C-5.1875 6.0625 -5.1875 6.0625 -4 3 C-3.01 2.67 -2.02 2.34 -1 2 C-0.67 1.34 -0.34 0.68 0 0 Z " fill="#C7C7C7" transform="translate(75,53)"/>
<path d="M0 0 C0.99 0.66 1.98 1.32 3 2 C3.99 1.67 4.98 1.34 6 1 C6.66 1.66 7.32 2.32 8 3 C6.73581754 3.69965443 5.46334598 4.38434763 4.1875 5.0625 C3.47980469 5.44535156 2.77210937 5.82820312 2.04296875 6.22265625 C0 7 0 7 -3 6 C-2.01 4.02 -1.02 2.04 0 0 Z " fill="#BABABA" transform="translate(116,137)"/>
<path d="M0 0 C0.66 0.66 1.32 1.32 2 2 C0.6905332 3.33631236 -0.62265485 4.66897925 -1.9375 6 C-2.66839844 6.7425 -3.39929687 7.485 -4.15234375 8.25 C-6 10 -6 10 -7 10 C-7.375 7.75 -7.375 7.75 -7 5 C-4.0625 2.75 -4.0625 2.75 -1 1 C-0.67 0.67 -0.34 0.34 0 0 Z " fill="#3A3A3A" transform="translate(45,53)"/>
<path d="M0 0 C-0.99 0.495 -0.99 0.495 -2 1 C-3.13350534 3.01669827 -3.13350534 3.01669827 -4 5 C-5.32 4.67 -6.64 4.34 -8 4 C-8 3.34 -8 2.68 -8 2 C-3.61016949 -1.20338983 -3.61016949 -1.20338983 0 0 Z " fill="#373737" transform="translate(129,139)"/>
<path d="M0 0 C0.66 0.33 1.32 0.66 2 1 C0.35 4.63 -1.3 8.26 -3 12 C-4.231394 8.30581799 -3.64432764 5.7943739 -3 2 C-2.01 2 -1.02 2 0 2 C0 1.34 0 0.68 0 0 Z " fill="#D0D0D0" transform="translate(68,63)"/>
<path d="M0 0 C1.65 0.99 3.3 1.98 5 3 C4.01 4.485 4.01 4.485 3 6 C2.01 6 1.02 6 0 6 C-1.125 2.25 -1.125 2.25 0 0 Z " fill="#171717" transform="translate(145,170)"/>
<path d="M0 0 C0 4.03223106 -1.64129026 5.80880447 -4 9 C-4.99 9.495 -4.99 9.495 -6 10 C-5.67 8.35 -5.34 6.7 -5 5 C-4.34 5 -3.68 5 -3 5 C-2.5359375 4.0409375 -2.5359375 4.0409375 -2.0625 3.0625 C-1 1 -1 1 0 0 Z " fill="#363636" transform="translate(142,124)"/>
<path d="M0 0 C1.32 0 2.64 0 4 0 C4.66 1.98 5.32 3.96 6 6 C3.08482708 4.92598892 1.22189824 4.22189824 -1 2 C-0.67 1.34 -0.34 0.68 0 0 Z " fill="#808080" transform="translate(91,44)"/>
<path d="M0 0 C1.9375 0.3125 1.9375 0.3125 4 1 C4.33 1.99 4.66 2.98 5 4 C5.66 4.33 6.32 4.66 7 5 C6.01 6.485 6.01 6.485 5 8 C0 2.25 0 2.25 0 0 Z " fill="#9E9E9E" transform="translate(8,151)"/>
<path d="M0 0 C0.66 0 1.32 0 2 0 C2.33 1.98 2.66 3.96 3 6 C2.01 6.33 1.02 6.66 0 7 C-0.93423645 3.98968256 -1.04449911 3.13349732 0 0 Z " fill="#2F2F2F" transform="translate(178,132)"/>
<path d="M0 0 C2.64 0 5.28 0 8 0 C8.33 0.99 8.66 1.98 9 3 C6.03 2.67 3.06 2.34 0 2 C0 1.34 0 0.68 0 0 Z " fill="#ADADAD" transform="translate(87,141)"/>
<path d="M0 0 C2.99332739 0.9977758 3.94766315 1.7522025 6 4 C3.36 4 0.72 4 -2 4 C-1.34 2.68 -0.68 1.36 0 0 Z " fill="#2B2B2B" transform="translate(107,188)"/>
<path d="M0 0 C0.66 0 1.32 0 2 0 C2 1.32 2 2.64 2 4 C-0.5 6.25 -0.5 6.25 -3 8 C-1.125 2.25 -1.125 2.25 0 0 Z " fill="#C8C8C8" transform="translate(117,109)"/>
<path d="M0 0 C1.32 0.99 2.64 1.98 4 3 C3.67 3.99 3.34 4.98 3 6 C1.68 5.34 0.36 4.68 -1 4 C-0.67 2.68 -0.34 1.36 0 0 Z " fill="#8F8F8F" transform="translate(163,26)"/>
<path d="M0 0 C1.65 0 3.3 0 5 0 C3 3 3 3 0 4 C0 2.68 0 1.36 0 0 Z " fill="#171717" transform="translate(55,0)"/>
</svg>
