<?xml version="1.0" encoding="UTF-8"?>
<svg version="1.1" xmlns="http://www.w3.org/2000/svg" width="504" height="495">
<path d="M0 0 C3.81936528 1.55603771 6.26044438 3.95604931 9 7 C9 7.66 9 8.32 9 9 C9.57492188 9.25394531 10.14984375 9.50789063 10.7421875 9.76953125 C13.25548423 11.13923449 15.03998699 12.72943428 17.125 14.6875 C21.81580815 18.92829566 26.74075912 22.50126772 32 26 C33.01578125 26.69996094 34.0315625 27.39992188 35.078125 28.12109375 C79.42182287 58.18584454 134.63382849 65.82618666 187 65 C188.20027832 64.98114746 188.20027832 64.98114746 189.42480469 64.96191406 C225.43904787 64.17585708 262.8928858 55.51377712 295 39 C296.15218018 38.4124292 296.15218018 38.4124292 297.32763672 37.81298828 C308.8943859 31.85546366 319.30021641 25.17083908 329.49609375 17.10107422 C331 16 331 16 333.375 14.84765625 C335.37069437 14.0460354 335.37069437 14.0460354 336 11 C337.9375 8.8125 337.9375 8.8125 340 7 C340.66 7 341.32 7 342 7 C342 6.34 342 5.68 342 5 C342.66 5 343.32 5 344 5 C344.66 3.68 345.32 2.36 346 1 C347.32 1 348.64 1 350 1 C349.42341742 6.48627065 347.48802129 10.84338597 345.125 15.75 C344.52824463 16.99366333 344.52824463 16.99366333 343.91943359 18.26245117 C332.31984282 41.93018982 315.78046776 64.50224513 295 81 C294.34 81 293.68 81 293 81 C293 81.66 293 82.32 293 83 C291.5390625 84.2890625 291.5390625 84.2890625 289.625 85.625 C288.99851562 86.07101562 288.37203125 86.51703125 287.7265625 86.9765625 C286 88 286 88 284 88 C284 88.66 284 89.32 284 90 C282.6015625 91.10986328 282.6015625 91.10986328 280.625 92.3203125 C279.89514893 92.76930908 279.16529785 93.21830566 278.41333008 93.6809082 C277.21873169 94.39573364 277.21873169 94.39573364 276 95.125 C275.18490967 95.61637451 274.36981934 96.10774902 273.5300293 96.61401367 C254.08236393 108.19211479 234.07787173 116.01492171 212 121 C211.20062012 121.18224121 210.40124023 121.36448242 209.57763672 121.55224609 C165.33166962 131.1212577 114.38199138 121.28731035 76.31518555 97.24511719 C58.05655105 85.31855963 38.24544836 70.40926465 26 52 C26 51.34 26 50.68 26 50 C25.34 50 24.68 50 24 50 C22.79833984 48.49389648 22.79833984 48.49389648 21.4609375 46.37109375 C20.9666626 45.59056641 20.4723877 44.81003906 19.96313477 44.00585938 C19.43905029 43.15830078 18.91496582 42.31074219 18.375 41.4375 C17.83738037 40.57576172 17.29976074 39.71402344 16.74584961 38.82617188 C12.14847907 31.38457792 7.91807641 23.81809717 4 16 C3.46117188 14.94554687 2.92234375 13.89109375 2.3671875 12.8046875 C-1.42446614 5.03490546 -1.42446614 5.03490546 0 0 Z " fill="#F37727" transform="translate(117,308)"/>
<path d="M0 0 C1.01500832 -0.00642014 1.01500832 -0.00642014 2.05052185 -0.01296997 C4.22385386 -0.02290132 6.39696225 -0.023034 8.5703125 -0.01953125 C9.31340668 -0.01859467 10.05650085 -0.01765808 10.82211304 -0.01669312 C55.04077901 0.10448335 95.34529196 15.55229638 129.6953125 43.16796875 C131.11263672 44.23917969 131.11263672 44.23917969 132.55859375 45.33203125 C133.26371094 45.93789062 133.96882813 46.54375 134.6953125 47.16796875 C134.6953125 47.82796875 134.6953125 48.48796875 134.6953125 49.16796875 C135.26894531 49.41675781 135.84257812 49.66554687 136.43359375 49.921875 C144.72723048 54.49125344 150.95879768 63.84793682 156.6953125 71.16796875 C157.4378125 72.10511719 158.1803125 73.04226562 158.9453125 74.0078125 C167.22378362 84.71521004 173.84031112 96.04938744 179.6953125 108.23046875 C180.08138672 109.02783447 180.46746094 109.8252002 180.86523438 110.64672852 C182.82217738 114.82558036 184.21938517 118.52024089 184.6953125 123.16796875 C180.6953125 123.16796875 180.6953125 123.16796875 179.0625 121.671875 C178.32386719 120.71087891 178.32386719 120.71087891 177.5703125 119.73046875 C175.50659769 117.0022659 175.50659769 117.0022659 172.6953125 115.16796875 C172.6953125 114.50796875 172.6953125 113.84796875 172.6953125 113.16796875 C172.13457031 112.92046875 171.57382812 112.67296875 170.99609375 112.41796875 C168.29777616 110.95198975 166.21148412 109.17112713 163.8828125 107.16796875 C137.787208 85.5775815 105.57428947 72.60688306 72.67919922 65.59277344 C70.83868464 65.19866867 69.00305897 64.78191756 67.16796875 64.36328125 C36.30860264 57.86304561 3.90524204 57.52202782 -27.3046875 61.16796875 C-28.6357251 61.32072266 -28.6357251 61.32072266 -29.99365234 61.4765625 C-76.48137908 66.99277692 -125.32115135 84.23490672 -158.04296875 119.015625 C-159.3046875 120.16796875 -159.3046875 120.16796875 -161.3046875 120.16796875 C-161.9646875 121.48796875 -162.6246875 122.80796875 -163.3046875 124.16796875 C-164.2946875 123.83796875 -165.2846875 123.50796875 -166.3046875 123.16796875 C-163.06666598 100.63488752 -144.76075672 78.42107566 -130.53515625 61.671875 C-129.96563232 61.00099854 -129.3961084 60.33012207 -128.80932617 59.63891602 C-127.3046875 58.16796875 -127.3046875 58.16796875 -125.3046875 58.16796875 C-125.0778125 57.61109375 -124.8509375 57.05421875 -124.6171875 56.48046875 C-122.92918714 53.50637287 -120.83792233 51.4478801 -118.3046875 49.16796875 C-117.6446875 49.16796875 -116.9846875 49.16796875 -116.3046875 49.16796875 C-116.3046875 48.50796875 -116.3046875 47.84796875 -116.3046875 47.16796875 C-114.32294029 45.40912993 -112.33918993 43.78023834 -110.2421875 42.16796875 C-109.29098022 41.43320313 -109.29098022 41.43320313 -108.32055664 40.68359375 C-80.17406897 19.18852726 -49.36145432 5.98452312 -14.3046875 1.16796875 C-13.21357666 0.99450928 -12.12246582 0.8210498 -10.99829102 0.64233398 C-7.29248499 0.1664016 -3.73482793 0.02261027 0 0 Z " fill="#F37627" transform="translate(282.3046875,60.83203125)"/>
<path d="M0 0 C7.50153272 6.13622308 12.81679697 13.51631828 14.6875 23.1875 C15.69618616 36.16813341 13.42635112 45.44102841 5.2734375 55.60546875 C3.6875 57.1875 3.6875 57.1875 1.6875 57.1875 C1.6875 57.8475 1.6875 58.5075 1.6875 59.1875 C-6.44845878 65.68214822 -15.88402892 67.72968901 -26.12890625 67.4375 C-35.57635832 66.35585969 -44.15260903 61.32000533 -50.3125 54.1875 C-57.11326773 45.46100467 -60.56616389 36.33117905 -59.3125 25.1875 C-57.93581705 17.84519092 -54.85391799 11.13308902 -50.3125 5.1875 C-49.6525 5.1875 -48.9925 5.1875 -48.3125 5.1875 C-47.9825 4.1975 -47.6525 3.2075 -47.3125 2.1875 C-33.01555225 -8.91860647 -15.15964824 -10.68912816 0 0 Z " fill="#9E9E9E" transform="translate(175.3125,424.8125)"/>
<path d="M0 0 C0.63292969 0.40992188 1.26585937 0.81984375 1.91796875 1.2421875 C2.54058594 1.63148437 3.16320312 2.02078125 3.8046875 2.421875 C9.52950646 6.61924769 12.72511934 12.59390201 14.91796875 19.2421875 C16.31511423 28.90488829 14.81934519 37.37500123 9.40625 45.515625 C8.91511719 46.08539063 8.42398438 46.65515625 7.91796875 47.2421875 C7.25796875 47.2421875 6.59796875 47.2421875 5.91796875 47.2421875 C5.91796875 47.9021875 5.91796875 48.5621875 5.91796875 49.2421875 C-1.82896318 55.52022065 -10.3408234 57.06888124 -20.08203125 56.2421875 C-28.05926796 55.02509666 -33.87209082 50.24612721 -39.08203125 44.2421875 C-39.08203125 43.2521875 -39.08203125 42.2621875 -39.08203125 41.2421875 C-39.74203125 41.2421875 -40.40203125 41.2421875 -41.08203125 41.2421875 C-44.5874861 31.24746803 -45.81515494 22.10034957 -41.08203125 12.2421875 C-31.71753903 -1.31064301 -15.63012039 -8.50419309 0 0 Z " fill="#787878" transform="translate(442.08203125,24.7578125)"/>
<path d="M0 0 C3.647985 1.88412412 6.29109278 4.20522407 9 7.3125 C9.49371094 7.77785156 9.98742187 8.24320313 10.49609375 8.72265625 C16.8284132 15.41682252 16.60975052 24.82021784 16.54003906 33.4765625 C16.22012754 42.73750636 14.03792113 50.26095664 7.8125 57.3125 C1.73381167 62.71870871 -6.8641996 65.6972051 -15 65.3125 C-20.2458685 64.18777206 -24.43767485 62.08604723 -29 59.3125 C-29.02505615 60.15546631 -29.0501123 60.99843262 -29.07592773 61.86694336 C-29.17088155 64.98491674 -29.27012448 68.10271503 -29.37231445 71.22045898 C-29.41571223 72.57164147 -29.4573837 73.92288053 -29.49731445 75.27416992 C-29.55489952 77.21286701 -29.61914298 79.15136276 -29.68359375 81.08984375 C-29.73858032 82.84155884 -29.73858032 82.84155884 -29.79467773 84.62866211 C-30 87.3125 -30 87.3125 -31 88.3125 C-32.99799572 88.41123816 -34.99957158 88.44221799 -37 88.4375 C-38.093125 88.44007813 -39.18625 88.44265625 -40.3125 88.4453125 C-43 88.3125 -43 88.3125 -44 87.3125 C-44.13044006 84.64085591 -44.19667762 81.99367949 -44.22119141 79.3203125 C-44.2326973 78.4829657 -44.24420319 77.6456189 -44.25605774 76.78289795 C-44.29289079 74.00113659 -44.32244513 71.21935208 -44.3515625 68.4375 C-44.37466251 66.51318013 -44.39805268 64.58886373 -44.42172241 62.66455078 C-44.47024728 58.62600611 -44.51517033 54.58744111 -44.55761719 50.54882812 C-44.61245448 45.35973456 -44.67627338 40.17079744 -44.74279213 34.98184204 C-44.79275285 31.00663062 -44.8379263 27.03137597 -44.88163376 23.05609131 C-44.90326968 21.14221448 -44.92642726 19.22835426 -44.9510994 17.31451416 C-44.98480918 14.64459777 -45.01208447 11.97469304 -45.03759766 9.3046875 C-45.04897263 8.50569031 -45.0603476 7.70669312 -45.07206726 6.88348389 C-45.08642597 5.02638939 -45.04891808 3.16900563 -45 1.3125 C-44 0.3125 -44 0.3125 -41.05859375 0.21484375 C-39.26615234 0.23224609 -39.26615234 0.23224609 -37.4375 0.25 C-35.64119141 0.26353516 -35.64119141 0.26353516 -33.80859375 0.27734375 C-32.88175781 0.28894531 -31.95492187 0.30054688 -31 0.3125 C-31 2.2925 -31 4.2725 -31 6.3125 C-30.34 6.3125 -29.68 6.3125 -29 6.3125 C-28.67 5.3225 -28.34 4.3325 -28 3.3125 C-19.66432118 -2.47616585 -9.52337472 -3.94676771 0 0 Z M-24.8203125 14.99609375 C-29.82330894 20.61540134 -30.21584228 25.16946813 -30.3125 32.625 C-30.34150391 33.35912109 -30.37050781 34.09324219 -30.40039062 34.84960938 C-30.47448945 41.27340758 -28.51171304 45.00160553 -24.625 50.125 C-20.07524062 53.44982416 -15.54858741 53.64350719 -10.17578125 52.83984375 C-6.00070149 51.82793034 -3.14645881 50.06893369 -0.78125 46.4453125 C3.4624175 38.41265617 3.24405333 31.20019634 2 22.3125 C0.22899946 17.09270893 -2.55329635 14.51412662 -7 11.3125 C-13.874321 7.95527347 -19.35138348 9.9379212 -24.8203125 14.99609375 Z " fill="#575757" transform="translate(255,215.6875)"/>
<path d="M0 0 C6.19273997 4.91737738 9.57818234 10.9006869 11.08984375 18.7109375 C11.29043843 23.0520121 11.36023629 27.37208053 11.08984375 31.7109375 C10.08984375 32.7109375 10.08984375 32.7109375 6.12084961 32.82446289 C4.34878768 32.8243037 2.57672115 32.81860535 0.8046875 32.80859375 C-0.12613144 32.8071788 -1.05695038 32.80576385 -2.01597595 32.80430603 C-5.00156816 32.79868922 -7.98708654 32.7861339 -10.97265625 32.7734375 C-12.99153538 32.76842466 -15.01041568 32.76386138 -17.02929688 32.75976562 C-21.98961197 32.74871433 -26.94987157 32.73143845 -31.91015625 32.7109375 C-31.31257923 34.31855165 -30.70358513 35.92192476 -30.08984375 37.5234375 C-29.75194824 38.41675781 -29.41405273 39.31007813 -29.06591797 40.23046875 C-26.90330152 44.87182555 -23.71233846 46.86991914 -19.09765625 49.0234375 C-12.45647334 50.4558495 -6.48495916 49.86170548 0.046875 48.1484375 C2.08984375 47.7109375 2.08984375 47.7109375 6.08984375 47.7109375 C7.28271786 51.58777837 8.08984375 54.62715673 8.08984375 58.7109375 C-2.6220125 63.35469303 -15.40156134 64.47283815 -26.5234375 60.75390625 C-34.55964295 57.24217654 -40.93382619 50.8856369 -44.28833008 42.77368164 C-45.46574967 38.86790301 -45.39571023 34.94870154 -45.34765625 30.8984375 C-45.34008301 30.0105957 -45.33250977 29.12275391 -45.32470703 28.20800781 C-45.1608293 21.69835357 -44.38743006 16.33720971 -40.91015625 10.7109375 C-40.47445313 9.98777344 -40.03875 9.26460937 -39.58984375 8.51953125 C-35.43913436 2.36151159 -30.38318512 -0.93844016 -23.53515625 -3.6015625 C-14.99800588 -5.22067723 -7.34861444 -4.95918766 0 0 Z M-27.91015625 11.7109375 C-30.22786915 15.49653524 -30.91015625 17.225136 -30.91015625 21.7109375 C-21.34015625 21.7109375 -11.77015625 21.7109375 -1.91015625 21.7109375 C-1.91015625 15.48646535 -2.22890974 14.31249563 -5.91015625 9.7109375 C-9.98738682 5.93006951 -13.63698413 6.15337381 -18.9921875 6.296875 C-23.50753519 6.93760707 -24.96894487 8.24181638 -27.91015625 11.7109375 Z " fill="#585858" transform="translate(433.91015625,218.2890625)"/>
<path d="M0 0 C4.95 0 9.9 0 15 0 C15.49628906 1.36769531 15.99257813 2.73539063 16.50390625 4.14453125 C20.96931195 16.44208169 25.46525683 28.7278513 30 41 C33.55659448 33.11569099 36.28715073 25.14999976 38.82519531 16.89404297 C40.60858267 11.12884225 42.63202727 5.55562833 45 0 C49.62 0 54.24 0 59 0 C58.15652257 5.06086456 56.92050485 9.38181928 55.125 14.125 C54.67459351 15.32999146 54.67459351 15.32999146 54.21508789 16.55932617 C49.62278655 28.76257276 44.83398594 40.89085554 40 53 C39.68111816 53.80501953 39.36223633 54.61003906 39.03369141 55.43945312 C33.70801105 68.81499529 26.71729849 83.16394455 12.8984375 89.390625 C10.21220017 90.25287402 7.78855085 90.27885508 5 90 C2.39353942 82.9951372 2.39353942 82.9951372 3 79 C5.16015625 77.296875 5.16015625 77.296875 8.0625 75.75 C14.13768138 72.15976378 19.58442618 67.68586654 21.69726562 60.69189453 C22.0664634 57.40901174 21.40474433 55.73223715 20.0859375 52.71875 C19.65708252 51.71851807 19.22822754 50.71828613 18.78637695 49.68774414 C18.32062256 48.63578857 17.85486816 47.58383301 17.375 46.5 C16.43756314 44.32214746 15.50135221 42.14376679 14.56640625 39.96484375 C13.89182373 38.40612549 13.89182373 38.40612549 13.20361328 36.81591797 C11.41949763 32.64188349 9.81908801 28.4146162 8.2265625 24.1640625 C7.23918245 21.61699931 6.21136088 19.10170089 5.1484375 16.5859375 C4.82447998 15.81628662 4.50052246 15.04663574 4.16674805 14.25366211 C3.52850443 12.74405921 2.88441099 11.23691211 2.23364258 9.73266602 C0.74556928 6.20754159 0 3.88465394 0 0 Z " fill="#575757" transform="translate(277,216)"/>
<path d="M0 0 C0.78761719 -0.00257813 1.57523438 -0.00515625 2.38671875 -0.0078125 C4.3125 0.125 4.3125 0.125 5.3125 1.125 C5.4065067 3.08869153 5.42993381 5.05579199 5.42602539 7.02172852 C5.42594986 8.28296036 5.42587433 9.5441922 5.42579651 10.84364319 C5.4206891 12.23039794 5.41547309 13.61715229 5.41015625 15.00390625 C5.40829201 16.41495209 5.40686814 17.82599857 5.40586853 19.23704529 C5.40204379 22.95740535 5.3922139 26.6777266 5.38116455 30.39807129 C5.37094948 34.19180781 5.36637071 37.98555058 5.36132812 41.77929688 C5.35059158 49.22788436 5.33299515 56.6764318 5.3125 64.125 C1.3525 64.125 -2.6075 64.125 -6.6875 64.125 C-7.0175 62.475 -7.3475 60.825 -7.6875 59.125 C-8.21859375 59.47433594 -8.7496875 59.82367188 -9.296875 60.18359375 C-10.35648438 60.86615234 -10.35648438 60.86615234 -11.4375 61.5625 C-12.13359375 62.01496094 -12.8296875 62.46742188 -13.546875 62.93359375 C-19.73444389 66.37740491 -28.09310233 66.01608425 -34.8828125 64.69921875 C-39.79628309 62.90348847 -42.94322701 59.41007581 -45.6875 55.125 C-48.51883997 48.31585721 -49.10453097 41.82136207 -48.98046875 34.5234375 C-48.97622391 33.560961 -48.97197906 32.5984845 -48.96760559 31.60684204 C-48.95098275 28.57092796 -48.91336256 25.53570912 -48.875 22.5 C-48.85993193 20.42579092 -48.84624727 18.35157131 -48.83398438 16.27734375 C-48.80113319 11.2262998 -48.74946676 6.17576725 -48.6875 1.125 C-44.0675 1.125 -39.4475 1.125 -34.6875 1.125 C-34.6781543 2.39617676 -34.66880859 3.66735352 -34.65917969 4.97705078 C-34.6192135 9.70738362 -34.55343586 14.43707062 -34.47998047 19.16699219 C-34.45180934 21.21150395 -34.43057565 23.25612384 -34.41650391 25.30078125 C-34.39502113 28.24535322 -34.3483431 31.18863041 -34.296875 34.1328125 C-34.29564636 35.0424173 -34.29441772 35.95202209 -34.29315186 36.88919067 C-34.16266819 42.58295687 -33.39860061 45.74440676 -29.6875 50.125 C-26.09352533 52.63225901 -23.14026597 52.31283758 -18.9453125 51.73828125 C-15.2076764 50.72304099 -13.34708735 48.91756672 -10.6875 46.125 C-9.78433675 43.41551025 -9.540925 41.72364666 -9.48217773 38.92895508 C-9.4522599 37.66798759 -9.4522599 37.66798759 -9.42173767 36.38154602 C-9.39666893 35.02672371 -9.39666893 35.02672371 -9.37109375 33.64453125 C-9.35031265 32.71654221 -9.32953156 31.78855316 -9.30812073 30.83244324 C-9.24272677 27.8675376 -9.18378738 24.90254328 -9.125 21.9375 C-9.08180513 19.9277252 -9.03819053 17.91795937 -8.99414062 15.90820312 C-8.88705573 10.98055968 -8.78575955 6.05282701 -8.6875 1.125 C-5.70393971 0.3340443 -3.09407188 -0.01022834 0 0 Z " fill="#545454" transform="translate(187.6875,214.875)"/>
<path d="M0 0 C0 5.94 0 11.88 0 18 C4.89153471 17.9604321 4.89153471 17.9604321 9.78295898 17.90991211 C11.52221717 17.90275087 13.26145304 17.94975298 15 18 C16.89885096 19.89885096 16.12367506 22.57247903 16.1328125 25.08984375 C16 27 16 27 15 29 C10.05 29 5.1 29 0 29 C0.12009281 33.89314314 0.24283236 38.7860721 0.37231445 43.67895508 C0.41553784 45.34232681 0.45722146 47.00573932 0.49731445 48.66918945 C0.55532332 51.06474068 0.61892829 53.46008908 0.68359375 55.85546875 C0.70030624 56.5952446 0.71701874 57.33502045 0.73423767 58.09721375 C0.84276117 61.90786542 1.24584642 65.22923208 2 69 C6.29 69.33 10.58 69.66 15 70 C15 73.63 15 77.26 15 81 C8.9950435 83.00165217 1.03654552 83.08340951 -5 81 C-9.80399143 77.79733905 -12.1963998 73.41080061 -14 68 C-14.085409 65.05035887 -14.11582927 62.12496981 -14.09765625 59.17578125 C-14.0962413 58.31438034 -14.09482635 57.45297943 -14.09336853 56.56547546 C-14.0877714 53.81444831 -14.07521946 51.06350256 -14.0625 48.3125 C-14.05748463 46.4472668 -14.05292179 44.58203233 -14.04882812 42.71679688 C-14.03780292 38.14449989 -14.02054027 33.57226375 -14 29 C-15.299375 29.020625 -16.59875 29.04125 -17.9375 29.0625 C-19.29165633 29.08399454 -20.64756083 29.07148199 -22 29 C-23 28 -23 28 -23.09765625 25.71484375 C-23.08605469 24.79832031 -23.07445312 23.88179687 -23.0625 22.9375 C-23.05347656 22.01839844 -23.04445313 21.09929687 -23.03515625 20.15234375 C-23.02355469 19.44207031 -23.01195312 18.73179687 -23 18 C-20.03 18 -17.06 18 -14 18 C-14.01160156 17.01257813 -14.02320313 16.02515625 -14.03515625 15.0078125 C-14.04417969 13.72648438 -14.05320312 12.44515625 -14.0625 11.125 C-14.07410156 9.84882813 -14.08570313 8.57265625 -14.09765625 7.2578125 C-14 4 -14 4 -13 2 C-11.07421875 1.3671875 -11.07421875 1.3671875 -8.6875 0.875 C-7.90761719 0.70742187 -7.12773437 0.53984375 -6.32421875 0.3671875 C-4 0 -4 0 0 0 Z " fill="#565656" transform="translate(366,198)"/>
<path d="M0 0 C5.86845756 5.2529593 7.49498221 10.26300882 8 17.99609375 C7.86963974 23.8704528 6.28913013 28.21826959 2.5 32.6875 C1.654375 33.38875 0.80875 34.09 -0.0625 34.8125 C-0.7225 35.369375 -1.3825 35.92625 -2.0625 36.5 C-7.50258634 40.07005666 -12.67201343 40.60156923 -19.0625 39.8125 C-25.13514231 37.86208537 -30.00287355 34.33750003 -33.25390625 28.7734375 C-36.18247036 22.83467682 -37.2194909 17.98489842 -35.4375 11.55859375 C-32.67687312 4.27497551 -27.84686596 -0.44086956 -20.8125 -3.6875 C-13.11498822 -4.7138349 -6.44425053 -4.75171491 0 0 Z " fill="#656766" transform="translate(139.0625,70.1875)"/>
<path d="M0 0 C1.093125 0.00257813 2.18625 0.00515625 3.3125 0.0078125 C4.405625 0.00523437 5.49875 0.00265625 6.625 0 C9.3125 0.1328125 9.3125 0.1328125 10.3125 1.1328125 C10.4277632 3.20140755 10.47219858 5.27397156 10.48950195 7.34570312 C10.49607315 7.99463531 10.50264435 8.6435675 10.50941467 9.31216431 C10.52920507 11.47113148 10.54082877 13.63002859 10.55078125 15.7890625 C10.55485678 16.52712631 10.5589323 17.26519012 10.56313133 18.02561951 C10.58402604 21.93927737 10.59830753 25.85289992 10.60766602 29.76660156 C10.61868007 33.7937018 10.653011 37.82024172 10.69283772 41.84714508 C10.71911254 44.9545996 10.72736788 48.06192357 10.73094749 51.16947937 C10.73579305 52.65251915 10.74734865 54.1355539 10.76598549 55.6184845 C10.86387 63.93030886 10.56322968 70.79553059 6.3125 78.1328125 C5.920625 79.0403125 5.52875 79.9478125 5.125 80.8828125 C0.74264272 86.32298016 -6.00661275 88.54202071 -12.64453125 89.96875 C-14.95709367 90.15446247 -16.53261214 90.00224665 -18.6875 89.1328125 C-19.8452506 85.65956069 -19.75616652 82.77213802 -19.6875 79.1328125 C-19.08421875 78.95105469 -18.4809375 78.76929688 -17.859375 78.58203125 C-11.6695712 76.86726992 -11.6695712 76.86726992 -6.6875 73.1328125 C-4.17610514 65.6694197 -4.35671339 58.19025831 -4.30859375 50.38671875 C-4.29239596 48.9656411 -4.27521361 47.54457436 -4.25709534 46.1235199 C-4.21168413 42.40700305 -4.17672277 38.69047127 -4.14489746 34.97381592 C-4.09273902 29.00103408 -4.02800445 23.02841082 -3.95668221 17.05583 C-3.93382307 14.97014196 -3.91757934 12.88447456 -3.90196228 10.79872131 C-3.88847244 9.54329025 -3.8749826 8.28785919 -3.86108398 6.99438477 C-3.85157211 5.88378189 -3.84206024 4.77317902 -3.83226013 3.62892151 C-3.63076671 0.15455644 -3.49586033 0.17276054 0 0 Z " fill="#545454" transform="translate(110.6875,214.8671875)"/>
<path d="M0 0 C1.26237731 2.52475462 1.09856404 4.31200466 1.0625 7.125 C1.05347656 8.03507813 1.04445313 8.94515625 1.03515625 9.8828125 C1.02355469 10.58148438 1.01195312 11.28015625 1 12 C-0.010625 12.268125 -1.02125 12.53625 -2.0625 12.8125 C-10.31274619 15.05256249 -10.31274619 15.05256249 -16 21 C-16.88698563 23.66095688 -17.14061184 25.264022 -17.18945312 27.99658203 C-17.20617065 28.79395782 -17.22288818 29.59133362 -17.2401123 30.41287231 C-17.25368774 31.26920258 -17.26726318 32.12553284 -17.28125 33.0078125 C-17.29965942 33.88903778 -17.31806885 34.77026306 -17.33703613 35.67819214 C-17.41577833 39.45184111 -17.48365404 43.22566669 -17.55224609 46.99951172 C-17.6038297 49.75237243 -17.66111817 52.50507287 -17.71875 55.2578125 C-17.73232544 56.11819122 -17.74590088 56.97856995 -17.7598877 57.86502075 C-17.88715199 63.88715199 -17.88715199 63.88715199 -19 65 C-23.29 65 -27.58 65 -32 65 C-32 44.21 -32 23.42 -32 2 C-28.04 2 -24.08 2 -20 2 C-19 5 -19 5 -20 8 C-19.34 8 -18.68 8 -18 8 C-18 7.34 -18 6.68 -18 6 C-17.34 6 -16.68 6 -16 6 C-16 5.34 -16 4.68 -16 4 C-10.4174808 0.67424388 -6.50313209 -0.46450943 0 0 Z " fill="#575757" transform="translate(491,214)"/>
<path d="M0 0 C2.73069614 -0.05625468 5.46076924 -0.09371854 8.19189453 -0.12109375 C9.39011841 -0.14079224 9.39011841 -0.14079224 10.61254883 -0.16088867 C15.4735223 -0.16767118 19.37581797 0.6760762 24.06689453 2.06640625 C27.32683921 2.54386939 30.59806875 2.83885824 33.87939453 3.12890625 C35.57372879 3.28293664 37.2677622 3.44032466 38.96142578 3.6015625 C39.70239502 3.66738525 40.44336426 3.73320801 41.20678711 3.80102539 C43.06689453 4.06640625 43.06689453 4.06640625 45.06689453 5.06640625 C47.41642937 5.4120115 49.77180761 5.71835268 52.12939453 6.00390625 C57.86877402 6.723306 63.44841412 7.6864286 69.06689453 9.06640625 C69.06689453 9.72640625 69.06689453 10.38640625 69.06689453 11.06640625 C70.71689453 11.06640625 72.36689453 11.06640625 74.06689453 11.06640625 C74.06689453 11.72640625 74.06689453 12.38640625 74.06689453 13.06640625 C63.38621674 11.34697895 63.38621674 11.34697895 58.79736328 10.37109375 C27.78463816 3.87449201 -4.55341056 3.40063335 -35.93310547 7.06640625 C-37.26414307 7.21916016 -37.26414307 7.21916016 -38.62207031 7.375 C-67.0504995 10.74830564 -94.01164682 18.85478729 -119.8671875 31.10400391 C-122.859517 32.49797258 -125.89079579 33.7856464 -128.93310547 35.06640625 C-128.93310547 34.07640625 -128.93310547 33.08640625 -128.93310547 32.06640625 C-123.57205154 27.84787201 -117.3256122 25.27472676 -110.93310547 23.06640625 C-110.60310547 22.73640625 -110.27310547 22.40640625 -109.93310547 22.06640625 C-108.50998047 21.94265625 -108.50998047 21.94265625 -107.05810547 21.81640625 C-103.70502389 21.37610261 -101.04942967 20.32060606 -97.99560547 18.87890625 C-86.60759902 13.51160813 -75.51525979 9.59531504 -63.06591797 7.609375 C-60.03987625 7.23975094 -60.03987625 7.23975094 -57.93310547 6.06640625 C-55.60011887 6.02618234 -53.26603881 6.02320378 -50.93310547 6.06640625 C-50.93310547 5.40640625 -50.93310547 4.74640625 -50.93310547 4.06640625 C-33.93499896 1.49357595 -17.17357461 0.38881407 0 0 Z " fill="#E47F42" transform="translate(290.93310546875,114.93359375)"/>
<path d="M0 0 C0.495 1.485 0.495 1.485 1 3 C0.01 3.33 -0.98 3.66 -2 4 C-2.69881224 5.31677017 -3.3600131 6.65365718 -4 8 C-5.24906941 9.53565243 -6.54469698 11.03415667 -7.875 12.5 C-8.89207031 13.62921875 -8.89207031 13.62921875 -9.9296875 14.78125 C-11.27155192 16.21932357 -12.63900591 17.63409992 -14.03515625 19.01953125 C-16.63358209 21.63862051 -18.95635077 24.45985092 -21.31640625 27.29296875 C-23 29 -23 29 -26 30 C-27.20882096 32.00016466 -27.20882096 32.00016466 -28 34 C-28.66 34 -29.32 34 -30 34 C-30.226875 34.53625 -30.45375 35.0725 -30.6875 35.625 C-32 38 -32 38 -34.4375 40.6875 C-37.58901595 44.31454055 -38.75076984 48.42964575 -40 53 C-40.66 53 -41.32 53 -42 53 C-42.33 54.65 -42.66 56.3 -43 58 C-41.68 57.34 -40.36 56.68 -39 56 C-39 57.65 -39 59.3 -39 61 C-35.99574776 60.3900332 -33.8652977 59.44620949 -31.3203125 57.75 C-30.63839844 57.3065625 -29.95648438 56.863125 -29.25390625 56.40625 C-27.84007007 55.47233986 -26.42858418 54.53486142 -25.01953125 53.59375 C-21.00107648 50.99045726 -17.89872329 49.36855598 -13 49 C-15.90406436 51.2595214 -18.93364592 53.26812373 -22.02539062 55.26049805 C-31.890384 61.6553616 -40.95375251 68.76700773 -49.1875 77.1875 C-50.115625 78.115625 -51.04375 79.04375 -52 80 C-52.66 80 -53.32 80 -54 80 C-54.66 81.32 -55.32 82.64 -56 84 C-56.99 83.67 -57.98 83.34 -59 83 C-55.76197848 60.46691877 -37.45606922 38.25310691 -23.23046875 21.50390625 C-22.66094482 20.83302979 -22.0914209 20.16215332 -21.50463867 19.47094727 C-20 18 -20 18 -18 18 C-17.773125 17.443125 -17.54625 16.88625 -17.3125 16.3125 C-15.62449964 13.33840412 -13.53323483 11.27991135 -11 9 C-10.34 9 -9.68 9 -9 9 C-9 8.34 -9 7.68 -9 7 C-7.03125 5.2734375 -7.03125 5.2734375 -4.5 3.375 C-3.6646875 2.74335937 -2.829375 2.11171875 -1.96875 1.4609375 C-1.3190625 0.97882813 -0.669375 0.49671875 0 0 Z " fill="#EC7B32" transform="translate(175,101)"/>
<path d="M0 0 C0.99 0.33 1.98 0.66 3 1 C2.42339347 6.48649846 0.48764705 10.84304124 -1.875 15.75 C-2.27066162 16.5762085 -2.66632324 17.40241699 -3.07397461 18.25366211 C-9.31992202 31.01585506 -16.60920458 43.29072614 -26 54 C-26.33 53.34 -26.66 52.68 -27 52 C-26.67 51.01 -26.34 50.02 -26 49 C-25.34 49 -24.68 49 -24 49 C-23.896875 48.443125 -23.79375 47.88625 -23.6875 47.3125 C-22.85821592 44.5230899 -21.65700944 42.3860936 -20 40 C-19.34 40 -18.68 40 -18 40 C-18 39.34 -18 38.68 -18 38 C-17.34 38 -16.68 38 -16 38 C-15.90203125 36.96359375 -15.8040625 35.9271875 -15.703125 34.859375 C-15.5529998 33.48948259 -15.40190713 32.11969596 -15.25 30.75 C-15.188125 30.06808594 -15.12625 29.38617188 -15.0625 28.68359375 C-14.65576686 25.19246765 -14.20114451 23.24046599 -11.921875 20.515625 C-11.28765625 20.01546875 -10.6534375 19.5153125 -10 19 C-12.37948772 19.17625835 -13.70225849 19.69719773 -15.37890625 21.40234375 C-16.62115486 22.90649092 -17.81376056 24.45129851 -19 26 C-19.66 25.67 -20.32 25.34 -21 25 C-27.89716744 26.78815452 -32.53041434 30.52455848 -37.97265625 35.0390625 C-41.40742828 37.26390838 -43.95577273 37.70715957 -48 38 C-46.61166413 35.22332826 -44.87176894 34.73257176 -42.125 33.3125 C-32.71230402 28.27780215 -24.31967215 22.68792485 -16.21484375 15.72265625 C-14 14 -14 14 -12 14 C-11.67 13.01 -11.34 12.02 -11 11 C-9.0625 8.8125 -9.0625 8.8125 -7 7 C-6.34 7 -5.68 7 -5 7 C-5 6.34 -5 5.68 -5 5 C-4.34 5 -3.68 5 -3 5 C-2.690625 4.360625 -2.38125 3.72125 -2.0625 3.0625 C-1 1 -1 1 0 0 Z " fill="#E2864A" transform="translate(464,308)"/>
<path d="M0 0 C2.58359973 0.60304401 5.166876 1.20742411 7.75 1.8125 C8.46027344 1.97814453 9.17054688 2.14378906 9.90234375 2.31445312 C10.63066406 2.48525391 11.35898438 2.65605469 12.109375 2.83203125 C13.27859497 3.10611816 13.27859497 3.10611816 14.47143555 3.38574219 C16.23813958 3.81492316 17.99978338 4.26523962 19.75708008 4.73144531 C27.51108317 6.7726855 35.24277922 8.07061454 43.1875 9.125 C44.46979492 9.29676758 45.75208984 9.46853516 47.07324219 9.64550781 C64.73488594 11.94648088 82.20615193 12.28073543 100 12 C100.80018555 11.98743164 101.60037109 11.97486328 102.42480469 11.96191406 C113.9504388 11.71035234 125.23014279 10.08474004 136.60864258 8.28417969 C137.7664624 8.10532227 138.92428223 7.92646484 140.1171875 7.7421875 C141.15472168 7.5757373 142.19225586 7.40928711 143.26123047 7.23779297 C145.84824264 7.01317629 147.55983887 7.18320661 150 8 C143.2407129 9.83633811 136.45193126 11.37458271 129.5625 12.625 C128.58132202 12.80929565 128.58132202 12.80929565 127.58032227 12.99731445 C114.8235704 15.2412285 101.91070509 15.18637696 89.00170898 15.18530273 C86.09929349 15.18747249 83.19726971 15.205643 80.29492188 15.22460938 C70.46629935 15.25468733 60.72778487 14.97087681 50.93359375 14.11328125 C50.02376236 14.03554977 49.11393097 13.9578183 48.17652893 13.87773132 C43.49794771 13.42320591 39.43965108 12.62844024 35 11 C32.54859141 10.72178875 30.08820235 10.51442655 27.625 10.375 C26.37976563 10.30023438 25.13453125 10.22546875 23.8515625 10.1484375 C22.91054687 10.09945313 21.96953125 10.05046875 21 10 C20.67 9.01 20.34 8.02 20 7 C18.865625 6.896875 17.73125 6.79375 16.5625 6.6875 C11.7984152 6.10258567 7.49401964 4.63096571 3 3 C2.01 2.67 1.02 2.34 0 2 C0 1.34 0 0.68 0 0 Z " fill="#DFA57D" transform="translate(204,361)"/>
<path d="M0 0 C3.81936528 1.55603771 6.26044438 3.95604931 9 7 C9 7.66 9 8.32 9 9 C9.57234375 9.25523437 10.1446875 9.51046875 10.734375 9.7734375 C13.24173733 11.13087159 15.1330456 12.71974104 17.25 14.625 C17.95640625 15.25664062 18.6628125 15.88828125 19.390625 16.5390625 C19.92171875 17.02117187 20.4528125 17.50328125 21 18 C20.67 18.66 20.34 19.32 20 20 C17.03 19.01 14.06 18.02 11 17 C10.67 17.66 10.34 18.32 10 19 C10.66 19 11.32 19 12 19 C12.268125 19.886875 12.53625 20.77375 12.8125 21.6875 C13.86347437 24.97013357 13.86347437 24.97013357 15.5625 27.5625 C17.08414146 30.14267465 17.55874155 32.05827698 18 35 C18.38567131 37.68149993 18.38567131 37.68149993 19 40 C19.66 40.33 20.32 40.66 21 41 C20.01 41 19.02 41 18 41 C16.29075741 38.59039988 14.82319063 36.25022263 13.375 33.6875 C12.72664185 32.55779785 12.72664185 32.55779785 12.06518555 31.40527344 C8.79542881 25.61377851 5.73215512 19.72509459 2.8125 13.75 C2.21477783 12.55443481 2.21477783 12.55443481 1.60498047 11.3347168 C-1.06139137 5.71470545 -1.06139137 5.71470545 -0.73828125 1.953125 C-0.49464844 1.30859375 -0.25101562 0.6640625 0 0 Z " fill="#E67C37" transform="translate(117,308)"/>
<path d="M0 0 C-11.53753572 7.69169048 -31.36185965 6.40217355 -44.9375 6.375 C-45.6859317 6.3764502 -46.4343634 6.37790039 -47.20547485 6.37939453 C-61.09393618 6.37644562 -74.38788092 4.87335117 -88 2 C-88 1.67 -88 1.34 -88 1 C-77.44 1 -66.88 1 -56 1 C-56 1.66 -56 2.32 -56 3 C-55.29383545 2.83556396 -54.5876709 2.67112793 -53.86010742 2.50170898 C-50.90309396 1.98300112 -48.23763056 1.91824684 -45.23828125 1.97265625 C-43.57188599 1.99295898 -43.57188599 1.99295898 -41.87182617 2.01367188 C-40.69724854 2.02978516 -39.5226709 2.04589844 -38.3125 2.0625 C-28.60140838 2.14050596 -19.19086827 1.76430174 -9.57421875 0.4375 C-6.33524503 0.04103546 -3.25790449 -0.08081624 0 0 Z " fill="#E97B35" transform="translate(337,426)"/>
<path d="M0 0 C-3.20336822 2.83374881 -5.78087253 3.5205537 -10 4 C-10 4.66 -10 5.32 -10 6 C-14.42775393 8.95183596 -19.01644857 8.80467085 -24.23828125 9.33984375 C-28.06125344 10.01074957 -30.5721164 11.24588769 -34 13 C-36.54506522 13.61842706 -39.11029538 14.15828235 -41.6875 14.625 C-46.90147101 15.56755787 -46.90147101 15.56755787 -52 17 C-52 16.34 -52 15.68 -52 15 C-52.57105469 15.13277344 -53.14210938 15.26554687 -53.73046875 15.40234375 C-67.42917631 18.38600501 -81.55020321 18.32344021 -95.51196289 18.66748047 C-97.63455267 18.7226381 -99.7569705 18.78485003 -101.87915039 18.85400391 C-104.98562507 18.9549769 -108.09201901 19.03445475 -111.19921875 19.109375 C-112.60272835 19.16070587 -112.60272835 19.16070587 -114.03459167 19.21307373 C-120.51105042 19.3357855 -125.91345548 18.19655031 -132 16 C-128.73163341 14.91054447 -126.64180726 15.25581131 -123.29067993 15.73110962 C-119.2173476 16.20925581 -115.13980717 16.16280809 -111.04296875 16.16796875 C-110.10052811 16.17129715 -109.15808746 16.17462555 -108.18708801 16.17805481 C-106.1961007 16.18309664 -104.20510502 16.18546399 -102.21411133 16.18530273 C-99.23438723 16.18746596 -96.25504825 16.2055866 -93.27539062 16.22460938 C-76.69292877 16.27460978 -60.62384752 14.90184799 -44.3125 11.875 C-43.30123047 11.69324219 -42.28996094 11.51148438 -41.24804688 11.32421875 C-38.83085351 10.88889483 -36.41494242 10.44760972 -34 10 C-34 9.34 -34 8.68 -34 8 C-33.35039307 7.83395264 -32.70078613 7.66790527 -32.03149414 7.49682617 C-29.04096373 6.73038478 -26.05173578 5.95897452 -23.0625 5.1875 C-22.04091797 4.92646484 -21.01933594 4.66542969 -19.96679688 4.39648438 C-14.45762163 2.97078727 -9.076641 1.42920687 -3.73999023 -0.5534668 C-2 -1 -2 -1 0 0 Z " fill="#EA7B35" transform="translate(388,359)"/>
<path d="M0 0 C0 0.33 0 0.66 0 1 C-1.27230469 1.15855469 -2.54460937 1.31710938 -3.85546875 1.48046875 C-31.92706216 5.13330742 -58.33837856 12.91148047 -83.93408203 25.03759766 C-86.92641153 26.43156633 -89.95769032 27.71924015 -93 29 C-93 28.01 -93 27.02 -93 26 C-87.63894607 21.78146576 -81.39250673 19.20832051 -75 17 C-74.67 16.67 -74.34 16.34 -74 16 C-72.576875 15.87625 -72.576875 15.87625 -71.125 15.75 C-67.77191842 15.30969636 -65.1163242 14.25419981 -62.0625 12.8125 C-49.65934426 6.96675037 -37.57840399 2.96916248 -24 1 C-23.09765625 0.86851563 -22.1953125 0.73703125 -21.265625 0.6015625 C-14.20284514 -0.25243376 -7.10259123 -0.09210853 0 0 Z " fill="#E0884F" transform="translate(255,121)"/>
<path d="M0 0 C0.495 1.485 0.495 1.485 1 3 C0.01 3.33 -0.98 3.66 -2 4 C-2.69881224 5.31677017 -3.3600131 6.65365718 -4 8 C-5.24906941 9.53565243 -6.54469698 11.03415667 -7.875 12.5 C-8.89207031 13.62921875 -8.89207031 13.62921875 -9.9296875 14.78125 C-11.27155192 16.21932357 -12.63900591 17.63409992 -14.03515625 19.01953125 C-16.63358209 21.63862051 -18.95635077 24.45985092 -21.31640625 27.29296875 C-23 29 -23 29 -26 30 C-27.20882096 32.00016466 -27.20882096 32.00016466 -28 34 C-28.66 34 -29.32 34 -30 34 C-30.226875 34.53625 -30.45375 35.0725 -30.6875 35.625 C-32 38 -32 38 -34.4375 40.8125 C-36.43832693 43.12249261 -37.26116909 44.62027658 -38.5 47.5625 C-40.12307146 51.28203877 -41.99548708 53.32029928 -45 56 C-45.66 55.67 -46.32 55.34 -47 55 C-41.11122021 44.61829933 -34.6327682 35.17414275 -27 26 C-26.27941406 25.12472656 -25.55882812 24.24945313 -24.81640625 23.34765625 C-21.43306907 19.34533015 -21.43306907 19.34533015 -20 18 C-19.34 18 -18.68 18 -18 18 C-17.773125 17.443125 -17.54625 16.88625 -17.3125 16.3125 C-15.62449964 13.33840412 -13.53323483 11.27991135 -11 9 C-10.34 9 -9.68 9 -9 9 C-9 8.34 -9 7.68 -9 7 C-7.03125 5.2734375 -7.03125 5.2734375 -4.5 3.375 C-3.6646875 2.74335937 -2.829375 2.11171875 -1.96875 1.4609375 C-1.3190625 0.97882813 -0.669375 0.49671875 0 0 Z " fill="#E6884B" transform="translate(175,101)"/>
<path d="M0 0 C1.01500832 -0.00642014 1.01500832 -0.00642014 2.05052185 -0.01296997 C4.22385386 -0.02290132 6.39696225 -0.023034 8.5703125 -0.01953125 C9.31340668 -0.01859467 10.05650085 -0.01765808 10.82211304 -0.01669312 C37.22442208 0.05565955 60.11286628 5.70802853 84.6953125 15.16796875 C83.7053125 15.82796875 82.7153125 16.48796875 81.6953125 17.16796875 C79.1640625 16.375 79.1640625 16.375 76.1953125 14.98046875 C68.09206298 11.39426642 60.64122461 8.81013227 51.6953125 9.16796875 C50.01973871 8.8827647 48.34714005 8.56841179 46.6953125 8.16796875 C46.6953125 7.50796875 46.6953125 6.84796875 46.6953125 6.16796875 C45.98503906 6.17957031 45.27476562 6.19117187 44.54296875 6.203125 C43.62386719 6.21214844 42.70476562 6.22117187 41.7578125 6.23046875 C40.84128906 6.24207031 39.92476563 6.25367187 38.98046875 6.265625 C36.6953125 6.16796875 36.6953125 6.16796875 35.6953125 5.16796875 C29.15975924 3.41704605 22.70617869 2.84843051 15.96875 2.75390625 C15.09505768 2.7345401 14.22136536 2.71517395 13.32119751 2.69522095 C10.5709972 2.63614611 7.82075337 2.58933263 5.0703125 2.54296875 C3.18878532 2.50472237 1.3072744 2.46566694 -0.57421875 2.42578125 C-5.15090726 2.33050542 -9.72767744 2.24621368 -14.3046875 2.16796875 C-14.3046875 1.83796875 -14.3046875 1.50796875 -14.3046875 1.16796875 C-9.49559265 0.39448606 -4.86912421 0.02947719 0 0 Z " fill="#DC9264" transform="translate(282.3046875,60.83203125)"/>
<path d="M0 0 C7.80412143 -0.39020607 7.80412143 -0.39020607 12 3 C13.68651418 3.95621676 15.39613717 4.87266662 17.125 5.75 C17.99382812 6.19859375 18.86265625 6.6471875 19.7578125 7.109375 C20.49773437 7.40328125 21.23765625 7.6971875 22 8 C22.66 7.67 23.32 7.34 24 7 C24.33 7.66 24.66 8.32 25 9 C27.02463255 9.65213292 27.02463255 9.65213292 29 10 C29 10.66 29 11.32 29 12 C29.598125 12.0825 30.19625 12.165 30.8125 12.25 C33.62219534 13.21332412 34.27912517 14.63379711 36 17 C38.08334635 18.2516467 38.08334635 18.2516467 40 19 C40 19.66 40 20.32 40 21 C40.56460938 21.10699219 41.12921875 21.21398437 41.7109375 21.32421875 C44.37679223 22.1112373 46.30766742 23.28182046 48.625 24.8125 C49.78902344 25.56466797 49.78902344 25.56466797 50.9765625 26.33203125 C53.10496451 28.0865248 53.97799409 29.46696384 55 32 C55.66 32 56.32 32 57 32 C57.66 33.65 58.32 35.3 59 37 C58.34 37 57.68 37 57 37 C57 36.34 57 35.68 57 35 C56.43925781 34.7525 55.87851562 34.505 55.30078125 34.25 C52.60246366 32.784021 50.51617162 31.00315838 48.1875 29 C33.71283837 17.02428394 17.5049798 7.78032737 0 1 C0 0.67 0 0.34 0 0 Z " fill="#E09D6F" transform="translate(398,139)"/>
<path d="M0 0 C-1 7.42857143 -1 7.42857143 -2 11 C-2.66 11 -3.32 11 -4 11 C-4.06960938 12.94326172 -4.06960938 12.94326172 -4.140625 14.92578125 C-4.78895856 20.71657874 -7.41607797 24.53191602 -10.75 29.1875 C-11.2759375 29.95513672 -11.801875 30.72277344 -12.34375 31.51367188 C-15.3584036 35.86775696 -18.54470577 39.98801948 -22 44 C-22.33 43.34 -22.66 42.68 -23 42 C-22.67 41.01 -22.34 40.02 -22 39 C-21.34 39 -20.68 39 -20 39 C-19.8453125 38.1646875 -19.8453125 38.1646875 -19.6875 37.3125 C-18.85821592 34.5230899 -17.65700944 32.3860936 -16 30 C-15.34 30 -14.68 30 -14 30 C-14 29.34 -14 28.68 -14 28 C-13.34 28 -12.68 28 -12 28 C-11.90203125 26.96359375 -11.8040625 25.9271875 -11.703125 24.859375 C-11.5529998 23.48948259 -11.40190713 22.11969596 -11.25 20.75 C-11.188125 20.06808594 -11.12625 19.38617188 -11.0625 18.68359375 C-10.65576686 15.19246765 -10.20114451 13.24046599 -7.921875 10.515625 C-6.97054688 9.76539063 -6.97054688 9.76539063 -6 9 C-6.99 8.34 -7.98 7.68 -9 7 C-7.88121617 5.82737096 -6.75476949 4.66204862 -5.625 3.5 C-4.99851562 2.8503125 -4.37203125 2.200625 -3.7265625 1.53125 C-2 0 -2 0 0 0 Z " fill="#EC7930" transform="translate(460,318)"/>
<path d="M0 0 C3.375 0.25 3.375 0.25 7 1 C7.69937532 2.31647119 8.36729133 3.65022151 9 5 C9.886875 5.144375 10.77375 5.28875 11.6875 5.4375 C15.01468651 6.00249393 15.81033987 6.4357719 18.3125 8.4375 C22.21969959 11.46864587 26.18122334 12.26789561 31 13 C31 13.66 31 14.32 31 15 C31.86625 14.938125 32.7325 14.87625 33.625 14.8125 C37.44199033 15.02455502 39.71077536 16.12044307 43 18 C43 18.99 43 19.98 43 21 C43.556875 21.03738281 44.11375 21.07476562 44.6875 21.11328125 C50.28265653 21.59529642 54.86126058 22.7059199 60 25 C60.495 25.99 60.495 25.99 61 27 C39.36298388 23.80765336 18.23092018 12.64815219 0 1 C0 0.67 0 0.34 0 0 Z " fill="#E08B50" transform="translate(187,400)"/>
<path d="M0 0 C-6.7592871 1.83633811 -13.54806874 3.37458271 -20.4375 4.625 C-21.09161865 4.74786377 -21.7457373 4.87072754 -22.41967773 4.99731445 C-35.44641262 7.28871854 -48.58813343 7.15807864 -61.76733398 7.13037109 C-64.82345469 7.12498068 -67.87943045 7.1303605 -70.93554688 7.13671875 C-72.90104199 7.13605839 -74.86653701 7.13477811 -76.83203125 7.1328125 C-77.73427933 7.13483673 -78.6365274 7.13686096 -79.56611633 7.13894653 C-84.80021935 7.11972552 -89.81962092 6.75707739 -95 6 C-95 5.67 -95 5.34 -95 5 C-93.74340576 5.00523682 -92.48681152 5.01047363 -91.19213867 5.01586914 C-86.53491934 5.03395417 -81.87770312 5.04544487 -77.22045898 5.05493164 C-75.20385211 5.05996382 -73.1872489 5.06679014 -71.1706543 5.07543945 C-68.27391661 5.08755373 -65.37722712 5.09323943 -62.48046875 5.09765625 C-61.57725388 5.10281754 -60.674039 5.10797882 -59.74345398 5.11329651 C-58.90280899 5.11337204 -58.062164 5.11344757 -57.19604492 5.11352539 C-56.08684944 5.11685631 -56.08684944 5.11685631 -54.95524597 5.12025452 C-52.78368342 5.07089116 -52.78368342 5.07089116 -50 4 C-48.25283484 3.90538817 -46.5051487 3.81613155 -44.75634766 3.75927734 C-34.17940423 3.41322556 -23.84174705 1.93984478 -13.39672852 0.28393555 C-12.23713623 0.10515869 -11.07754395 -0.07361816 -9.8828125 -0.2578125 C-8.84527832 -0.4242627 -7.80774414 -0.59071289 -6.73876953 -0.76220703 C-4.15175736 -0.98682371 -2.44016113 -0.81679339 0 0 Z " fill="#DC8650" transform="translate(354,369)"/>
<path d="M0 0 C0.33 0 0.66 0 1 0 C1.41733821 6.05140408 1.10415132 9.17158669 -3 14 C-3.66 14 -4.32 14 -5 14 C-4.67 14.99 -4.34 15.98 -4 17 C-2.906875 16.319375 -1.81375 15.63875 -0.6875 14.9375 C1.17578125 13.77734375 1.17578125 13.77734375 3 13 C3.99 13.33 4.98 13.66 6 14 C4.38113585 15.67262717 2.7547271 17.33795537 1.125 19 C0.22007813 19.928125 -0.68484375 20.85625 -1.6171875 21.8125 C-4 24 -4 24 -6 24 C-6.66 25.32 -7.32 26.64 -8 28 C-8.99 27.67 -9.98 27.34 -11 27 C-10.33238042 21.91582015 -8.16828541 17.55531968 -6.0625 12.9375 C-5.70220703 12.13505859 -5.34191406 11.33261719 -4.97070312 10.50585938 C-3.37683845 6.96883002 -1.75168826 3.46209748 0 0 Z " fill="#E29F70" transform="translate(127,157)"/>
<path d="M0 0 C0 0.99 0 1.98 0 3 C-12.45643673 6.06116451 -12.45643673 6.06116451 -17.6875 6.4375 C-22.87399085 6.909858 -27.25404943 8.96703311 -32 11 C-43.44639376 15.60038986 -43.44639376 15.60038986 -49 15 C-39.38862706 5.38862706 -13.24495669 0 0 0 Z " fill="#DD9E70" transform="translate(263,63)"/>
<path d="M0 0 C0.80163574 0.04310303 1.60327148 0.08620605 2.42919922 0.13061523 C8.23564282 0.49282141 8.23564282 0.49282141 10.5 1.625 C12.84953484 1.97060525 15.20491308 2.27694643 17.5625 2.5625 C23.30187949 3.28189975 28.88151958 4.24502235 34.5 5.625 C34.5 6.285 34.5 6.945 34.5 7.625 C36.15 7.625 37.8 7.625 39.5 7.625 C39.5 8.285 39.5 8.945 39.5 9.625 C28.81932221 7.9055727 28.81932221 7.9055727 24.23046875 6.9296875 C9.83008929 3.91306997 -4.8641679 2.91128781 -19.5 1.625 C-19.5 1.295 -19.5 0.965 -19.5 0.625 C-12.90678358 -0.3320798 -6.63070998 -0.36837278 0 0 Z " fill="#DB9C69" transform="translate(325.5,118.375)"/>
<path d="M0 0 C0.625 1.8125 0.625 1.8125 1 4 C0.01 5.485 0.01 5.485 -1 7 C-1.66 7 -2.32 7 -3 7 C-3.33 8.65 -3.66 10.3 -4 12 C-4.99 12.33 -5.98 12.66 -7 13 C-7.68620031 14.32338632 -8.34786461 15.65949948 -9 17 C-9.804375 17.928125 -10.60875 18.85625 -11.4375 19.8125 C-13.43832693 22.12249261 -14.26116909 23.62027658 -15.5 26.5625 C-17.12307146 30.28203877 -18.99548708 32.32029928 -22 35 C-22.66 34.67 -23.32 34.34 -24 34 C-18.10563659 23.60845562 -11.57398967 14.23191812 -4 5 C-2.66475184 3.334867 -1.33068375 1.66878288 0 0 Z " fill="#E19E70" transform="translate(152,122)"/>
<path d="M0 0 C3.4406307 1.26305437 6.25493702 2.70757298 9.21484375 4.86328125 C10.36823242 5.69956055 10.36823242 5.69956055 11.54492188 6.55273438 C12.33447266 7.13345703 13.12402344 7.71417969 13.9375 8.3125 C15.11602539 9.16618164 15.11602539 9.16618164 16.31835938 10.03710938 C20.67985226 13.21607197 24.89901071 16.49144897 29 20 C28.67 20.66 28.34 21.32 28 22 C24.6875 21.3125 24.6875 21.3125 21 20 C19.95107762 18.36368108 18.95093297 16.69514137 18 15 C16.03247172 13.93753473 14.03412421 12.92862192 12 12 C11.67 11.34 11.34 10.68 11 10 C9.53956387 9.37124081 8.05624555 8.79491838 6.5625 8.25 C2.20355505 6.4233945 2.20355505 6.4233945 0.4375 2.75 C0.293125 1.8425 0.14875 0.935 0 0 Z " fill="#DF9463" transform="translate(388,88)"/>
<path d="M0 0 C-4.625 3 -4.625 3 -8 3 C-8 3.99 -8 4.98 -8 6 C-6.88625 5.690625 -6.88625 5.690625 -5.75 5.375 C-2.67669159 4.95591249 -1.57213134 5.38050989 1 7 C1 8.65 1 10.3 1 12 C-2.3 12.33 -5.6 12.66 -9 13 C-11.10814567 8.78370866 -11.17700355 6.60209225 -11 2 C-9.54494642 1.47007308 -8.08581873 0.9513211 -6.625 0.4375 C-5.81289062 0.14746094 -5.00078125 -0.14257812 -4.1640625 -0.44140625 C-2 -1 -2 -1 0 0 Z " fill="#5A5A5A" transform="translate(102,292)"/>
<path d="M0 0 C2.0625 0.4375 2.0625 0.4375 4 1 C-4.82723629 5.56313846 -13.50700373 9.96751508 -23 13 C-23.8971875 13.29777344 -24.794375 13.59554688 -25.71875 13.90234375 C-29.98747097 15.26456794 -33.48469763 16.15955132 -38 16 C-34.94627964 13.42274665 -32.2945829 12.30432132 -28.4375 11.3125 C-27.01244141 10.93544922 -27.01244141 10.93544922 -25.55859375 10.55078125 C-23 10 -23 10 -20 10 C-20 9.34 -20 8.68 -20 8 C-15.545 7.505 -15.545 7.505 -11 7 C-11 6.34 -11 5.68 -11 5 C-11.66 4.67 -12.32 4.34 -13 4 C-10.29350731 2.30844207 -7.9338867 1.7849434 -4.8125 1.4375 C-1.21809061 1.42538466 -1.21809061 1.42538466 0 0 Z " fill="#DEA17A" transform="translate(375,410)"/>
<path d="M0 0 C0.66 0.33 1.32 0.66 2 1 C-1.20336822 3.83374881 -3.78087253 4.5205537 -8 5 C-8 5.66 -8 6.32 -8 7 C-14.6374128 11.42494186 -24.27736921 10.11760351 -32 10 C-28.83521014 8.27465021 -25.71793107 7.261315 -22.24609375 6.30859375 C-20.59383789 5.85129883 -20.59383789 5.85129883 -18.90820312 5.38476562 C-17.76287109 5.07216797 -16.61753906 4.75957031 -15.4375 4.4375 C-13.16520974 3.81175994 -10.8930673 3.18548276 -8.62109375 2.55859375 C-7.6148999 2.28329834 -6.60870605 2.00800293 -5.57202148 1.72436523 C-3.70057728 1.19730544 -1.84447442 0.61482481 0 0 Z " fill="#E29868" transform="translate(386,358)"/>
<path d="M0 0 C0 0.66 0 1.32 0 2 C-0.66 2 -1.32 2 -2 2 C-2.24105469 2.62003906 -2.48210937 3.24007812 -2.73046875 3.87890625 C-4.30867083 6.51571772 -5.46306012 6.89829252 -8.3125 7.9375 C-12.48267704 9.63497591 -14.96432327 11.61738879 -18 15 C-20.64998264 17.47901602 -21.55219888 17.97416532 -25.25 18.1875 C-26.61125 18.0946875 -26.61125 18.0946875 -28 18 C-23.71214154 13.22588955 -18.75468007 10.09651013 -13.3125 6.75 C-12.44560547 6.20859375 -11.57871094 5.6671875 -10.68554688 5.109375 C-2.47861328 0 -2.47861328 0 0 0 Z " fill="#E49C6D" transform="translate(204,83)"/>
<path d="M0 0 C5.32701872 1.19857921 8.31422885 3.78529403 12.16796875 7.44140625 C14.0211153 9.2147432 14.0211153 9.2147432 17 10 C18.6875 11.375 18.6875 11.375 20 13 C20 13.99 20 14.98 20 16 C21.423125 16.433125 21.423125 16.433125 22.875 16.875 C26 18 26 18 28 20 C27.01 20.33 26.02 20.66 25 21 C22.6909111 19.64796769 20.63608319 18.27792513 18.5 16.6875 C17.88431152 16.23834229 17.26862305 15.78918457 16.63427734 15.32641602 C10.74369875 10.95370651 5.16389633 6.21658915 0 1 C0 0.67 0 0.34 0 0 Z " fill="#DD8857" transform="translate(161,379)"/>
<path d="M0 0 C0.99 0.33 1.98 0.66 3 1 C2.4671171 6.91015579 0.015992 11.63114491 -2.5625 16.875 C-2.98724609 17.75414062 -3.41199219 18.63328125 -3.84960938 19.5390625 C-4.89296559 21.69611356 -5.94321884 23.84950288 -7 26 C-7.33 26 -7.66 26 -8 26 C-8 24.35 -8 22.7 -8 21 C-7.34 21 -6.68 21 -6 21 C-5.8453125 19.7315625 -5.8453125 19.7315625 -5.6875 18.4375 C-4.9171146 14.58557299 -3.63725486 11.55924969 -2 8 C-3.65 8.33 -5.3 8.66 -7 9 C-7 8.34 -7 7.68 -7 7 C-6.34 7 -5.68 7 -5 7 C-5 6.34 -5 5.68 -5 5 C-4.34 5 -3.68 5 -3 5 C-2.690625 4.360625 -2.38125 3.72125 -2.0625 3.0625 C-1 1 -1 1 0 0 Z " fill="#DCA57E" transform="translate(464,308)"/>
<path d="M0 0 C0 0.33 0 0.66 0 1 C-13.2 1.66 -26.4 2.32 -40 3 C-40.33 2.34 -40.66 1.68 -41 1 C-27.26198688 -1.04608706 -13.83568121 -1.97652589 0 0 Z " fill="#DF996D" transform="translate(297,118)"/>
<path d="M0 0 C6.37203593 -0.0505963 12.7440203 -0.08568957 19.11621094 -0.10986328 C21.28517594 -0.11993789 23.45412731 -0.13359798 25.62304688 -0.15087891 C28.73571126 -0.17506323 31.84819651 -0.18646832 34.9609375 -0.1953125 C35.934935 -0.20563507 36.9089325 -0.21595764 37.91244507 -0.22659302 C39.26361923 -0.22681961 39.26361923 -0.22681961 40.64208984 -0.22705078 C41.43706879 -0.231492 42.23204773 -0.23593323 43.05111694 -0.24050903 C45 0 45 0 47 2 C45.82981323 1.99214478 45.82981323 1.99214478 44.63598633 1.98413086 C41.02816608 1.96306991 37.42035884 1.95024862 33.8125 1.9375 C32.58595703 1.92912109 31.35941406 1.92074219 30.09570312 1.91210938 C19.31310369 1.88365924 8.68222246 2.5338126 -2 4 C-1.34 3.67 -0.68 3.34 0 3 C0 2.01 0 1.02 0 0 Z " fill="#E37E3C" transform="translate(263,63)"/>
<path d="M0 0 C3.81936528 1.55603771 6.26044438 3.95604931 9 7 C9 7.66 9 8.32 9 9 C10.32 9.66 11.64 10.32 13 11 C11.25 11.6875 11.25 11.6875 9 12 C6.75 10.5625 6.75 10.5625 5 9 C5 11.31 5 13.62 5 16 C-1.14814815 6.77777778 -1.14814815 6.77777778 -0.75 2 C-0.5025 1.34 -0.255 0.68 0 0 Z " fill="#DC9B64" transform="translate(117,308)"/>
<path d="M0 0 C-1.76955744 0.46323493 -3.54074512 0.92024208 -5.3125 1.375 C-6.79169922 1.75785156 -6.79169922 1.75785156 -8.30078125 2.1484375 C-18.08670647 4.40116368 -27.12633726 5.26601899 -37.1875 5.125 C-38.42564453 5.11597656 -39.66378906 5.10695313 -40.93945312 5.09765625 C-43.95984511 5.07433276 -46.97981399 5.04160477 -50 5 C-50 4.67 -50 4.34 -50 4 C-49.02546875 3.97421875 -48.0509375 3.9484375 -47.046875 3.921875 C-35.69651318 3.50351669 -24.61374075 2.0619762 -13.39746094 0.28417969 C-12.23762695 0.10532227 -11.07779297 -0.07353516 -9.8828125 -0.2578125 C-8.84527832 -0.4242627 -7.80774414 -0.59071289 -6.73876953 -0.76220703 C-4.15175736 -0.98682371 -2.44016113 -0.81679339 0 0 Z " fill="#DFAC88" transform="translate(354,369)"/>
<path d="M0 0 C0.62003906 0.3403125 1.24007812 0.680625 1.87890625 1.03125 C7.53267322 4.12559699 13.19773961 7.19898862 18.875 10.25 C19.5047876 10.59095703 20.1345752 10.93191406 20.78344727 11.28320312 C24.12380798 13.07279326 27.44801485 14.6764466 31 16 C30.67 16.66 30.34 17.32 30 18 C25.23595379 16.62093399 21.05334336 14.55945974 16.671875 12.2890625 C13.22172951 10.62451862 9.66724566 9.3841568 6.03125 8.1875 C3.31790885 6.60123902 2.8899384 4.94066602 2 2 C1.34 2 0.68 2 0 2 C0 1.34 0 0.68 0 0 Z " fill="#DEA072" transform="translate(151,336)"/>
<path d="M0 0 C0 1.32 0 2.64 0 4 C-2.05824429 4.84378975 -4.12179786 5.67463622 -6.1875 6.5 C-7.33605469 6.9640625 -8.48460937 7.428125 -9.66796875 7.90625 C-12.71990077 8.90805652 -14.83115072 9.23870804 -18 9 C-18 9.66 -18 10.32 -18 11 C-21.47325181 12.1577506 -24.36067448 12.06866652 -28 12 C-25.63655517 10.42437011 -23.78322579 9.41396378 -21.19921875 8.37890625 C-20.46896484 8.08306641 -19.73871094 7.78722656 -18.98632812 7.48242188 C-17.8484082 7.02706055 -17.8484082 7.02706055 -16.6875 6.5625 C-12.57902957 4.91414905 -8.53788708 3.27109509 -4.58203125 1.27734375 C-2 0 -2 0 0 0 Z " fill="#E19B72" transform="translate(416,346)"/>
<path d="M0 0 C4.26098173 1.33115872 8.19252688 2.94760844 12.1875 4.9375 C13.72470703 5.69353516 13.72470703 5.69353516 15.29296875 6.46484375 C17.65284952 7.80313112 19.23773532 8.97127605 21 11 C18.875 11.75 18.875 11.75 16 12 C13 10 13 10 10 8 C7.30018904 7.3848532 4.77619251 7.19146155 2 7 C2.66 5.68 3.32 4.36 4 3 C2.68 2.67 1.36 2.34 0 2 C0 1.34 0 0.68 0 0 Z " fill="#DF8A55" transform="translate(367,77)"/>
<path d="M0 0 C6.0018137 -0.21824777 11.19233704 0.4943096 17 2 C17 2.66 17 3.32 17 4 C18.134375 4.0825 19.26875 4.165 20.4375 4.25 C25.4070696 4.84563714 29.5546652 6.78762273 34 9 C33.67 9.66 33.34 10.32 33 11 C32.46342773 10.81969238 31.92685547 10.63938477 31.37402344 10.45361328 C25.68057853 8.54720536 19.97278814 6.69132351 14.25 4.875 C13.42628906 4.61074219 12.60257812 4.34648437 11.75390625 4.07421875 C7.8580904 2.83834802 4.04133327 1.67355555 0 1 C0 0.67 0 0.34 0 0 Z " fill="#DC9E73" transform="translate(365,128)"/>
<path d="M0 0 C-1.69246573 4.2208444 -4.68898309 7.17117098 -7.75 10.4375 C-8.26304687 10.99759766 -8.77609375 11.55769531 -9.3046875 12.13476562 C-12.65548104 15.74234108 -16.15690736 18.922074 -20 22 C-19.67 20.35 -19.34 18.7 -19 17 C-18.38125 16.938125 -17.7625 16.87625 -17.125 16.8125 C-14.7409707 16.18447843 -14.7409707 16.18447843 -13.875 13.5625 C-13.441875 12.2940625 -13.441875 12.2940625 -13 11 C-12.34 10.34 -11.68 9.68 -11 9 C-10.01 9 -9.02 9 -8 9 C-7.67 7.35 -7.34 5.7 -7 4 C-6.34 4 -5.68 4 -5 4 C-5 3.01 -5 2.02 -5 1 C-2 0 -2 0 0 0 Z " fill="#E1955F" transform="translate(437,362)"/>
<path d="M0 0 C2.87525669 -0.05425013 5.74947646 -0.09379277 8.625 -0.125 C9.43324219 -0.14175781 10.24148438 -0.15851563 11.07421875 -0.17578125 C15.84384458 -0.2145587 19.48847571 0.28873217 24 2 C25.61719629 2.26211438 27.24342789 2.47667526 28.875 2.625 C29.65617187 2.69976562 30.43734375 2.77453125 31.2421875 2.8515625 C31.82226562 2.90054687 32.40234375 2.94953125 33 3 C33 3.66 33 4.32 33 5 C25.8231955 5.28144331 19.06486215 4.19770859 12 3 C10.84371094 2.80921875 9.68742187 2.6184375 8.49609375 2.421875 C5.66306504 1.95360579 2.83114411 1.47950909 0 1 C0 0.67 0 0.34 0 0 Z " fill="#DE9F71" transform="translate(249,427)"/>
<path d="M0 0 C0.66 0.99 1.32 1.98 2 3 C-1.27475208 9.52288016 -4.9648562 15.61992012 -9.1875 21.5625 C-9.61530762 22.16980957 -10.04311523 22.77711914 -10.48388672 23.40283203 C-12.50383395 26.19974291 -14.09846527 28.06564352 -17 30 C-16.67 28.35 -16.34 26.7 -16 25 C-15.34 25 -14.68 25 -14 25 C-13.896875 24.443125 -13.79375 23.88625 -13.6875 23.3125 C-12.85821592 20.5230899 -11.65700944 18.3860936 -10 16 C-9.34 16 -8.68 16 -8 16 C-8 15.34 -8 14.68 -8 14 C-7.34 14 -6.68 14 -6 14 C-5.34 12.02 -4.68 10.04 -4 8 C-3.34 8 -2.68 8 -2 8 C-1.855625 7.4225 -1.71125 6.845 -1.5625 6.25 C-1.04166667 4.16666667 -0.52083333 2.08333333 0 0 Z " fill="#DA9B68" transform="translate(454,332)"/>
<path d="M0 0 C-1 1.4375 -1 1.4375 -3 3 C-5.02385699 3.25699771 -7.04935744 3.50957614 -9.08203125 3.68359375 C-11.62447241 4.10301887 -12.98242202 5.45319022 -15 7 C-18.125 7.3125 -18.125 7.3125 -21 7 C-21.66 6.34 -22.32 5.68 -23 5 C-16.32923871 1.15148387 -7.6709709 -2.5569903 0 0 Z " fill="#ED782F" transform="translate(227,77)"/>
<path d="M0 0 C0.66 0.66 1.32 1.32 2 2 C1.625 5.125 1.625 5.125 1 8 C0.34 8 -0.32 8 -1 8 C-1 9.65 -1 11.3 -1 13 C-3.31 13 -5.62 13 -8 13 C-9 10 -9 10 -8.0625 7.8125 C-7.711875 7.214375 -7.36125 6.61625 -7 6 C-6.34 6 -5.68 6 -5 6 C-5 5.34 -5 4.68 -5 4 C-3.37373596 2.61767557 -1.7074998 1.28062485 0 0 Z " fill="#505050" transform="translate(233,217)"/>
<path d="M0 0 C9.29770167 4.03248634 15.90020904 14.28513436 22 22 C21.34 22.66 20.68 23.32 20 24 C20 23.34 20 22.68 20 22 C19.01 21.67 18.02 21.34 17 21 C17 20.01 17 19.02 17 18 C16.01 17.67 15.02 17.34 14 17 C13.67 16.34 13.34 15.68 13 15 C12.01 14.67 11.02 14.34 10 14 C9.71125 13.21625 9.4225 12.4325 9.125 11.625 C7.69841569 8.29630327 6.10077389 7.73945853 3 6 C0 2.5862069 0 2.5862069 0 0 Z " fill="#DF9E69" transform="translate(417,110)"/>
<path d="M0 0 C-5.88286493 3.92190995 -13.29456497 4.2407843 -20.1875 5.125 C-20.86449951 5.21265625 -21.54149902 5.3003125 -22.23901367 5.390625 C-26.18298111 5.87026405 -30.02846921 6.0864719 -34 6 C-34 5.34 -34 4.68 -34 4 C-33.04287109 3.90912109 -33.04287109 3.90912109 -32.06640625 3.81640625 C-30.82697266 3.69072266 -30.82697266 3.69072266 -29.5625 3.5625 C-28.32693359 3.44068359 -28.32693359 3.44068359 -27.06640625 3.31640625 C-25.01337975 3.21069185 -25.01337975 3.21069185 -24 2 C-21.10259424 1.59454077 -18.22052271 1.24492605 -15.3125 0.9375 C-14.50876953 0.84662109 -13.70503906 0.75574219 -12.87695312 0.66210938 C-8.56179134 0.19283994 -4.34820113 -0.10536836 0 0 Z " fill="#E0A277" transform="translate(337,426)"/>
<path d="M0 0 C-0.72703125 0.40089844 -1.4540625 0.80179688 -2.203125 1.21484375 C-9.05096944 5.08650965 -15.28464673 9.28337284 -21.50390625 14.08203125 C-23.28793914 15.4528609 -25.12798904 16.75199269 -27 18 C-26.42415568 15.61435923 -25.77772405 13.33317216 -25 11 C-23.34866919 10.29620403 -21.67756483 9.63874758 -20 9 C-17.56430248 7.57171153 -15.22433175 6.00289684 -12.875 4.4375 C-4.12460924 -1.37486975 -4.12460924 -1.37486975 0 0 Z " fill="#DC9E70" transform="translate(162,151)"/>
<path d="M0 0 C3.375 0.25 3.375 0.25 7 1 C7.69937532 2.31647119 8.36729133 3.65022151 9 5 C9.886875 5.144375 10.77375 5.28875 11.6875 5.4375 C15.53725971 6.09123278 17.23382334 7.46178258 20.25390625 9.7890625 C22.66582869 11.46176039 25.18370084 12.24440754 28 13 C27.67 13.66 27.34 14.32 27 15 C20.13477296 13.07194611 14.44802396 10.17424477 8.4375 6.375 C7.61958984 5.87226563 6.80167969 5.36953125 5.95898438 4.8515625 C1.62262975 2.15628443 1.62262975 2.15628443 0 1 C0 0.67 0 0.34 0 0 Z " fill="#DE996F" transform="translate(187,400)"/>
<path d="M0 0 C7.96274135 1.16718024 15.17833011 3.26291908 22.6875 6.125 C23.68716797 6.49753906 24.68683594 6.87007813 25.71679688 7.25390625 C28.14772056 8.16114093 30.57520319 9.07654291 33 10 C32.01 10.66 31.02 11.32 30 12 C27.609375 11.2421875 27.609375 11.2421875 24.75 9.875 C18.63777353 7.12860276 12.64903566 5.50741182 6.15234375 3.9921875 C3.02195806 3.00691121 2.1130425 2.33198807 0 0 Z " fill="#D89571" transform="translate(334,66)"/>
<path d="M0 0 C0.79325684 0.02634521 1.58651367 0.05269043 2.40380859 0.07983398 C8.15458304 0.39083646 8.15458304 0.39083646 10.30493164 2.28417969 C10.7199292 2.76790039 11.13492676 3.25162109 11.5625 3.75 C4.45118736 3.8891722 -2.49132537 3.48492545 -9.5625 2.75 C-10.99722656 2.60691406 -10.99722656 2.60691406 -12.4609375 2.4609375 C-14.78693754 2.2283375 -17.11238959 1.99130321 -19.4375 1.75 C-19.4375 1.42 -19.4375 1.09 -19.4375 0.75 C-12.89360275 -0.19992057 -6.58837936 -0.29432396 0 0 Z " fill="#E4A97E" transform="translate(325.4375,118.25)"/>
<path d="M0 0 C0.66 0.33 1.32 0.66 2 1 C1.67 2.65 1.34 4.3 1 6 C1.66 6 2.32 6 3 6 C3 5.34 3 4.68 3 4 C3.66 4 4.32 4 5 4 C5 3.34 5 2.68 5 2 C6.65 1.34 8.3 0.68 10 0 C9 3 9 3 6 5 C4.78581167 6.9466071 4.78581167 6.9466071 3.8125 9.125 C3.46832031 9.84945312 3.12414062 10.57390625 2.76953125 11.3203125 C2.51558594 11.87460938 2.26164062 12.42890625 2 13 C1.01 13 0.02 13 -1 13 C-1.02708567 11.39592672 -1.04643483 9.7917215 -1.0625 8.1875 C-1.07410156 7.29417969 -1.08570313 6.40085938 -1.09765625 5.48046875 C-1 3 -1 3 0 0 Z " fill="#6C6C6C" transform="translate(470,216)"/>
<path d="M0 0 C-3.88210614 2.58807076 -6.45888786 4.11392934 -11 5 C-13.23408113 5.99083967 -13.23408113 5.99083967 -15 7 C-15 7.66 -15 8.32 -15 9 C-15.66 9 -16.32 9 -17 9 C-17.66 10.65 -18.32 12.3 -19 14 C-19.66 13.67 -20.32 13.34 -21 13 C-21 12.34 -21 11.68 -21 11 C-20.34 10.67 -19.68 10.34 -19 10 C-19.33 9.67 -19.66 9.34 -20 9 C-20.04092937 6.66702567 -20.04241723 4.33294775 -20 2 C-19.67 2 -19.34 2 -19 2 C-19 3.98 -19 5.96 -19 8 C-18.34 8 -17.68 8 -17 8 C-16.67 7.01 -16.34 6.02 -16 5 C-10.77015838 1.36816554 -6.38341342 -0.29690295 0 0 Z " fill="#7F7F7F" transform="translate(243,214)"/>
<path d="M0 0 C3.88452659 3.61240564 6.63254267 7.2509787 9.3125 11.8125 C9.67150391 12.40998047 10.03050781 13.00746094 10.40039062 13.62304688 C11.27344624 15.07813956 12.13766691 16.53852729 13 18 C12.34 18.66 11.68 19.32 11 20 C10.7525 19.21625 10.505 18.4325 10.25 17.625 C8.84610901 14.67682892 7.99324263 14.0975223 5 13 C5 11.68 5 10.36 5 9 C4.34 9 3.68 9 3 9 C0.56839395 5.63316085 0 4.26649636 0 0 Z " fill="#DE9566" transform="translate(439,133)"/>
<path d="M0 0 C7.76470588 -0.38823529 7.76470588 -0.38823529 12 3 C14.52658757 4.27327241 17.08571108 5.44807588 19.66015625 6.62109375 C22.18767843 8.11060181 23.41841937 9.55762467 25 12 C19.97735894 10.48611133 15.46903867 8.36904087 10.8125 6 C10.10158203 5.64421875 9.39066406 5.2884375 8.65820312 4.921875 C5.63591383 3.39793609 2.82435946 1.88290631 0 0 Z " fill="#DA9A70" transform="translate(398,139)"/>
<path d="M0 0 C0 0.33 0 0.66 0 1 C-2.97 1 -5.94 1 -9 1 C-9 1.66 -9 2.32 -9 3 C-15.93 3 -22.86 3 -30 3 C-30 2.34 -30 1.68 -30 1 C-19.99112106 0.37722531 -10.03411669 -0.17707265 0 0 Z " fill="#D5814A" transform="translate(312,429)"/>
<path d="M0 0 C0.66 0.33 1.32 0.66 2 1 C-2.21188133 4.56439272 -6.49125058 7.98256918 -10.9375 11.25 C-11.51951172 11.69601562 -12.10152344 12.14203125 -12.70117188 12.6015625 C-16.83391124 15.62216935 -19.88406583 16.66024447 -25 17 C-23.61166413 14.22332826 -21.87176894 13.73257176 -19.125 12.3125 C-8.92983426 7.05679662 -8.92983426 7.05679662 0 0 Z " fill="#E1A880" transform="translate(441,329)"/>
<path d="M0 0 C3.25061573 3.77560456 5.57990776 7.73089425 7.75 12.1875 C8.22373047 13.13012695 8.22373047 13.13012695 8.70703125 14.09179688 C11 18.73232887 11 18.73232887 11 21 C10.01 21 9.02 21 8 21 C7.67386719 20.15695313 7.34773438 19.31390625 7.01171875 18.4453125 C6.35623047 16.80175781 6.35623047 16.80175781 5.6875 15.125 C5.25824219 14.03445312 4.82898438 12.94390625 4.38671875 11.8203125 C3.17067625 8.75128691 3.17067625 8.75128691 0 7 C-0.1875 3.375 -0.1875 3.375 0 0 Z " fill="#E0A67D" transform="translate(452,152)"/>
<path d="M0 0 C0.33 0.99 0.66 1.98 1 3 C0.01 3.33 -0.98 3.66 -2 4 C-2.268125 4.598125 -2.53625 5.19625 -2.8125 5.8125 C-4.50060559 8.9221682 -7.06494019 10.10444054 -10 12 C-10.99 13.485 -10.99 13.485 -12 15 C-12.99 14.67 -13.98 14.34 -15 14 C-13.71937515 12.2925002 -12.38232443 10.62626404 -11 9 C-10.34 9 -9.68 9 -9 9 C-9 8.34 -9 7.68 -9 7 C-7.03125 5.2734375 -7.03125 5.2734375 -4.5 3.375 C-3.24703125 2.42753906 -3.24703125 2.42753906 -1.96875 1.4609375 C-0.99421875 0.73777344 -0.99421875 0.73777344 0 0 Z " fill="#E1A278" transform="translate(175,101)"/>
<path d="M0 0 C3.3 0 6.6 0 10 0 C10 3.63 10 7.26 10 11 C6.52674819 12.1577506 3.63932552 12.06866652 0 12 C0 11.67 0 11.34 0 11 C1.98 11 3.96 11 6 11 C6 9.68 6 8.36 6 7 C6.66 7 7.32 7 8 7 C8 5.68 8 4.36 8 3 C5.36 2.34 2.72 1.68 0 1 C0 0.67 0 0.34 0 0 Z " fill="#686868" transform="translate(371,268)"/>
<path d="M0 0 C4.26086957 6.39130435 4.26086957 6.39130435 3.625 10.3125 C3.41875 10.869375 3.2125 11.42625 3 12 C-1.2742558 10.4169423 -3.26531794 7.49431596 -6 4 C-3 4 -3 4 -1 5 C-0.67 3.35 -0.34 1.7 0 0 Z " fill="#D49F79" transform="translate(463,173)"/>
<path d="M0 0 C0 0.33 0 0.66 0 1 C-3.35416667 1.47916667 -6.70833333 1.95833333 -10.0625 2.4375 C-11.00544922 2.57220703 -11.94839844 2.70691406 -12.91992188 2.84570312 C-17.94661458 3.56380208 -22.97330729 4.28190104 -28 5 C-27.34 4.67 -26.68 4.34 -26 4 C-26 3.34 -26 2.68 -26 2 C-18.65670077 -1.67164961 -7.94465783 -0.1030287 0 0 Z " fill="#E3A87C" transform="translate(255,121)"/>
<path d="M0 0 C0 0.99 0 1.98 0 3 C-2.08047297 3.5321441 -4.16452293 4.05031786 -6.25 4.5625 C-7.41015625 4.85253906 -8.5703125 5.14257812 -9.765625 5.44140625 C-12.72090983 5.95179964 -14.24434101 6.02996165 -17 5 C-16.01 5 -15.02 5 -14 5 C-14 4.01 -14 3.02 -14 2 C-12.4176994 1.66179834 -10.83410625 1.32964061 -9.25 1 C-8.36828125 0.814375 -7.4865625 0.62875 -6.578125 0.4375 C-4 0 -4 0 0 0 Z " fill="#E29261" transform="translate(263,63)"/>
<path d="M0 0 C-6.62128628 6.06951242 -15.62020079 5.25139398 -24 5 C-24 4.67 -24 4.34 -24 4 C-22.86820312 3.79503906 -21.73640625 3.59007812 -20.5703125 3.37890625 C-19.08851239 3.10693028 -17.60674315 2.83478613 -16.125 2.5625 C-15.37863281 2.42779297 -14.63226563 2.29308594 -13.86328125 2.15429688 C-1.96701554 -0.04276121 -1.96701554 -0.04276121 0 0 Z " fill="#E57F3C" transform="translate(360,368)"/>
<path d="M0 0 C0.99 0 1.98 0 3 0 C3.33 1.65 3.66 3.3 4 5 C5.32 4.34 6.64 3.68 8 3 C8.33 4.98 8.66 6.96 9 9 C7 10 7 10 3.875 9.0625 C2.451875 8.5365625 2.451875 8.5365625 1 8 C1 7.34 1 6.68 1 6 C0.01 5.34 -0.98 4.68 -2 4 C-1.34 4 -0.68 4 0 4 C0 2.68 0 1.36 0 0 Z " fill="#4E4E4E" transform="translate(294,286)"/>
<path d="M0 0 C-0.33 0.66 -0.66 1.32 -1 2 C-3.72072239 2.64892503 -6.37080246 3.17364321 -9.125 3.625 C-9.87265625 3.7590625 -10.6203125 3.893125 -11.390625 4.03125 C-15.99338496 4.81708707 -20.3326216 5.13618345 -25 5 C-22.0227668 3.3528733 -19.34151123 2.54365829 -16 1.9375 C-12.44018722 1.28419155 -12.44018722 1.28419155 -8.921875 0.4453125 C-5.95712024 -0.24164287 -3.02825877 -0.05823575 0 0 Z " fill="#E87C3C" transform="translate(341,423)"/>
<path d="M0 0 C4.17576168 0.68416434 7.88080407 2.01365009 11.8125 3.5625 C13.55466797 4.24505859 13.55466797 4.24505859 15.33203125 4.94140625 C16.21246094 5.29074219 17.09289062 5.64007813 18 6 C18 6.33 18 6.66 18 7 C11.33499135 7.59244521 6.13047025 5.48322845 0 3 C0 2.01 0 1.02 0 0 Z " fill="#E0A57C" transform="translate(182,353)"/>
<path d="M0 0 C-2.70239953 2.70239953 -5.81824127 3.4274359 -9.375 4.5625 C-10.38433594 4.89411133 -10.38433594 4.89411133 -11.4140625 5.23242188 C-14.58533876 6.26558373 -17.74703687 7.25765713 -21 8 C-21.33 7.34 -21.66 6.68 -22 6 C-18.66666667 4.66666667 -15.33333333 3.33333333 -12 2 C-11.1440625 1.62875 -10.288125 1.2575 -9.40625 0.875 C-6.21446753 -0.28564817 -3.36594796 -0.13199796 0 0 Z " fill="#E0A17D" transform="translate(206,131)"/>
<path d="M0 0 C2.75153071 0.61879402 5.50108898 1.24476186 8.25 1.875 C9.02730469 2.04902344 9.80460938 2.22304688 10.60546875 2.40234375 C11.73662109 2.66337891 11.73662109 2.66337891 12.890625 2.9296875 C13.92751465 3.16534424 13.92751465 3.16534424 14.98535156 3.40576172 C17.14737125 4.04346845 19.01604085 4.93799834 21 6 C14.25167265 6.32134892 9.27240619 5.43087228 3 3 C2.01 2.67 1.02 2.34 0 2 C0 1.34 0 0.68 0 0 Z " fill="#DFAB83" transform="translate(204,361)"/>
<path d="M0 0 C-4.93966808 4.34690791 -10.56685067 5.31381216 -17 5 C-14.79458612 2.79458612 -13.05332499 2.0026552 -10.1875 0.8125 C-9.33542969 0.44769531 -8.48335937 0.08289063 -7.60546875 -0.29296875 C-4.66475703 -1.09097298 -2.9024918 -0.81811708 0 0 Z " fill="#E39B68" transform="translate(231,73)"/>
<path d="M0 0 C6.82574497 0.42116299 13.70094113 1.16542351 20 4 C20.99 5.485 20.99 5.485 22 7 C14.39086902 5.7205886 7.26774103 3.57243067 0 1 C0 0.67 0 0.34 0 0 Z " fill="#DC9D73" transform="translate(226,420)"/>
<path d="M0 0 C4.29687087 0.4774301 6.20804241 2.86755978 9 6 C10.73753878 8.2929815 12.37110677 10.62646987 14 13 C11 13 11 13 9.31640625 11.6796875 C5.73206135 7.99156424 2.67953548 4.39443818 0 0 Z " fill="#DD976F" transform="translate(148,365)"/>
<path d="M0 0 C0 0.33 0 0.66 0 1 C-10.395 1.495 -10.395 1.495 -21 2 C-21.33 1.34 -21.66 0.68 -22 0 C-14.78621941 -1.64364621 -7.23192788 -1.56366008 0 0 Z " fill="#E3A882" transform="translate(278,119)"/>
<path d="M0 0 C2.0625 0.4375 2.0625 0.4375 4 1 C2.25447936 2.15264553 0.50339804 3.29687327 -1.25 4.4375 C-2.22453125 5.07558594 -3.1990625 5.71367187 -4.203125 6.37109375 C-6.58381615 7.7576136 -8.31780307 8.546581 -11 9 C-10.34 7.68 -9.68 6.36 -9 5 C-8.01 5 -7.02 5 -6 5 C-6 4.34 -6 3.68 -6 3 C-5.195625 2.690625 -4.39125 2.38125 -3.5625 2.0625 C-1.10919595 1.23664655 -1.10919595 1.23664655 0 0 Z " fill="#DE975D" transform="translate(390,401)"/>
<path d="M0 0 C3.8373228 2.49872182 7.45960866 5.0843836 11 8 C10.67 8.66 10.34 9.32 10 10 C3.52085747 8.65527231 3.52085747 8.65527231 1.0625 5.5625 C0 3 0 3 0 0 Z " fill="#E29A6F" transform="translate(406,100)"/>
<path d="M0 0 C2.0625 0.4375 2.0625 0.4375 4 1 C-1.97332123 4.4753869 -6.11509775 5.57374185 -13 5 C-12.67 4.34 -12.34 3.68 -12 3 C-9.53125 2.40234375 -9.53125 2.40234375 -6.5 1.9375 C-2.93945782 1.64569564 -2.93945782 1.64569564 0 0 Z " fill="#E49463" transform="translate(375,410)"/>
<path d="M0 0 C0 0.66 0 1.32 0 2 C-1.4609375 3.2890625 -1.4609375 3.2890625 -3.375 4.625 C-4.31472656 5.29402344 -4.31472656 5.29402344 -5.2734375 5.9765625 C-7 7 -7 7 -9 7 C-9 7.66 -9 8.32 -9 9 C-13.38461538 12 -13.38461538 12 -16 12 C-16 11.34 -16 10.68 -16 10 C-15.34 10 -14.68 10 -14 10 C-14 9.34 -14 8.68 -14 8 C-12.68 8 -11.36 8 -10 8 C-9.67 7.01 -9.34 6.02 -9 5 C-3.65116279 0 -3.65116279 0 0 0 Z " fill="#DB9F79" transform="translate(410,389)"/>
<path d="M0 0 C3.63 0.33 7.26 0.66 11 1 C11.33 1.99 11.66 2.98 12 4 C12.99 4.33 13.98 4.66 15 5 C9.5814234 5.22577402 5.22512279 4.46670113 0 3 C0 2.01 0 1.02 0 0 Z " fill="#E87D37" transform="translate(192,359)"/>
<path d="M0 0 C3.1183499 1.85152025 6.22031518 3.7301443 9.3125 5.625 C10.00988281 6.05039062 10.70726562 6.47578125 11.42578125 6.9140625 C11.94527344 7.27242188 12.46476563 7.63078125 13 8 C13 8.33 13 8.66 13 9 C11.35 9 9.7 9 8 9 C8 8.34 8 7.68 8 7 C6.576875 6.8453125 6.576875 6.8453125 5.125 6.6875 C2 6 2 6 0 3 C0 2.01 0 1.02 0 0 Z " fill="#DFA176" transform="translate(138,327)"/>
<path d="M0 0 C1.41655793 -0.0272415 2.83327045 -0.04650467 4.25 -0.0625 C5.43335938 -0.07990234 5.43335938 -0.07990234 6.640625 -0.09765625 C8.96285143 -0.00153761 10.8300721 0.15987305 13 1 C13.33 1.99 13.66 2.98 14 4 C11.03 4 8.06 4 5 4 C4.67 3.01 4.34 2.02 4 1 C1.98491642 0.26676204 1.98491642 0.26676204 0 0 Z " fill="#DF8D56" transform="translate(220,367)"/>
<path d="M0 0 C4.18139869 1.32006614 6.00070434 2.76758614 8.375 6.4375 C8.89835938 7.21996094 9.42171875 8.00242187 9.9609375 8.80859375 C11 11 11 11 10 14 C6 9.25 6 9.25 6 7 C5.34 7 4.68 7 4 7 C2.02 3.535 2.02 3.535 0 0 Z " fill="#DBA17D" transform="translate(137,351)"/>
<path d="M0 0 C0.33 1.65 0.66 3.3 1 5 C-1.25 5.6875 -1.25 5.6875 -4 6 C-6.3125 4.6875 -6.3125 4.6875 -8 3 C-8 2.34 -8 1.68 -8 1 C-5.10765685 0.17361624 -3.11257569 0 0 0 Z " fill="#666666" transform="translate(440,266)"/>
<path d="M0 0 C-2.92910944 1.95273962 -5.08132291 2.75396363 -8.4375 3.6875 C-9.38496094 3.95949219 -10.33242187 4.23148438 -11.30859375 4.51171875 C-13.98918237 4.99803744 -15.46287583 4.89369149 -18 4 C-11.74827614 1.13035626 -6.90352555 -0.51137226 0 0 Z " fill="#DC9F74" transform="translate(224,126)"/>
<path d="M0 0 C0.33 0.66 0.66 1.32 1 2 C1.99 2 2.98 2 4 2 C4 3.98 4 5.96 4 8 C-1.66153846 5.53846154 -1.66153846 5.53846154 -3.375 2.8125 C-3.58125 2.214375 -3.7875 1.61625 -4 1 C-2.68 1.33 -1.36 1.66 0 2 C0 1.34 0 0.68 0 0 Z " fill="#E1813E" transform="translate(459,171)"/>
<path d="M0 0 C11.52164009 1.92710706 11.52164009 1.92710706 17 4 C17 4.33 17 4.66 17 5 C11.41003031 5.34937311 7.03787145 4.52472638 2 2 C1.34 1.34 0.68 0.68 0 0 Z " fill="#DCA27D" transform="translate(334,66)"/>
<path d="M0 0 C5.96351455 1.27789598 8.48417174 4.33716394 12 9 C11.67 9.66 11.34 10.32 11 11 C9.16365304 9.35742342 7.3308593 7.71117305 5.5 6.0625 C4.97535156 5.59392578 4.45070312 5.12535156 3.91015625 4.64257812 C2.5878256 3.44904592 1.29166061 2.22665821 0 1 C0 0.67 0 0.34 0 0 Z " fill="#DE9D77" transform="translate(161,379)"/>
<path d="M0 0 C9.59453303 2.70615034 9.59453303 2.70615034 13 7 C7.25 6.125 7.25 6.125 5 5 C5 4.34 5 3.68 5 3 C3.35 3 1.7 3 0 3 C0 2.01 0 1.02 0 0 Z " fill="#EB7C3A" transform="translate(163,346)"/>
<path d="M0 0 C0.33 0.66 0.66 1.32 1 2 C0.360625 2.2475 -0.27875 2.495 -0.9375 2.75 C-3.18741541 3.81562433 -3.18741541 3.81562433 -3.75 6.125 C-3.8325 6.74375 -3.915 7.3625 -4 8 C-6.64 8.33 -9.28 8.66 -12 9 C-8.53005564 5.0963126 -4.44775994 2.63411025 0 0 Z " fill="#E77E39" transform="translate(439,333)"/>
<path d="M0 0 C-3.37107296 2.9665442 -6.60901181 4.13748446 -11 5 C-13.21875 4.04296875 -13.21875 4.04296875 -15 3 C-12.87790224 2.30359327 -10.75221473 1.61811643 -8.625 0.9375 C-6.84996094 0.36322266 -6.84996094 0.36322266 -5.0390625 -0.22265625 C-2 -1 -2 -1 0 0 Z " fill="#E3A881" transform="translate(388,359)"/>
<path d="M0 0 C0.99 0.33 1.98 0.66 3 1 C0.36 4.3 -2.28 7.6 -5 11 C-5.33 10.34 -5.66 9.68 -6 9 C-5.67 8.01 -5.34 7.02 -5 6 C-4.34 6 -3.68 6 -3 6 C-2.87625 5.38125 -2.7525 4.7625 -2.625 4.125 C-2 2 -2 2 0 0 Z " fill="#DBA076" transform="translate(443,351)"/>
<path d="M0 0 C0.33 0 0.66 0 1 0 C1.43177893 6.26079448 0.92739438 9.09075703 -3 14 C-4.66052929 10.67894143 -3.049567 7.38268092 -2 4 C-0.875 1.5 -0.875 1.5 0 0 Z " fill="#E49A6B" transform="translate(127,157)"/>
<path d="M0 0 C0.66 0.66 1.32 1.32 2 2 C4.06874034 2.6425235 4.06874034 2.6425235 6 3 C6 3.66 6 4.32 6 5 C6.639375 5.12375 7.27875 5.2475 7.9375 5.375 C8.618125 5.58125 9.29875 5.7875 10 6 C10.33 6.66 10.66 7.32 11 8 C9.53890937 7.74445946 8.08111904 7.46999628 6.625 7.1875 C5.81289063 7.03667969 5.00078125 6.88585937 4.1640625 6.73046875 C2 6 2 6 0 3 C0 2.01 0 1.02 0 0 Z " fill="#E4844E" transform="translate(421,146)"/>
<path d="M0 0 C-4.69565217 2.86956522 -4.69565217 2.86956522 -7.1875 3.9375 C-9.45644863 5.26757334 -10.03874684 6.59686711 -11 9 C-11 6.69 -11 4.38 -11 2 C-9.54494642 1.47007308 -8.08581873 0.9513211 -6.625 0.4375 C-5.81289062 0.14746094 -5.00078125 -0.14257812 -4.1640625 -0.44140625 C-2 -1 -2 -1 0 0 Z " fill="#898989" transform="translate(102,292)"/>
<path d="M0 0 C1.32 0 2.64 0 4 0 C4 5.61 4 11.22 4 17 C3.67 17 3.34 17 3 17 C2.67 12.71 2.34 8.42 2 4 C1.01 3.67 0.02 3.34 -1 3 C-0.67 2.01 -0.34 1.02 0 0 Z " fill="#747474" transform="translate(362,198)"/>
<path d="M0 0 C2.9375 0.375 2.9375 0.375 6 1 C6.33 1.66 6.66 2.32 7 3 C9.01669827 4.13350534 9.01669827 4.13350534 11 5 C11 5.66 11 6.32 11 7 C11.66 7.33 12.32 7.66 13 8 C9.18008284 8 7.88692091 6.76738773 4.8125 4.5625 C3.91144531 3.92441406 3.01039063 3.28632813 2.08203125 2.62890625 C1.39496094 2.09136719 0.70789063 1.55382812 0 1 C0 0.67 0 0.34 0 0 Z " fill="#DCA47B" transform="translate(427,153)"/>
<path d="M0 0 C5.54050113 0.56825653 10.03715966 2.62886517 15 5 C14.67 5.66 14.34 6.32 14 7 C9.0276578 5.50829734 4.58154261 3.39542583 0 1 C0 0.67 0 0.34 0 0 Z " fill="#D7966A" transform="translate(167,347)"/>
<path d="M0 0 C2.64 1.98 5.28 3.96 8 6 C7.67 6.66 7.34 7.32 7 8 C5.02 7.34 3.04 6.68 1 6 C0.67 4.02 0.34 2.04 0 0 Z " fill="#E4A075" transform="translate(130,320)"/>
<path d="M0 0 C-5.52841596 4.76058041 -5.52841596 4.76058041 -9 5 C-9.66 4.34 -10.32 3.68 -11 3 C-9.73581754 2.30034557 -8.46334598 1.61565237 -7.1875 0.9375 C-6.47980469 0.55464844 -5.77210938 0.17179687 -5.04296875 -0.22265625 C-3 -1 -3 -1 0 0 Z " fill="#E49A66" transform="translate(215,79)"/>
<path d="M0 0 C0.99 0.33 1.98 0.66 3 1 C0.36 3.64 -2.28 6.28 -5 9 C-5.33 7.68 -5.66 6.36 -6 5 C-5.34 4.34 -4.68 3.68 -4 3 C-3.01 3 -2.02 3 -1 3 C-0.67 2.01 -0.34 1.02 0 0 Z " fill="#E49C7C" transform="translate(423,375)"/>
<path d="M0 0 C1.17219543 0.78345715 2.33763668 1.57702836 3.5 2.375 C4.47453125 3.03628906 4.47453125 3.03628906 5.46875 3.7109375 C5.9740625 4.13632812 6.479375 4.56171875 7 5 C7 5.66 7 6.32 7 7 C8.32 7.66 9.64 8.32 11 9 C10.67 9.66 10.34 10.32 10 11 C5.69970079 8.51035309 2.82268614 6.10572529 0 2 C0 1.34 0 0.68 0 0 Z " fill="#E67C39" transform="translate(158,372)"/>
<path d="M0 0 C1.4540625 0.0309375 1.4540625 0.0309375 2.9375 0.0625 C1.9475 0.3925 0.9575 0.7225 -0.0625 1.0625 C-0.0625 1.7225 -0.0625 2.3825 -0.0625 3.0625 C-2.7025 4.0525 -5.3425 5.0425 -8.0625 6.0625 C-8.7225 5.4025 -9.3825 4.7425 -10.0625 4.0625 C-9.093125 3.588125 -8.12375 3.11375 -7.125 2.625 C-2.0625 0.04209184 -2.0625 0.04209184 0 0 Z " fill="#E68140" transform="translate(391.0625,357.9375)"/>
<path d="M0 0 C1.13199353 0.9080162 2.25532363 1.82683826 3.375 2.75 C4.00148438 3.26046875 4.62796875 3.7709375 5.2734375 4.296875 C7.08312318 6.08199481 8.00117455 7.67949644 9 10 C8.01 10.495 8.01 10.495 7 11 C7 10.34 7 9.68 7 9 C6.01 8.67 5.02 8.34 4 8 C4 7.01 4 6.02 4 5 C3.01 4.67 2.02 4.34 1 4 C0.3125 1.9375 0.3125 1.9375 0 0 Z " fill="#DA9E78" transform="translate(430,123)"/>
<path d="M0 0 C0.625 1.8125 0.625 1.8125 1 4 C0.01 5.485 0.01 5.485 -1 7 C-1.66 7 -2.32 7 -3 7 C-3.12375 7.804375 -3.2475 8.60875 -3.375 9.4375 C-3.58125 10.283125 -3.7875 11.12875 -4 12 C-4.99 12.495 -4.99 12.495 -6 13 C-3.10933941 3.40546697 -3.10933941 3.40546697 0 0 Z " fill="#E09663" transform="translate(152,122)"/>
<path d="M0 0 C5.37305699 -0.44041451 5.37305699 -0.44041451 8 0 C10 2.5 10 2.5 11 5 C7.27566618 3.7874262 3.62197194 2.49140021 0 1 C0 0.67 0 0.34 0 0 Z " fill="#E1A576" transform="translate(398,139)"/>
<path d="M0 0 C0.66 0.33 1.32 0.66 2 1 C0 4 0 4 -3 5 C-5.33299825 5.03954234 -7.66708189 5.04401732 -10 5 C-6.76527494 2.84351662 -3.62848922 1.38542316 0 0 Z " fill="#E5AC89" transform="translate(398,353)"/>
<path d="M0 0 C0 1.32 0 2.64 0 4 C-2.31 4.66 -4.62 5.32 -7 6 C-6.75 4.125 -6.75 4.125 -6 2 C-3.85331506 0.61504198 -2.56128588 0 0 0 Z " fill="#E3905D" transform="translate(416,346)"/>
<path d="M0 0 C1.32 0.66 2.64 1.32 4 2 C4 2.66 4 3.32 4 4 C2.02 4.33 0.04 4.66 -2 5 C-2.33 4.01 -2.66 3.02 -3 2 C-2.01 1.34 -1.02 0.68 0 0 Z " fill="#E67E38" transform="translate(158,146)"/>
<path d="M0 0 C4.875 4.625 4.875 4.625 6 8 C5.01 8.33 4.02 8.66 3 9 C0.70620251 5.55930376 0 4.27709699 0 0 Z " fill="#DBA174" transform="translate(439,133)"/>
<path d="M0 0 C0 0.66 0 1.32 0 2 C-0.66 2 -1.32 2 -2 2 C-2.2475 2.639375 -2.495 3.27875 -2.75 3.9375 C-4 6 -4 6 -6.125 6.75 C-7.053125 6.87375 -7.053125 6.87375 -8 7 C-6.53112033 2.34854772 -6.53112033 2.34854772 -4 0.6875 C-2 0 -2 0 0 0 Z " fill="#E89764" transform="translate(204,83)"/>
<path d="M0 0 C0.66 0.33 1.32 0.66 2 1 C-0.23943282 4.35914922 -1.26842083 4.81681636 -5 6 C-5.99 6 -6.98 6 -8 6 C-8 5.01 -8 4.02 -8 3 C-6.865625 2.690625 -5.73125 2.38125 -4.5625 2.0625 C-1.21224901 1.37075469 -1.21224901 1.37075469 0 0 Z " fill="#E97D3E" transform="translate(379,406)"/>
<path d="M0 0 C-3.14591933 2.80045623 -5.067064 3.35261589 -9.25 3.1875 C-10.14203125 3.16042969 -11.0340625 3.13335937 -11.953125 3.10546875 C-12.62859375 3.07066406 -13.3040625 3.03585937 -14 3 C-14 2.67 -14 2.34 -14 2 C-9.15758367 0.66416101 -5.06562383 -0.25328119 0 0 Z " fill="#E18347" transform="translate(360,368)"/>
<path d="M0 0 C3.3 0 6.6 0 10 0 C9.67 1.32 9.34 2.64 9 4 C6.03 3.01 3.06 2.02 0 1 C0 0.67 0 0.34 0 0 Z " fill="#7C7C7C" transform="translate(371,268)"/>
<path d="M0 0 C0.99 0.99 1.98 1.98 3 3 C2.34 4.98 1.68 6.96 1 9 C-1 7 -1 7 -1.1875 3.9375 C-1 1 -1 1 0 0 Z " fill="#646464" transform="translate(323,242)"/>
<path d="M0 0 C2.31 0.66 4.62 1.32 7 2 C4.33440687 3.77706209 1.9719385 4.87548273 -1 6 C-1.33 5.34 -1.66 4.68 -2 4 C-1.0625 1.875 -1.0625 1.875 0 0 Z " fill="#777777" transform="translate(478,225)"/>
<path d="M0 0 C1.32 1.32 2.64 2.64 4 4 C3.67 4.99 3.34 5.98 3 7 C1.35 6.01 -0.3 5.02 -2 4 C-1.34 2.68 -0.68 1.36 0 0 Z " fill="#858786" transform="translate(140,72)"/>
<path d="M0 0 C0.99 0 1.98 0 3 0 C3 0.66 3 1.32 3 2 C4.65 2 6.3 2 8 2 C8 2.66 8 3.32 8 4 C8.66 4 9.32 4 10 4 C10 4.66 10 5.32 10 6 C7.07120629 5.37240135 4.63904371 4.41377341 2 3 C2 2.34 2 1.68 2 1 C1.34 0.67 0.68 0.34 0 0 Z " fill="#E48041" transform="translate(143,334)"/>
<path d="M0 0 C3 1 3 1 4.75 3.875 C6 7 6 7 5 10 C4.16121545 8.71186658 3.32913217 7.41936744 2.5 6.125 C2.0359375 5.40570313 1.571875 4.68640625 1.09375 3.9453125 C0 2 0 2 0 0 Z " fill="#DA9D7A" transform="translate(126,332)"/>
<path d="M0 0 C1.485 0.99 1.485 0.99 3 2 C3 2.66 3 3.32 3 4 C4.32 4.66 5.64 5.32 7 6 C3.25 7.125 3.25 7.125 1 6 C0.375 2.9375 0.375 2.9375 0 0 Z " fill="#E3AC82" transform="translate(123,313)"/>
<path d="M0 0 C2.64 1.65 5.28 3.3 8 5 C7.67 5.66 7.34 6.32 7 7 C3.535 5.02 3.535 5.02 0 3 C0 2.01 0 1.02 0 0 Z " fill="#D89264" transform="translate(440,160)"/>
<path d="M0 0 C5.445 1.485 5.445 1.485 11 3 C10.67 3.66 10.34 4.32 10 5 C6.05140217 4.4359146 3.29120954 3.2568294 0 1 C0 0.67 0 0.34 0 0 Z " fill="#E2894E" transform="translate(377,84)"/>
<path d="M0 0 C3.45925163 1.2491742 6.14693203 2.67527795 9 5 C8.01 5.495 8.01 5.495 7 6 C4.64018187 5.06421005 2.30368736 4.06652192 0 3 C0 2.01 0 1.02 0 0 Z " fill="#DE9E7B" transform="translate(376,81)"/>
<path d="M0 0 C-1.32 0.33 -2.64 0.66 -4 1 C-4 1.66 -4 2.32 -4 3 C-5.98 3.33 -7.96 3.66 -10 4 C-10.33 3.34 -10.66 2.68 -11 2 C-9.54494642 1.47007308 -8.08581873 0.9513211 -6.625 0.4375 C-5.81289062 0.14746094 -5.00078125 -0.14257812 -4.1640625 -0.44140625 C-2 -1 -2 -1 0 0 Z " fill="#E4AF92" transform="translate(240,69)"/>
<path d="M0 0 C2.23551759 3.35327639 2.17283528 3.90743657 1.625 7.6875 C1.51414063 8.49574219 1.40328125 9.30398438 1.2890625 10.13671875 C1.19367188 10.75160156 1.09828125 11.36648438 1 12 C0.67 12 0.34 12 0 12 C-0.76173392 7.6835078 -1.16063604 4.25566547 0 0 Z " fill="#919191" transform="translate(188,449)"/>
<path d="M0 0 C1.65 0 3.3 0 5 0 C5 0.66 5 1.32 5 2 C7.31 2 9.62 2 12 2 C12 2.33 12 2.66 12 3 C10.37581255 3.08090971 8.75048255 3.13914995 7.125 3.1875 C5.76761719 3.23970703 5.76761719 3.23970703 4.3828125 3.29296875 C3.20332031 3.14794922 3.20332031 3.14794922 2 3 C1.34 2.01 0.68 1.02 0 0 Z " fill="#DE7D46" transform="translate(246,424)"/>
<path d="M0 0 C0.90492188 0.30357422 0.90492188 0.30357422 1.828125 0.61328125 C0.70738638 1.4523369 -0.41862047 2.28435956 -1.546875 3.11328125 C-2.17335938 3.57734375 -2.79984375 4.04140625 -3.4453125 4.51953125 C-5.171875 5.61328125 -5.171875 5.61328125 -7.171875 5.61328125 C-7.171875 4.95328125 -7.171875 4.29328125 -7.171875 3.61328125 C-2.92048515 -0.52001444 -2.92048515 -0.52001444 0 0 Z " fill="#DFA077" transform="translate(392.171875,401.38671875)"/>
<path d="M0 0 C3.91211733 1.15585285 6.8745041 2.35534962 10 5 C9.01 5.33 8.02 5.66 7 6 C5.17578125 5.0390625 5.17578125 5.0390625 3.3125 3.625 C2.68988281 3.16351563 2.06726563 2.70203125 1.42578125 2.2265625 C0.95527344 1.82179688 0.48476562 1.41703125 0 1 C0 0.67 0 0.34 0 0 Z " fill="#D99871" transform="translate(179,394)"/>
<path d="M0 0 C4.455 0.99 4.455 0.99 9 2 C9 2.66 9 3.32 9 4 C5.37471432 4.20140476 3.13498292 3.85776765 0 2 C0 1.34 0 0.68 0 0 Z " fill="#D59D77" transform="translate(204,361)"/>
<path d="M0 0 C0.66 0.33 1.32 0.66 2 1 C0 4 0 4 -1.9375 4.8125 C-4 5 -4 5 -7 3 C-4.69631264 1.93347808 -2.35981813 0.93578995 0 0 Z " fill="#686868" transform="translate(171,266)"/>
<path d="M0 0 C0.33 0.66 0.66 1.32 1 2 C1.66 2 2.32 2 3 2 C2.1875 4.9375 2.1875 4.9375 1 8 C0.01 8.33 -0.98 8.66 -2 9 C-1.34 6.03 -0.68 3.06 0 0 Z " fill="#878787" transform="translate(257,251)"/>
<path d="M0 0 C1.98 0.495 1.98 0.495 4 1 C4.33 2.32 4.66 3.64 5 5 C3.02 5.33 1.04 5.66 -1 6 C-0.67 4.02 -0.34 2.04 0 0 Z " fill="#4E4E4E" transform="translate(266,248)"/>
<path d="M0 0 C1.32 0.33 2.64 0.66 4 1 C1.03 3.475 1.03 3.475 -2 6 C-2.33 5.01 -2.66 4.02 -3 3 C-2.34 3 -1.68 3 -1 3 C-0.67 2.01 -0.34 1.02 0 0 Z " fill="#E2B28F" transform="translate(124,175)"/>
<path d="M0 0 C1.32 0 2.64 0 4 0 C4.33 0.66 4.66 1.32 5 2 C6.64363134 2.72159424 8.31050386 3.39351421 10 4 C6.71023192 5.09658936 5.28696233 4.79953138 2 4 C2 3.34 2 2.68 2 2 C1.34 2 0.68 2 0 2 C0 1.34 0 0.68 0 0 Z " fill="#EA7B33" transform="translate(380,128)"/>
<path d="M0 0 C7.38461538 -0.36923077 7.38461538 -0.36923077 10.5 1.5 C10.995 1.995 11.49 2.49 12 3 C9.69 3 7.38 3 5 3 C5 2.34 5 1.68 5 1 C3.35 1 1.7 1 0 1 C0 0.67 0 0.34 0 0 Z " fill="#E18447" transform="translate(360,125)"/>
<path d="M0 0 C2.3125 0.1875 2.3125 0.1875 4 1 C-0.39453125 5.00390625 -0.39453125 5.00390625 -2 6 C-2.99 5.67 -3.98 5.34 -5 5 C-2.75 2.4375 -2.75 2.4375 0 0 Z " fill="#E67E3C" transform="translate(214,78)"/>
<path d="M0 0 C1.98 0.99 1.98 0.99 4 2 C4 3.32 4 4.64 4 6 C4.66 6.33 5.32 6.66 6 7 C5.01 7 4.02 7 3 7 C0 2.77777778 0 2.77777778 0 0 Z " fill="#E1A16E" transform="translate(132,342)"/>
<path d="M0 0 C0.99 0 1.98 0 3 0 C2.43628586 3.26954202 1.50037734 4.82575883 -1 7 C-1.04254356 5.00045254 -1.04080783 2.99958364 -1 1 C-0.67 0.67 -0.34 0.34 0 0 Z " fill="#E57D3A" transform="translate(453,330)"/>
<path d="M0 0 C0.66 0.33 1.32 0.66 2 1 C-3.14285714 6.57142857 -3.14285714 6.57142857 -7 7 C-4.66666667 4.66666667 -2.33333333 2.33333333 0 0 Z " fill="#E4AD7F" transform="translate(450,322)"/>
<path d="M0 0 C1.125 3.75 1.125 3.75 0 6 C0.66 6 1.32 6 2 6 C1.67 6.99 1.34 7.98 1 9 C0.01 8.67 -0.98 8.34 -2 8 C-1.47731534 5.23723823 -0.89130413 2.6739124 0 0 Z " fill="#D5B89C" transform="translate(118,176)"/>
<path d="M0 0 C-2.17424117 2.50037734 -3.73045798 3.43628586 -7 4 C-7 3.01 -7 2.02 -7 1 C-3.375 -1.125 -3.375 -1.125 0 0 Z " fill="#E29870" transform="translate(169,146)"/>
<path d="M0 0 C3.14624993 -0.26218749 4.61837017 -0.24754367 7.3125 1.5 C8.1478125 2.2425 8.1478125 2.2425 9 3 C2.25 3.125 2.25 3.125 0 2 C0 1.34 0 0.68 0 0 Z " fill="#E97C33" transform="translate(351,121)"/>
<path d="M0 0 C-1.36983503 3.16115776 -1.9890638 3.9927092 -5 6 C-5 4.35 -5 2.7 -5 1 C-2 0 -2 0 0 0 Z " fill="#DE976B" transform="translate(437,362)"/>
<path d="M0 0 C1.65 0 3.3 0 5 0 C5.33 0.99 5.66 1.98 6 3 C6.99 3.33 7.98 3.66 9 4 C6.75 4.25 6.75 4.25 4 4 C1.6875 2 1.6875 2 0 0 Z " fill="#D98950" transform="translate(198,360)"/>
<path d="M0 0 C0.66 0.33 1.32 0.66 2 1 C2.59355614 3.64860427 2.74209269 6.29197322 3 9 C0.86928411 6.40608501 -0.53582673 4.36525621 -1 1 C-0.67 0.67 -0.34 0.34 0 0 Z " fill="#E09D75" transform="translate(123,323)"/>
<path d="M0 0 C1.32 0.66 2.64 1.32 4 2 C3.01 2.33 2.02 2.66 1 3 C0.26676204 5.01508358 0.26676204 5.01508358 0 7 C-0.38133299 5.0085944 -0.71325582 3.00720923 -1 1 C-0.67 0.67 -0.34 0.34 0 0 Z " fill="#D3BA9C" transform="translate(117,308)"/>
<path d="M0 0 C0.99 0.33 1.98 0.66 3 1 C1.63016497 4.16115776 1.0109362 4.9927092 -2 7 C-1.42415568 4.61435923 -0.77772405 2.33317216 0 0 Z " fill="#E4A078" transform="translate(137,162)"/>
<path d="M0 0 C2.62386487 3.06117568 3 3.73173127 3 8 C2.01 7.67 1.02 7.34 0 7 C0 4.69 0 2.38 0 0 Z " fill="#E29461" transform="translate(452,152)"/>
<path d="M0 0 C1.9375 0.8125 1.9375 0.8125 4 2 C4.33 2.99 4.66 3.98 5 5 C5.66 5.66 6.32 6.32 7 7 C5.35 6.67 3.7 6.34 2 6 C1.34 4.02 0.68 2.04 0 0 Z " fill="#E48853" transform="translate(388,88)"/>
</svg>
